<?xml version="1.0" encoding="utf-8"?>
<svg version="1.0" xmlns="http://www.w3.org/2000/svg" xmlns:xlink="http://www.w3.org/1999/xlink" viewBox="0 0 720.7 772.6">
<style type="text/css">
  .sat-bg { opacity: 0.57; }
  .comuna { fill: none; stroke: #FFFFFF; stroke-width: 1.4; stroke-miterlimit: 3.0303; opacity: 0.7; }
</style>
<g class="sat-bg">
  <image width="1172" height="1244" xlink:href="santiago-satelital.png" transform="matrix(0.7103 0 0 0.7015 -96.8161 -98.0653)"/>
</g>
<g>
  <path class="comuna" d="M180,452.2l20.4,20.2l-7.4,4.7l-5.2-5.2l-7.6,7.8l-4-3.1l-6.6,8.1l5.2,4.3l-4,3.8l3.6,2.1l-7.1,16.1l-7.8,1.2l-8.8-9.5l10.2-6.6l-3.3-3.6l4.3-3.1l-5.5-6.6l-5.7-0.9l-11.2,14l-4.3-2.1l19-19.2L143,460v-3.1l8.8-4.7l5.2,8.8l5.5-2.8l5.9,5L180,452.2L180,452.2z"/>
  <path class="comuna" d="M200.4,472.2l-27.9-27l13.9-11.7L172,423.2L177,407c1-15.6-5.3-43,3.1-46.8l37.3-9.9l-19.3-6.3l33.7-22l-8.1-14.6l0-5.2l35.1,7.2l-0.4,5.8l7.2-6.1l0.2,2.9l13.7,4.5l-2.8,15.3l-8.7,0.2l-0.2,20c-1.6-0.4-3.3,2.4-4.9,7.6l-6.3,16.2h22.9l7.2,5.8l-63.9,94.9C222.9,476.7,200.4,472.2,200.4,472.2z"/>
  <path class="comuna" d="M279.5,316.6l-2.8,15.3l-8.7,0.2l-0.2,20c-1.6-0.4-3.3,2.4-4.9,7.6l-6.3,16.2h22.9l7.2,5.8L275.1,399l27.3,12.1l0.5-14.2l26.1-70.4l-0.5-5.2l-35.6,9.1L279.5,316.6z"/>
  <path class="comuna" d="M266.7,287.8l0.8,21.5l-2-0.1l0.3,3.3l13.7,4.2l13.4,14l36.2-9.3l16.7,0.3l-0.4-9.3l-8.8,0.6c1.9-5.4,1-21.8,1.6-32.6l-2.1-0.6v-9.9l-17,0.8v5.4l-19.2,1.2l1,14.4c-8.2,3.4-10.2,2-13.4,1.5L266.7,287.8L266.7,287.8z"/>
  <path class="comuna" d="M190.5,137l22.1,21l6.8,7.8l11.4,8.5l-33.8,35.2l-0.7,18.9l4.3,0.7l0.4,2.1l2.5,3.9l3.2,3.9l4.3,3.2l6,1.4l1.4-3.6l2.5,3.6l6,2.1l9.6,0.4l4.6,2.1l9.2,0.4l3.2-0.4l-0.4,25.3l2.8,0.6l-0.1,11.2l11,2.5l0.6,21.4l-1.8-0.1l-7.4,6.2l0.5-5.9l-35.8-7.5l-1.1-7.5c-1.6-6.9-8.9-2.9-13.9-3.2c1.1,6.3-4.3,8.4-8.9,11c-2.8-5.2-12.2-4.6-18.9-6.4l-1.1,5c-7.8,0.7-13.9-5-16.7-2.5c-2-1.6-1-5.7-6.8-4.3c-4,0.1-6.2,1.5-2.1,7.1c-3.8,7.8-8.1,4.4-12.3,2.3l-4.3-10.2l3.3-7.8l4.8-3.8c-3-0.7-5.1-2.8-3.4-9.9c2.1-3.2,6-5.1,1.6-12.8l5.9-4.3l-1-6.1l17.1-6l-0.2-3.3l5.3,2.1l4.1-5.2l-1.8-10.3l3.9,0.4c1.4-22-7-53-2.5-68.3l17.8-1.4L190.5,137L190.5,137z"/>
  <path class="comuna" d="M253.3,258.2l-0.2,15.4l2.8,0.6l-0.1,11.3l31.2,7.4c6.6,2.2,10.9-0.3,13.8-1.4l-1-14.4l-0.6-16.8l-19.9-2l-0.6,3.9l-9.8-4.5C269,257.7,253.3,258.2,253.3,258.2z"/>
  <path class="comuna" d="M196.2,228.4l0.2-5.5l13.7,0.1l0.5,1.7l5,0.1l7.7-3.9l12.1-0.1h32.1l3.4,1.4l5-3.2h3.1l6.7,5.1l-7,38l-9.7-4.4l-15.5,0.5l0.1-10l-3.2,0.4l-9.2-0.4l-4.6-2.1l-9.6-0.4l-6-2.1l-2.5-3.6l-1.4,3.6l-6-1.4l-4.3-3.2l-3.2-3.9l-2.5-3.9l-0.4-2.1L196.2,228.4L196.2,228.4z"/>
  <path class="comuna" d="M334.9,324.8l13.2,0.5V321h-2.8l42.8,0.9l22.3-10.3l-16.2-57.4l-48.4-13.3l0.4,3.2c-4.4-0.1-11.8-6.5-12.2,1.9l1.2,15.3l-16.2,0.9l0.1,8.3l17-0.8v9.9l2.1,0.6c-0.5,10.9,0.3,27.2-1.6,32.6l8.8-0.6l0.2,9.3l-10.3,0"/>
  <path class="comuna" d="M235.2,177.4l-4.5-3.1l-33.8,35.2l-0.6,13.4l13.7,0.1l0.5,1.7l5,0.1l7.7-3.9l12.1-0.1h32.1l3.4,1.4l5-3.2h3.1l0-2.6l3.7,0.2l7.1-4h12.6l10.1,7.6l6.8,7.1l8.9,5.7l17.6,7.9l0.1-2.3l-10-10.7l-2-20.1l-2-4.1l-12.1-21.9l-4.9-12.5l-1.7,2.9h-1.3l-0.5-2.2l-6.6,3.2l-4.1,0.1l-8.9,11.6l-3.4,0.1l-2.7-1.3l-6.7,4.7h-5.5l-0.2-1.3l-3.4-0.2l-0.3,1.4l-3.1-0.2l-0.3-0.7l-3.1-0.1l-0.7,1.1l-3.1-0.2l-1,1.5l-4.9-5.5l-2.3-0.1l-1.2-1.3l-1.1,1.4h-7.3l-3.1-3.3l-0.1-3.2L235.2,177.4L235.2,177.4z"/>
  <path class="comuna" d="M346.2,244.1l-0.4-3.2l-17.6-7.9l-8.9-5.7l-6.8-7.1l-10.1-7.6h-12.6l-7.1,4l-3.7-0.2l0,2.6l6.7,5.1l-6.3,34.1l19.9,2l0.6,16.8l19.2-1.2v-5.4l-0.1-8.3l16.2-0.9L334,246C334.4,237.7,341.8,244,346.2,244.1L346.2,244.1z"/>
  <path class="comuna" d="M394.2,254.2l-21.3-5.9l1.9-22.1l-4.4-0.2l0.2-17.9h-3.2l-3.3-2.5l0.4-5.8l-2.1-2.3l1.6-0.9l-0.2-28.6l-0.7-0.2v-4.2l0.9-0.2l0.5-3.1l25,11.9l38.6,30.4l-0.1,5.9l-9.9,6.5l-1.6,4.2l-8.9,9.2h-3.8l-5.4,4l-1.1,7.2l-4.2,8h1.3L394.2,254.2z"/>
  <path class="comuna" d="M342.3,199.2l-10.4,4.4l2,4.1l2,20.1l10,10.7l-0.1,2.3l27.1,7.4l1.9-22.1l-4.4-0.2l0.2-17.9h-3.2l-3.3-2.5l0.4-5.8l-2.1-2.3l-11.9-0.4L342.3,199.2L342.3,199.2z"/>
  <path class="comuna" d="M215.8,155.3l-3.2,2.7l6.8,7.8l15.9,11.6l3.2,0.1l0.1,3.2l3.1,3.3h7.3l1.1-1.4l1.2,1.3l2.3,0.1l4.9,5.5l1-1.5l3.1,0.2l0.7-1.1l3.1,0.1l0.3,0.7l3.1,0.2l0.3-1.4l3.4,0.2l0.2,1.3h5.5l6.7-4.7l2.7,1.3l3.4-0.1l8.9-11.6l4.1-0.1l6.6-3.2l0.5,2.2h1.3l1.7-2.9l-8.8-22.5v-2.7l15.2-0.1l-5.7-16.2v-6.6l2-1.4l-0.1-3.6l2.9-0.9c6-16.8,6.6-8.1,11.5-13.7c0.3-2.1-0.2-3.7-2.2-4.1v-6V85h-5.4l-2.1-4.4c-0.2-1.9,0.9-1.5,2-1.1l0.9,3.1c-0.5-3.1,3.1-7.8-7.6-6.9c-2.5-2.2-2-6-8.6-5.7l-3.1,1.9l-4.4-0.4l-5.6-4.7l-9.1,0.2l-2.1,11.5L256.5,86l23.4,30.5h-2.6l0.1,3.1h-11.5l0.1-5h-7.4l0.1,9.6l-1.6-0.2c-1.5-0.8,0.2,0.7-5.7-3.4l0.2-4.4c-2.8-3-6.8-1.5-10.5-1c2.2,1.5,4.6,3.4,5.5,3.4l-7.1-0.1c-0.1,1.2-1.1,1.9-4.2,1.4l-5,13.6h-5.4l-0.4,11.4l-8.7,9.2L215.8,155.3L215.8,155.3L215.8,155.3z"/>
  <path class="comuna" d="M362.3,197.7l1.6-0.9l-0.2-28.6l-0.7-0.2v-4.2l0.9-0.2l0.5-3.1L328.9,145l-7.6-1.2l-15.2,0.1v2.7l8.8,22.5l4.9,12.5l12.1,21.9l10.4-4.4l8.1-1.9L362.3,197.7z"/>
  <path class="comuna" d="M302.5,410.7l27.9,12.1l-9.7,27.5l-4-1.6v14.2l-7.3,15l36,15.4l15.8,3.2L345,562.4l6.1,7.3l-0.8,1.2l2,2.4l-5.3,1.6l12.1,23l-0.8,10.5h-4l-1.6-8.9l-4,0.4l-0.8-3.6l-26.7,2.4l-1.6-4.9l-2,0.4l1.6,7.7l5.3,3.2h3.2l0.8,1.6l5.3,0.4l-0.8,1.6l-17,4.9l-5.7-0.4l-14.6-8.1l4.4-10.5l-4.9-25.5l-3.6-0.8l-4.4-12.9l2.4-6.1l-4.4-0.8l-2.8,2l-6.9-1.2l1.2-6.9l5.3-14.6l-2.4-3.6h-3.6l-1.2-4.9l-0.8-3.2l-3.6-2.4l3.2-8.1l-6.1-5.7l1.6-7.7l2.4-2.8l-0.8-5.3l6.1-6.1l2-27.9l8.5-14.6l7.3,4.4L302.5,410.7L302.5,410.7z"/>
  <path class="comuna" d="M330.4,422.9l24.9,10.3l18.6,2.9l-12.7,60.4l-15.8-3.2l-36-15.4l7.3-15v-14.2l4,1.6L330.4,422.9L330.4,422.9z"/>
  <path class="comuna" d="M373.9,436.1l-18.6-2.9l-24.9-10.3l18.6-47l36.5,10.3L373.9,436.1z"/>
  <path class="comuna" d="M302.9,397l-0.4,13.8l27.9,12.1l18.6-47l-33-14.1L302.9,397L302.9,397z"/>
  <path class="comuna" d="M348.1,321l22,0.6l-21,54.3l-33-14.1l13.1-35.2l-0.5-5.2l6.6,0.1l-0.3,3.3l13.2,0.5L348.1,321L348.1,321L348.1,321z"/>
  <path class="comuna" d="M349,375.8l21-54.3l18,0.4l7.3,65.2l-5.9,0.1L349,375.8L349,375.8z"/>
  <path class="comuna" d="M395.3,387.2l-5.9,0.1l-3.9-1.1l-11.6,50l-2.4,11.3l32.6,3.9L395.3,387.2L395.3,387.2z"/>
  <path class="comuna" d="M395.3,387.2l8.7,64.2l5.1,0.6l19.5-4.9l-3.6-15h5.7l-1.7-53.8h-7.2l-14,8.1L395.3,387.2L395.3,387.2z"/>
  <path class="comuna" d="M395.3,387.2l-7.3-65.2l22.3-10.3l2.5,6.9l3,13.9l5,12.6l4.6,26l3.3,3.3l0.2,3.9h-7.2l-14,8.1L395.3,387.2L395.3,387.2z"/>
  <path class="comuna" d="M428.7,447l-19.5,4.9l-37.6-4.5l-10.3,49.1l-8.7,35.5l34.7,3.2l-2.7,19h3.3l-1.1,8.9h22.7l2.5-12.8v-23.5l26.6-5.1l-0.9-8.2l-0.7-15.9l-3.6-4.9l-1.5-21.8h-1.4l-2.2-14h3.4L428.7,447L428.7,447z"/>
  <path class="comuna" d="M424.4,211.3l-6.4,4.1l-1.6,4.2l-8.9,9.2h-3.8l-5.4,4l-1.1,7.2l-4.2,8h1.3l-0.2,6.4l6.8,24.2l17-5.4l0.4,2.1l3,0.2l9.6-5.1l14.8-1.3l6.8,4.7l13.8-23.3l-3.3-3.5l-23.5-21l-8.1-3l3.9-11.3L424.4,211.3L424.4,211.3z"/>
  <path class="comuna" d="M401,278.4l17-5.4l0.4,2.1l3,0.2l9.6-5.1l14.8-1.3l6.8,4.7l13.7-23.3l11.5,7.3l4,20.8l-1.6,13l-5.4,16.8l-12.1,7.5l-27.2-0.2l-22.7,2.9l-2.4-6.8L401,278.4L401,278.4z"/>
  <path class="comuna" d="M466.3,250.3l11.5,7.3l4,20.8l-1.6,13l12.1,5.1l20.6,0.7l11.8-0.6l10.7,3.9l2.5-9.8l57.4,3.5l0.3-3.6L592,284l-5.2-3.8l-1.5-2.1l-3.8-3.4l0.3-7l-16.4-14.4l-11.5-2.5l-9.1-4.3l-19.2,2.7l-0.7-6.7l-26.9,3.5l-34.9,0.7L466.3,250.3L466.3,250.3z"/>
  <path class="comuna" d="M425.5,371l-4.6-26l-5-12.6l-3-14l22.7-2.9l27.2,0.2l12.1-7.5l-5.2,32.2L458.1,363v9.5L425.5,371L425.5,371z"/>
  <path class="comuna" d="M553.3,544.7c-3.8,0.9-6.9-0.7-10.1-2.4c-5.3-4.9-8.5,4-12.5,6c-5.3-1.3-10.8-4.6-16.5-2.9c-4.2,3.2-8.7,7.7-14.6,4.9c-4.3-4.2-9.7,2.5-9.4,7c-4.2,0.6-9.8-0.9-12.8,4c-5,15.3-3.8,10.2-10.3,9.5c-4.9,0.9-5.9,10.8-12.5,8.5c-1.3-5.2-4-1.1-7.4-0.6c-5.5-1.7-9.5,4.2-15.2,2.2c-5,2.3-10,2.6-15.1,0.1c-5.5-1.6-13.2-0.9-15.1,5.6l6.8-10.5l0.7-13.1l2.5-12.8v-23.5l26.6-5.1l-0.9-8.2l-0.7-15.9l-3.6-4.9l-1.5-21.8l14-4.9l9.5,4.2l12.1-1.5l-0.4-6.8l37.1-7.2L489.6,433l20.5,0.4l7.6,7.2l5.3-5.7l1.9,4.5l5.7-0.8l4.9-1.9l2.3,0.4l0.4,25.8l-11-4.2l-2.3,18.6l-3-0.4l-0.4,16.7l5.7,7.2l1.5,9.5l10.2,4.9l4.9-6.4l40.9-2.3l-0.4,6.4c-1.2,0-5,0.7-3.8,3c0.7,1.5,0.9,2.7,0.4,4.9c-0.5,1.9-0.7,4.5-2.7,5.7c-2,1.2-2.7,1.6-4.9,0.8c-1.4-0.5-3.2-2.1-3.8,0.4c-0.6,2.6,0.8,2.5,0.8,5.3c0,3-1.7,2.7-2.3,4.9c-0.4,1.7-2,3.4-4.2,3.4c-1.7,0-4.2-0.1-4.5-1.5c-0.1-0.3-0.7-4.8-1.1-4.9c-1-0.2-5.1-0.3-3.8,2.3c0.7,1.4,1.1,3.1,0,5.3C554,543.2,553.6,544,553.3,544.7L553.3,544.7z"/>
  <path class="comuna" d="M473.3,588.6c0.4-5-6,4.2-8.7,4.3c-5.3,1.5-10.8,2.4-15.9,4.6c-2.7,3.3-5.4,7.6-9.2,6.7c-4.4,4-10.6,1.6-15.8,1.7c-3.1,3.2-11.1,5.7-12.6-0.2c0.7-3.6,10.3-9.3,1.6-9.2c-5.9,0.3-11.1-3.9-11-9.8c1.9-6.5,9.6-7.2,15.1-5.6c5.1,2.5,10.1,2.1,15.1-0.1c5.7,2.1,9.7-3.9,15.2-2.2c3.4-0.5,6.1-4.7,7.4,0.6c6.6,2.3,7.5-7.6,12.5-8.5c6.5,0.7,5.2,5.8,10.3-9.5c3-4.9,8.6-3.4,12.8-4c-0.3-4.5,5-11.2,9.4-7c5.9,2.8,10.4-1.7,14.6-4.9c5.8-1.7,11.3,1.6,16.5,2.9c4-2,7.2-10.9,12.5-6c3.2,1.6,6.4,3.2,10.1,2.4l0.8-0.8l1.5,3l-9.1,0.4l-11.4,3.8v8.3l3.8,3.4l-13.3,2.7l-4.5,4.5v-5.3l-13.6,2.3l1.1-4.9l-11,5.3l0.8,13.3l-10.6,4.5l-0.8-8.7l-8.3,3.8l4.2,5.3L473.3,588.6L473.3,588.6z"/>
  <path class="comuna" d="M629.6,487.3l0.3-2.6c-0.6-0.5-2-1.4-1-2.3c1.3-0.1,2.6-0.2,3.8,0.4c1.2,0.7,2.2,1.6,3.6,1.8c1.8,0.4,3.4-0.9,4.3-2.3c0.9-1.7,1.3-3.6,2.5-5.2c0.6-1.1,2-1.3,3.1-1.3c1.3-0.2,2.7,0.3,3.6,1.3c1.1,1.4,2.2,2.9,3.5,4.1l0.8,1c3.1,2.2,6.4,0.9,9.6-0.2c3.1,0.6,6-0.9,8.8-2c3.1-0.4,6.7-0.7,9.5,0.8c2.9,3.7,2.7-4.2,0.1-4.1c-3.3-2-6.5,1.4-9.9,1.1c-1-1.4-3.7-1.6-5.8-2.6c-2.9,0.8-3.1-4.2-5-3.3c-1.3,3.6-6.5,2.7-7.3-0.7c-2.7-1.6-0.6-7.9-4.3-7.4c-0.8,1.9-2.5,3.8-2.6,5.8c3.5,3.6-3.3,3.2-5.4,2.7c-3,1.6-6.8,1.3-7.8-2.6c-2,0.8-2.5,4.5-5.1,5.3c1.7,1.8,1.9,5.3-1.4,7c-1.2,1.5-1.6,7.7-4.4,4.4c-1.1-3.4-2.8,0.2-2,1.9c-1.3,3.7-6.3,3.9-6.5-0.6c-1.2,1.8-3.7,6.5-6,2.6c-1.4-4.5-5.5,4-7.9-0.2c-4.6-2.4-7.3,3.1-7.7,6.9c-0.3,3.8-1.7,9.8-0.4,8.5c1.3-1.3,2.6-2.6,3.8-3.9c1.6-1.7,3.4,0,4.7,1.2c2.3,1.1,2.2-0.4,2.9-2c0.3-1.9-0.3-3.9,1.4-5.8c1.3-1.3,3.7-0.8,5.3-0.1c2,0.7,3.5,2.3,5.4,3.1c1.5,0.7,3.8,0.9,5-0.5c1.3-1.6,3.4-2.9,5.5-2.5c1.8-0.3,3.6,0.4,5.4,0.4l0.1-1.9C631.6,491.6,627.3,489.5,629.6,487.3L629.6,487.3z"/>
  <path class="comuna" d="M425.5,371l3.3,3.3l0.2,3.9l1.7,53.8h-5.7l3.6,15l2.9,9.9h-3.4l2.2,14h1.4l14-4.9l9.5,4.2l12.1-1.5l-0.4-6.8l37.1-7.2L489.6,433l20.5,0.4l7.6,7.2l5.1-5.4l5.9-5.1l-3.3-9.4l-8.1-6.1l0.6-2.1h8.7l-0.6-11.3l25.7,2.3l-0.4-10.5l-14.6-1.2l-0.3-15.7l4.2-5.1H534l-3.6,3.6l-4.9,1.6l-27.3-0.6l-40-3.1L425.5,371L425.5,371z"/>
  <path class="comuna" d="M595.3,294.3l-57.4-3.5l-2.5,9.8l-10.7-3.9l-11.8,0.6l-20.6-0.7l-12.1-5.1l-5.4,16.8l-5.2,32.2L458.1,363l0.1,9.5l40,3.1l27.3,0.6l4.9-1.6l3.6-3.6h6.5l2.2-3.6l2.6,0.3l12.3-10.9l11.8-0.3l4.3-3.7l7.2-0.3v-3.7l12.9,6l7.7,0.9l11.8-10h9.5l4.6-3.7l4.3-0.6l11.8,5.2l7.5-0.3l10-5.4l6.6,0.3l-0.3-5.4l-2-4.9l-9.7-1.1l-3.2-2.6l-4.9-0.3l-6.9-8.6h-2.6l-2.9-2.6l-14.9-0.6l-6.9-4.9l-0.6-4l-6.3-6.9L595.3,294.3L595.3,294.3z"/>
  <path class="comuna" d="M665.1,330.7l-9.7-1.1l-3.2-2.6l-4.9-0.3l-6.9-8.6h-2.6l-2.9-2.6l-14.9-0.6l-6.9-4.9l-0.6-4l-6.3-6.9l-11.1-4.9l0.3-3.6L592,284l-5.2-3.8l-1.5-2.1l-3.8-3.4l0.3-7l-16.4-14.4l-11.5-2.5l-9.1-4.3l-19.2,2.7l-0.7-6.7l-26.9,3.5l-34.9,0.8l-23.4-20.9l-8.1-3l3.9-11.3l91.9-39.3l9.1-11.1l21.3-10.1l11.9-1.3l7.8-5.1l4.6,0.3l5.6-4.8l12.2,1.8h8.9v7.3l-5.8,4.1l-2.5,7.1v2.8l6.1,7.6l2,4.3l-0.5,5.6l3,1.5l1.5-0.3l10.4,6.6l17.7,3.5l3,4.6l-0.5,23.3l1.5,1.3v5.1l13.2,9.1l11.6,1.5l4.8,19l-1.3,6.1l5.1,9.9l1.3,18.7l-7.6,6.3l-2.5,6.8l3.5,5.1l-1,13.9h-2.3L665.1,330.7L665.1,330.7z"/>
  <path class="comuna" d="M428.4,192.4c-0.7,3.4,0.1,7.1-0.3,10.5l-0.1,5.9l-3.6,2.4l11,0.2l91.9-39.3l9.1-11.1l13.8-6.6l-3.6-4.2l-27,1.9l-8.2-5.7l-10.3-9.9l-6.7-3.6h-8l-1.3-1.5l-2.9-0.4l-1.9-2.9l-3.8,0.4l-2.9,2.3l-3.3-6.5l-6.5-3.5l-2.3,5l-2.9,1.7l-8.4,0.6l-6.1,6.9l-5.2,5.5l4.8,4l-0.8,12.2l-2.9,2.7l0.2,7.3l0.2,0.3l-4.5,2l-0.2,4.1l2.2,3.5l-0.2,5.3l-4.9,4.1L428.4,192.4L428.4,192.4z"/>
  <path class="comuna" d="M473.7,130.8l2.9-2.3l3.8-0.4l1.9,2.9l2.9,0.4l1.3,1.5h8l6.7,3.6l10.3,9.9l8.2,5.7l27-1.9l3.6,4.2l7.5-3.5l11.9-1.3l7.8-5.1l4.6,0.3l5.6-4.8l12.2,1.8h8.9l0.3,0.2l6.1-1.2l1.4,3.1l5.6-0.9l-0.2,4l1.9,2.8l13.2-11.5v-2.3l6.3-4l0.2-7l20.2-3.1l4.5-3.3l6.3-12.9l-45.3-28.2l-3.3-0.5l-6.8,5.9l-8.5-9.4l-29.1,7.8l-23.3-8.7l-13.6-8L519.5,67v2.8l-7.5,6.3l-4.2-3.3l2.1-3.5l-5.2-0.9l-0.9,3.3l-5.2-1.4l-4.2,1.9l-0.5,3.8l3.8,5.9l10.6,8.2l-3.5,1.2l0.7,4.7l-4.2,2.6l-3.5-8.5l-2.8,0.2l-2.3,2.3l-7.5,3.8l-0.5,6.8l2.8,3.5l-9.9,5.6l3.1,4.9l-7.3,6.3L473.7,130.8L473.7,130.8z"/>
  <path class="comuna" d="M315.6,120.9v6.6l5.7,16.2l7.6,1.2l35.5,15.6l25,11.9l38.6,30.4c0.5-3.4-0.4-7.1,0.3-10.5l4.4-6.4l4.9-4.1l0.2-5.3l0.4,0.7l-6.5-6.5l-3,0.5l-4.4-3.5h7.6l0.3-4.1l-9.8-1.1l0.5-2.2l6.5-6.8l-7.4-0.8l-0.8,2.5h-3.3l-0.5,1.4l-3-0.5l-1.1,4.4l-14.2-6l1.9-14.7l-4.1-5.2l-4.9-0.3l-5.7,3.5l-4.1,9l-4.4-0.5l-2.2,4.9l-7.6-3.5l2.5-6l-4.9-0.3l3.8-10.6l-1.9-3l-7.6,0.3v-4.1l-9-2.2l3.3-10.9l-4.1-3.8l0.8-2.2l-6.5-3.3l-0.8,3.3H340l-0.8-1.4H337l0.8,2.7l-4.6,4.6h-4.4l0.5,2.7l-3.3,3.3h-3.8l-1.9,4.4L315.6,120.9L315.6,120.9z"/>
</g>
</svg>
