<?xml version="1.0" encoding="UTF-8"?><svg id="Layer_1" xmlns="http://www.w3.org/2000/svg" viewBox="0 0 792 861.84"><defs><style>.cls-1{fill:#93b496;}.cls-2{fill:#b46161;}.cls-3{fill:#fff;}.cls-4{fill:#f8bc7c;}.cls-5{fill:#92b294;}.cls-6{fill:#33647a;}.cls-7{fill:#89b8bc;}.cls-8{fill:#e88d6e;}</style></defs><path class="cls-3" d="M603.25,22.22l.25,24.97,50.43.13.29,25.84,75.87-.02-.02,75.89,24.97.02v79.9h-75.89s0,50.91,0,50.91l-24.94.05-.16,49.67-25.83.32.02,253.55-24.97.09v20.96s50.9,0,50.9,0l.03,24.96,24.96.04v79.84s-24.95.05-24.95.05l-.27,25.82-50.43.13-.29,24.98-75.81-.02-.05,24.97-24.93.02-.29,25.89-126.59.15v24.89s-155.76.01-155.76.01l.03-126.81-25.98-.08.02-75.85-20.97-.03-.05,25.97h-104.78s-.05-25.96-.05-25.96l-25.98-.04.12-79.62,25.89-.3-.02-100.79,24.97-.05v-20.95s-24.97-.06-24.97-.06v-156.7s24.98-.09,24.98-.09l-.02-100.8,24.96-.05.02-24.95,25.95-.02.02-25.95,24.96-.03v-49.9s24.94-.03,24.94-.03l.28-25.89,105.32-.1.25,25.78,24.97.26.04,24.93h50.89s.03,24.96.03,24.96l24.95.02.02,25.95,25.95.02v24.96s20.97,0,20.97,0l.02-24.95,24.96-.06V22.22s130.81,0,130.81,0ZM525.06,101.14l-.02,24.95-2.73.11-22.72.09v25.57s25.69.11,25.69.11l-.22,25.06h-24.66s-1,0-1,0h-24.95s-.06,25.18-.06,25.18l-75.55-.04v-25.12s-25.38.01-25.38.01l.11-25.61-25.09.07-.28-25.22h-25.62s-25,.01-25,.01l.09-25.17-25.66-.02.23-25.53-50.63-.08-.14,25.61h-24.68c-.63-.09-1.07.45-.85,1.03l.08,24.55,25.63.25-.05,24.11-25.72.38-25.02.05v25.55s-25.26,0-25.26,0l-.03,25.1-25.45.09v100.96s-25.16.1-25.16.1l-.03,51.06,25.15.14v24.64s-25.13.05-25.13.05v25.87s24.97-.09,24.97-.09h1.01s24.66.1,24.66.1v24.79s-25.46.08-25.46.08v50.69s-25.17.06-25.17.06v49.92s.01,1,.01,1v25.26s0,24.85,0,24.85l-25.16.03v25.58s25.15.03,25.15.03l.05,25.43h50.87s.02-25.53.02-25.53l25.19.08-.19-24.85,25.47-.41.21-25.24h24.96s0,24.99,0,24.99l.07,24.7v1.01s-.08,25.2-.08,25.2l-.03,50.36,25.27.16v25.47s0,24.65,0,24.65v1s0,74.95,0,74.95c-.2.7.56,1.19,1.09.66l48.73-.09,51.57-.06.05-25.51-22.56-.03c-1.21,0-2.22-.61-2.79-1.1l.05-48.81v-1.03s0-49.91,0-49.91l-.07-1.02.28-24.34,23.39.03,52.03-.22.03,25.4-.03,25.15h-25.21s-.03,50.53-.03,50.53l25.22.2.07,25.38h76.05s-.14-25.32-.14-25.32h1s24.46-.21,24.46-.21l.16-25.04,75.77-.04-.02-25.46,50.58.16-.1-25.23,25.42-.19v-25.57s-25.14,0-25.14,0l-.17-25.18h-48.22c-1.04.02-1.82-.42-2.33-.76l-.04-74.65,25.37-.23v-25.39s.02-50.78.02-50.78v-24.97s0-1,0-1v-74.91s0-1,0-1v-75.05s25.18-.06,25.18-.06v-24.77s-.03-1.01-.03-1.01l.19-24.59,25.13-.08.14-26.18v-24.45s75.62-.09,75.62-.09l.24-25.45-50.58-.04v-25.17s25.16.03,25.16.03l.05-25.77v-24.99s-51.13,0-51.13,0l-24.81.04-.03-25.46-25.11-.08-25.05.05-.58-25.29h-76.06s.1,51,.1,51l25.37-.24Z"/><rect class="cls-4" x="221.69" y="227.76" width="25.28" height="25.28"/><rect class="cls-4" x="246.97" y="227.76" width="25.28" height="25.28"/><rect class="cls-4" x="373.39" y="303.62" width="25.28" height="25.28"/><rect class="cls-4" x="398.68" y="303.62" width="25.28" height="25.28"/><rect class="cls-8" x="423.96" y="303.62" width="25.28" height="25.28"/><rect class="cls-4" x="196.4" y="202.48" width="25.28" height="25.28"/><rect class="cls-4" x="221.69" y="202.48" width="25.28" height="25.28"/><rect class="cls-4" x="246.97" y="202.48" width="25.28" height="25.28"/><rect class="cls-8" x="171.12" y="253.05" width="25.28" height="25.28"/><rect class="cls-8" x="171.12" y="227.76" width="25.28" height="25.28"/><rect class="cls-8" x="196.4" y="253.05" width="25.28" height="25.28"/><rect class="cls-8" x="196.4" y="227.76" width="25.28" height="25.28"/><rect class="cls-8" x="221.69" y="253.05" width="25.28" height="25.28"/><rect class="cls-8" x="246.97" y="253.05" width="25.28" height="25.28"/><rect class="cls-8" x="196.4" y="531.17" width="25.28" height="25.28"/><rect class="cls-4" x="196.4" y="505.89" width="25.28" height="25.28"/><rect class="cls-8" x="221.69" y="657.59" width="25.28" height="25.28"/><rect class="cls-8" x="221.69" y="531.17" width="25.28" height="25.28"/><rect class="cls-4" x="221.69" y="505.89" width="25.28" height="25.28"/><rect class="cls-8" x="373.39" y="328.9" width="25.28" height="25.28"/><rect class="cls-8" x="398.68" y="328.9" width="25.28" height="25.28"/><rect class="cls-8" x="423.96" y="328.9" width="25.28" height="25.28"/><rect class="cls-8" x="423.96" y="278.33" width="25.28" height="25.28"/><rect class="cls-8" x="423.96" y="253.05" width="25.28" height="25.28"/><rect class="cls-8" x="449.24" y="328.9" width="25.28" height="25.28"/><rect class="cls-8" x="449.24" y="303.62" width="25.28" height="25.28"/><rect class="cls-8" x="449.24" y="278.33" width="25.28" height="25.28"/><rect class="cls-8" x="449.24" y="253.05" width="25.28" height="25.28"/><rect class="cls-7" x="474.53" y="328.9" width="25.28" height="25.28"/><rect class="cls-7" x="474.53" y="303.62" width="25.28" height="25.28"/><rect class="cls-8" x="474.53" y="278.33" width="25.28" height="25.28"/><rect class="cls-8" x="474.53" y="253.05" width="25.28" height="25.28"/><rect class="cls-7" x="499.81" y="303.62" width="25.28" height="25.28"/><rect class="cls-8" x="499.81" y="278.33" width="25.28" height="25.28"/><rect class="cls-8" x="171.12" y="202.48" width="25.28" height="25.28"/><rect class="cls-4" x="246.97" y="657.59" width="25.28" height="25.28"/><rect class="cls-4" x="246.97" y="632.31" width="25.28" height="25.28"/><rect class="cls-7" x="145.84" y="556.46" width="25.28" height="25.28"/><rect class="cls-8" x="145.84" y="531.17" width="25.28" height="25.28"/><rect class="cls-7" x="171.12" y="556.46" width="25.28" height="25.28"/><rect class="cls-8" x="171.12" y="531.17" width="25.28" height="25.28"/><rect class="cls-8" x="221.69" y="632.31" width="25.28" height="25.28"/><rect class="cls-8" x="221.69" y="556.46" width="25.28" height="25.28"/><rect class="cls-8" x="246.97" y="607.02" width="25.28" height="25.28"/><rect class="cls-7" x="246.97" y="581.74" width="25.28" height="25.28"/><rect class="cls-7" x="246.97" y="556.46" width="25.28" height="25.28"/><rect class="cls-8" x="246.97" y="531.17" width="25.28" height="25.28"/><rect class="cls-8" x="246.97" y="505.89" width="25.28" height="25.28"/><rect class="cls-8" x="272.26" y="607.02" width="25.28" height="25.28"/><rect class="cls-7" x="272.26" y="581.74" width="25.28" height="25.28"/><rect class="cls-7" x="272.26" y="556.46" width="25.28" height="25.28"/><rect class="cls-8" x="272.26" y="531.17" width="25.28" height="25.28"/><rect class="cls-7" x="297.54" y="556.46" width="25.28" height="25.28"/><rect class="cls-7" x="297.54" y="531.17" width="25.28" height="25.28"/><rect class="cls-7" x="348.11" y="379.47" width="25.28" height="25.28"/><rect class="cls-7" x="373.39" y="379.47" width="25.28" height="25.28"/><rect class="cls-7" x="373.39" y="354.18" width="25.28" height="25.28"/><rect class="cls-7" x="398.68" y="354.18" width="25.28" height="25.28"/><rect class="cls-7" x="423.96" y="379.47" width="25.28" height="25.28"/><rect class="cls-7" x="423.96" y="354.18" width="25.28" height="25.28"/><rect class="cls-7" x="449.24" y="354.18" width="25.28" height="25.28"/><rect class="cls-7" x="474.53" y="354.18" width="25.28" height="25.28"/><rect class="cls-7" x="499.81" y="354.18" width="25.28" height="25.28"/><rect class="cls-7" x="499.81" y="328.9" width="25.28" height="25.28"/><rect class="cls-4" x="499.81" y="253.05" width="25.28" height="25.28"/><rect class="cls-2" x="525.1" y="328.9" width="25.28" height="25.28"/><rect class="cls-2" x="525.1" y="303.62" width="25.28" height="25.28"/><rect class="cls-2" x="525.1" y="278.33" width="25.28" height="25.28"/><rect class="cls-4" x="550.38" y="278.33" width="25.28" height="25.28"/><rect class="cls-4" x="550.38" y="253.05" width="25.28" height="25.28"/><rect class="cls-4" x="246.97" y="151.91" width="25.28" height="25.28"/><rect class="cls-4" x="272.26" y="151.91" width="25.28" height="25.28"/><rect class="cls-8" x="221.69" y="126.63" width="25.28" height="25.28"/><rect class="cls-8" x="221.69" y="101.34" width="25.28" height="25.28"/><rect class="cls-4" x="246.97" y="126.63" width="25.28" height="25.28"/><rect class="cls-8" x="246.97" y="101.34" width="25.28" height="25.28"/><rect class="cls-4" x="272.26" y="126.63" width="25.28" height="25.28"/><rect class="cls-4" x="272.26" y="101.34" width="25.28" height="25.28"/><rect class="cls-7" x="297.54" y="151.91" width="25.28" height="25.28"/><rect class="cls-7" x="322.82" y="151.91" width="25.28" height="25.28"/><rect class="cls-7" x="297.54" y="126.63" width="25.28" height="25.28"/><rect class="cls-6" x="322.82" y="126.63" width="25.28" height="25.28"/><rect class="cls-7" x="348.11" y="151.91" width="25.28" height="25.28"/><rect class="cls-4" x="550.38" y="202.48" width="25.28" height="25.28"/><rect class="cls-4" x="575.67" y="202.48" width="25.28" height="25.28"/><rect class="cls-4" x="575.67" y="177.19" width="25.28" height="25.28"/><rect class="cls-8" x="272.26" y="632.31" width="25.28" height="25.28"/><rect class="cls-2" x="171.12" y="328.9" width="25.28" height="25.28"/><rect class="cls-2" x="171.12" y="303.62" width="25.28" height="25.28"/><rect class="cls-2" x="171.12" y="278.33" width="25.28" height="25.28"/><rect class="cls-2" x="196.4" y="303.62" width="25.28" height="25.28"/><rect class="cls-2" x="196.4" y="278.33" width="25.28" height="25.28"/><rect class="cls-2" x="221.69" y="278.33" width="25.28" height="25.28"/><rect class="cls-2" x="246.97" y="404.75" width="25.28" height="25.28"/><rect class="cls-2" x="246.97" y="278.33" width="25.28" height="25.28"/><rect class="cls-2" x="272.26" y="253.05" width="25.28" height="25.28"/><rect class="cls-2" x="272.26" y="227.76" width="25.28" height="25.28"/><rect class="cls-2" x="297.54" y="404.75" width="25.28" height="25.28"/><rect class="cls-2" x="297.54" y="379.47" width="25.28" height="25.28"/><rect class="cls-2" x="297.54" y="227.76" width="25.28" height="25.28"/><rect class="cls-2" x="145.84" y="505.89" width="25.28" height="25.28"/><rect class="cls-2" x="145.84" y="480.6" width="25.28" height="25.28"/><rect class="cls-2" x="145.84" y="455.32" width="25.28" height="25.28"/><rect class="cls-2" x="171.12" y="505.89" width="25.28" height="25.28"/><rect class="cls-2" x="196.4" y="480.6" width="25.28" height="25.28"/><rect class="cls-2" x="196.4" y="455.32" width="25.28" height="25.28"/><rect class="cls-2" x="246.97" y="480.6" width="25.28" height="25.28"/><rect class="cls-2" x="246.97" y="455.32" width="25.28" height="25.28"/><rect class="cls-2" x="297.54" y="607.02" width="25.28" height="25.28"/><rect class="cls-2" x="297.54" y="581.74" width="25.28" height="25.28"/><rect class="cls-2" x="297.54" y="455.32" width="25.28" height="25.28"/><rect class="cls-2" x="297.54" y="430.04" width="25.28" height="25.28"/><rect class="cls-2" x="322.82" y="354.18" width="25.28" height="25.28"/><rect class="cls-2" x="348.11" y="404.75" width="25.28" height="25.28"/><rect class="cls-2" x="348.11" y="354.18" width="25.28" height="25.28"/><rect class="cls-2" x="398.68" y="278.33" width="25.28" height="25.28"/><rect class="cls-2" x="398.68" y="253.05" width="25.28" height="25.28"/><rect class="cls-2" x="423.96" y="227.76" width="25.28" height="25.28"/><rect class="cls-2" x="449.24" y="227.76" width="25.28" height="25.28"/><rect class="cls-2" x="474.53" y="404.75" width="25.28" height="25.28"/><rect class="cls-2" x="474.53" y="227.76" width="25.28" height="25.28"/><rect class="cls-2" x="499.81" y="404.75" width="25.28" height="25.28"/><rect class="cls-2" x="499.81" y="227.76" width="25.28" height="25.28"/><rect class="cls-2" x="525.1" y="404.75" width="25.28" height="25.28"/><rect class="cls-2" x="525.1" y="354.18" width="25.28" height="25.28"/><rect class="cls-2" x="525.1" y="253.05" width="25.28" height="25.28"/><rect class="cls-2" x="525.1" y="227.76" width="25.28" height="25.28"/><rect class="cls-2" x="550.38" y="354.18" width="25.28" height="25.28"/><rect class="cls-2" x="550.38" y="328.9" width="25.28" height="25.28"/><rect class="cls-2" x="550.38" y="303.62" width="25.28" height="25.28"/><rect class="cls-2" x="550.38" y="227.76" width="25.28" height="25.28"/><rect class="cls-2" x="575.67" y="354.18" width="25.28" height="25.28"/><rect class="cls-2" x="575.67" y="328.9" width="25.28" height="25.28"/><rect class="cls-2" x="575.67" y="303.62" width="25.28" height="25.28"/><rect class="cls-2" x="575.67" y="278.33" width="25.28" height="25.28"/><rect class="cls-2" x="575.67" y="253.05" width="25.28" height="25.28"/><rect class="cls-2" x="575.67" y="227.76" width="25.28" height="25.28"/><rect class="cls-2" x="600.95" y="278.33" width="25.28" height="25.28"/><rect class="cls-2" x="600.95" y="253.05" width="25.28" height="25.28"/><rect class="cls-2" x="600.95" y="227.76" width="25.28" height="25.28"/><rect class="cls-2" x="626.23" y="227.76" width="25.28" height="25.28"/><rect class="cls-2" x="196.4" y="177.19" width="25.28" height="25.28"/><rect class="cls-2" x="196.4" y="151.91" width="25.28" height="25.28"/><rect class="cls-2" x="221.69" y="177.19" width="25.28" height="25.28"/><rect class="cls-2" x="221.69" y="151.91" width="25.28" height="25.28"/><rect class="cls-2" x="246.97" y="177.19" width="25.28" height="25.28"/><rect class="cls-2" x="272.26" y="202.48" width="25.28" height="25.28"/><rect class="cls-2" x="272.26" y="177.19" width="25.28" height="25.28"/><rect class="cls-2" x="221.69" y="76.06" width="25.28" height="25.28"/><rect class="cls-2" x="246.97" y="76.06" width="25.28" height="25.28"/><rect class="cls-2" x="196.4" y="101.34" width="25.28" height="25.28"/><rect class="cls-2" x="297.54" y="202.48" width="25.28" height="25.28"/><rect class="cls-1" x="297.54" y="177.19" width="25.28" height="25.28"/><rect class="cls-2" x="322.82" y="202.48" width="25.28" height="25.28"/><rect class="cls-1" x="322.82" y="177.19" width="25.28" height="25.28"/><rect class="cls-2" x="348.11" y="202.48" width="25.28" height="25.28"/><rect class="cls-1" x="348.11" y="177.19" width="25.28" height="25.28"/><rect class="cls-2" x="373.39" y="202.48" width="25.28" height="25.28"/><rect class="cls-2" x="373.39" y="177.19" width="25.28" height="25.28"/><rect class="cls-2" x="525.1" y="202.48" width="25.28" height="25.28"/><rect class="cls-2" x="525.1" y="177.19" width="25.28" height="25.28"/><rect class="cls-2" x="550.38" y="177.19" width="25.28" height="25.28"/><rect class="cls-2" x="550.38" y="151.91" width="25.28" height="25.28"/><rect class="cls-2" x="575.67" y="151.91" width="25.28" height="25.28"/><rect class="cls-2" x="600.95" y="202.48" width="25.28" height="25.28"/><rect class="cls-2" x="600.95" y="177.19" width="25.28" height="25.28"/><rect class="cls-2" x="600.95" y="151.91" width="25.28" height="25.28"/><rect class="cls-2" x="348.11" y="455.32" width="25.28" height="25.28"/><rect class="cls-2" x="348.11" y="430.04" width="25.28" height="25.28"/><rect class="cls-2" x="499.81" y="455.32" width="25.28" height="25.28"/><rect class="cls-5" x="525.1" y="505.89" width="25.28" height="25.28"/><rect class="cls-2" x="525.1" y="455.32" width="25.28" height="25.28"/><rect class="cls-5" x="550.38" y="505.89" width="25.28" height="25.28"/><rect class="cls-5" x="550.38" y="480.6" width="25.28" height="25.28"/><rect class="cls-2" x="575.67" y="505.89" width="25.28" height="25.28"/><rect class="cls-2" x="575.67" y="480.6" width="25.28" height="25.28"/><rect class="cls-2" x="246.97" y="682.88" width="25.28" height="25.28"/><rect class="cls-2" x="272.26" y="682.88" width="25.28" height="25.28"/><rect class="cls-2" x="272.26" y="657.59" width="25.28" height="25.28"/><rect class="cls-2" x="297.54" y="632.31" width="25.28" height="25.28"/><rect class="cls-7" x="171.12" y="151.91" width="25.28" height="25.28"/><rect class="cls-7" x="626.23" y="151.91" width="25.28" height="25.28"/><rect class="cls-7" x="651.52" y="151.91" width="25.28" height="25.28"/><rect class="cls-7" x="626.23" y="126.63" width="25.28" height="25.28"/><rect class="cls-7" x="626.23" y="101.34" width="25.28" height="25.28"/><rect class="cls-7" x="499.81" y="76.06" width="25.28" height="25.28"/><rect class="cls-7" x="499.81" y="50.77" width="25.28" height="25.28"/><rect class="cls-7" x="525.1" y="50.77" width="25.28" height="25.28"/><rect class="cls-7" x="550.38" y="50.77" width="25.28" height="25.28"/><rect class="cls-7" x="600.95" y="76.06" width="25.28" height="25.28"/><rect class="cls-7" x="373.39" y="607.02" width="25.28" height="25.28"/><rect class="cls-7" x="398.68" y="607.02" width="25.28" height="25.28"/><rect class="cls-7" x="398.68" y="581.74" width="25.28" height="25.28"/><rect class="cls-7" x="398.68" y="556.46" width="25.28" height="25.28"/><rect class="cls-7" x="398.68" y="531.17" width="25.28" height="25.28"/><rect class="cls-7" x="423.96" y="581.74" width="25.28" height="25.28"/><rect class="cls-7" x="423.96" y="556.46" width="25.28" height="25.28"/><rect class="cls-7" x="449.24" y="581.74" width="25.28" height="25.28"/><rect class="cls-7" x="449.24" y="556.46" width="25.28" height="25.28"/><rect class="cls-7" x="348.11" y="632.31" width="25.28" height="25.28"/><rect class="cls-7" x="373.39" y="632.31" width="25.28" height="25.28"/><rect class="cls-7" x="398.68" y="632.31" width="25.28" height="25.28"/><rect class="cls-7" x="423.96" y="632.31" width="25.28" height="25.28"/><rect class="cls-7" x="550.38" y="657.59" width="25.28" height="25.28"/><rect class="cls-7" x="550.38" y="632.31" width="25.28" height="25.28"/><rect class="cls-7" x="575.67" y="682.88" width="25.28" height="25.28"/><rect class="cls-7" x="575.67" y="657.59" width="25.28" height="25.28"/><rect class="cls-5" x="575.67" y="632.31" width="25.28" height="25.28"/><rect class="cls-7" x="600.95" y="682.88" width="25.28" height="25.28"/><rect class="cls-7" x="600.95" y="657.59" width="25.28" height="25.28"/><rect class="cls-5" x="600.95" y="632.31" width="25.28" height="25.28"/><rect class="cls-5" x="626.23" y="657.59" width="25.28" height="25.28"/><rect class="cls-7" x="297.54" y="784.01" width="25.28" height="25.28"/><rect class="cls-7" x="322.82" y="784.01" width="25.28" height="25.28"/><rect class="cls-7" x="373.39" y="733.44" width="25.28" height="25.28"/><rect class="cls-7" x="373.39" y="708.16" width="25.28" height="25.28"/><rect class="cls-7" x="398.68" y="758.73" width="25.28" height="25.28"/><rect class="cls-7" x="423.96" y="758.73" width="25.28" height="25.28"/><rect class="cls-7" x="449.24" y="758.73" width="25.28" height="25.28"/><rect class="cls-6" x="95.27" y="379.47" width="25.28" height="25.28"/><rect class="cls-6" x="120.55" y="379.47" width="25.28" height="25.28"/><rect class="cls-6" x="120.55" y="354.18" width="25.28" height="25.28"/><rect class="cls-6" x="145.84" y="404.75" width="25.28" height="25.28"/><rect class="cls-6" x="145.84" y="379.47" width="25.28" height="25.28"/><rect class="cls-6" x="145.84" y="354.18" width="25.28" height="25.28"/><rect class="cls-6" x="145.84" y="328.9" width="25.28" height="25.28"/><rect class="cls-6" x="145.84" y="303.62" width="25.28" height="25.28"/><rect class="cls-6" x="145.84" y="278.33" width="25.28" height="25.28"/><rect class="cls-6" x="145.84" y="253.05" width="25.28" height="25.28"/><rect class="cls-6" x="120.55" y="328.9" width="25.28" height="25.28"/><rect class="cls-6" x="120.55" y="303.62" width="25.28" height="25.28"/><rect class="cls-6" x="95.27" y="328.9" width="25.28" height="25.28"/><rect class="cls-6" x="95.27" y="303.62" width="25.28" height="25.28"/><rect class="cls-6" x="120.55" y="278.33" width="25.28" height="25.28"/><rect class="cls-6" x="120.55" y="253.05" width="25.28" height="25.28"/><rect class="cls-6" x="145.84" y="227.76" width="25.28" height="25.28"/><rect class="cls-6" x="171.12" y="354.18" width="25.28" height="25.28"/><rect class="cls-6" x="196.4" y="404.75" width="25.28" height="25.28"/><rect class="cls-6" x="196.4" y="354.18" width="25.28" height="25.28"/><rect class="cls-6" x="196.4" y="328.9" width="25.28" height="25.28"/><rect class="cls-6" x="221.69" y="354.18" width="25.28" height="25.28"/><rect class="cls-6" x="221.69" y="328.9" width="25.28" height="25.28"/><rect class="cls-6" x="221.69" y="303.62" width="25.28" height="25.28"/><rect class="cls-6" x="246.97" y="354.18" width="25.28" height="25.28"/><rect class="cls-6" x="246.97" y="328.9" width="25.28" height="25.28"/><rect class="cls-6" x="246.97" y="303.62" width="25.28" height="25.28"/><rect class="cls-6" x="272.26" y="354.18" width="25.28" height="25.28"/><rect class="cls-6" x="272.26" y="328.9" width="25.28" height="25.28"/><rect class="cls-6" x="272.26" y="303.62" width="25.28" height="25.28"/><rect class="cls-6" x="272.26" y="278.33" width="25.28" height="25.28"/><rect class="cls-6" x="297.54" y="354.18" width="25.28" height="25.28"/><rect class="cls-6" x="297.54" y="328.9" width="25.28" height="25.28"/><rect class="cls-6" x="297.54" y="303.62" width="25.28" height="25.28"/><rect class="cls-6" x="297.54" y="278.33" width="25.28" height="25.28"/><rect class="cls-6" x="297.54" y="253.05" width="25.28" height="25.28"/><rect class="cls-1" x="95.27" y="607.02" width="25.28" height="25.28"/><rect class="cls-1" x="95.27" y="581.74" width="25.28" height="25.28"/><rect class="cls-1" x="69.98" y="581.74" width="25.28" height="25.28"/><rect class="cls-1" x="95.27" y="556.46" width="25.28" height="25.28"/><rect class="cls-1" x="120.55" y="607.02" width="25.28" height="25.28"/><rect class="cls-6" x="120.55" y="581.74" width="25.28" height="25.28"/><rect class="cls-6" x="120.55" y="556.46" width="25.28" height="25.28"/><rect class="cls-6" x="120.55" y="531.17" width="25.28" height="25.28"/><rect class="cls-6" x="120.55" y="505.89" width="25.28" height="25.28"/><rect class="cls-6" x="120.55" y="480.6" width="25.28" height="25.28"/><rect class="cls-6" x="95.27" y="531.17" width="25.28" height="25.28"/><rect class="cls-6" x="95.27" y="505.89" width="25.28" height="25.28"/><rect class="cls-6" x="95.27" y="480.6" width="25.28" height="25.28"/><rect class="cls-6" x="120.55" y="455.32" width="25.28" height="25.28"/><rect class="cls-6" x="120.55" y="430.04" width="25.28" height="25.28"/><rect class="cls-6" x="145.84" y="581.74" width="25.28" height="25.28"/><rect class="cls-6" x="145.84" y="430.04" width="25.28" height="25.28"/><rect class="cls-6" x="196.4" y="430.04" width="25.28" height="25.28"/><rect class="cls-6" x="221.69" y="607.02" width="25.28" height="25.28"/><rect class="cls-6" x="221.69" y="581.74" width="25.28" height="25.28"/><rect class="cls-6" x="246.97" y="430.04" width="25.28" height="25.28"/><rect class="cls-6" x="272.26" y="505.89" width="25.28" height="25.28"/><rect class="cls-6" x="297.54" y="505.89" width="25.28" height="25.28"/><rect class="cls-6" x="297.54" y="480.6" width="25.28" height="25.28"/><rect class="cls-6" x="322.82" y="328.9" width="25.28" height="25.28"/><rect class="cls-6" x="322.82" y="303.62" width="25.28" height="25.28"/><rect class="cls-6" x="322.82" y="278.33" width="25.28" height="25.28"/><rect class="cls-6" x="322.82" y="253.05" width="25.28" height="25.28"/><rect class="cls-6" x="322.82" y="227.76" width="25.28" height="25.28"/><rect class="cls-6" x="348.11" y="328.9" width="25.28" height="25.28"/><rect class="cls-6" x="348.11" y="303.62" width="25.28" height="25.28"/><rect class="cls-6" x="348.11" y="278.33" width="25.28" height="25.28"/><rect class="cls-6" x="348.11" y="253.05" width="25.28" height="25.28"/><rect class="cls-6" x="348.11" y="227.76" width="25.28" height="25.28"/><rect class="cls-6" x="373.39" y="404.75" width="25.28" height="25.28"/><rect class="cls-6" x="373.39" y="278.33" width="25.28" height="25.28"/><rect class="cls-6" x="373.39" y="253.05" width="25.28" height="25.28"/><rect class="cls-6" x="373.39" y="227.76" width="25.28" height="25.28"/><rect class="cls-6" x="398.68" y="227.76" width="25.28" height="25.28"/><rect class="cls-6" x="423.96" y="404.75" width="25.28" height="25.28"/><rect class="cls-6" x="423.96" y="202.48" width="25.28" height="25.28"/><rect class="cls-6" x="449.24" y="202.48" width="25.28" height="25.28"/><rect class="cls-6" x="550.38" y="404.75" width="25.28" height="25.28"/><rect class="cls-6" x="550.38" y="379.47" width="25.28" height="25.28"/><rect class="cls-6" x="575.67" y="404.75" width="25.28" height="25.28"/><rect class="cls-6" x="575.67" y="379.47" width="25.28" height="25.28"/><rect class="cls-6" x="171.12" y="177.19" width="25.28" height="25.28"/><rect class="cls-6" x="145.84" y="202.48" width="25.28" height="25.28"/><rect class="cls-6" x="120.55" y="227.76" width="25.28" height="25.28"/><rect class="cls-6" x="120.55" y="202.48" width="25.28" height="25.28"/><rect class="cls-6" x="145.84" y="177.19" width="25.28" height="25.28"/><rect class="cls-6" x="398.68" y="202.48" width="25.28" height="25.28"/><rect class="cls-6" x="474.53" y="177.19" width="25.28" height="25.28"/><rect class="cls-6" x="499.81" y="202.48" width="25.28" height="25.28"/><rect class="cls-6" x="474.53" y="202.48" width="25.28" height="25.28"/><rect class="cls-6" x="499.81" y="177.19" width="25.28" height="25.28"/><rect class="cls-6" x="525.1" y="151.91" width="25.28" height="25.28"/><rect class="cls-6" x="626.23" y="202.48" width="25.28" height="25.28"/><rect class="cls-6" x="626.23" y="177.19" width="25.28" height="25.28"/><rect class="cls-6" x="651.52" y="177.19" width="25.28" height="25.28"/><rect class="cls-6" x="676.8" y="177.19" width="25.28" height="25.28"/><rect class="cls-6" x="702.09" y="177.19" width="25.28" height="25.28"/><rect class="cls-6" x="499.81" y="126.63" width="25.28" height="25.28"/><rect class="cls-6" x="525.1" y="126.63" width="25.28" height="25.28"/><rect class="cls-6" x="525.1" y="101.34" width="25.28" height="25.28"/><rect class="cls-6" x="550.38" y="126.63" width="25.28" height="25.28"/><rect class="cls-1" x="550.38" y="101.34" width="25.28" height="25.28"/><rect class="cls-6" x="575.67" y="126.63" width="25.28" height="25.28"/><rect class="cls-6" x="575.67" y="101.34" width="25.28" height="25.28"/><rect class="cls-6" x="600.95" y="126.63" width="25.28" height="25.28"/><rect class="cls-6" x="600.95" y="101.34" width="25.28" height="25.28"/><rect class="cls-1" x="651.52" y="126.63" width="25.28" height="25.28"/><rect class="cls-6" x="676.8" y="126.63" width="25.28" height="25.28"/><rect class="cls-6" x="651.52" y="101.34" width="25.28" height="25.28"/><rect class="cls-6" x="676.8" y="101.34" width="25.28" height="25.28"/><rect class="cls-6" x="525.1" y="76.06" width="25.28" height="25.28"/><rect class="cls-1" x="550.38" y="76.06" width="25.28" height="25.28"/><rect class="cls-1" x="575.67" y="76.06" width="25.28" height="25.28"/><rect class="cls-6" x="322.82" y="607.02" width="25.28" height="25.28"/><rect class="cls-6" x="322.82" y="581.74" width="25.28" height="25.28"/><rect class="cls-6" x="322.82" y="556.46" width="25.28" height="25.28"/><rect class="cls-6" x="322.82" y="531.17" width="25.28" height="25.28"/><rect class="cls-6" x="322.82" y="505.89" width="25.28" height="25.28"/><rect class="cls-6" x="348.11" y="607.02" width="25.28" height="25.28"/><rect class="cls-6" x="348.11" y="581.74" width="25.28" height="25.28"/><rect class="cls-6" x="348.11" y="556.46" width="25.28" height="25.28"/><rect class="cls-6" x="348.11" y="531.17" width="25.28" height="25.28"/><rect class="cls-6" x="348.11" y="505.89" width="25.28" height="25.28"/><rect class="cls-1" x="373.39" y="581.74" width="25.28" height="25.28"/><rect class="cls-1" x="373.39" y="556.46" width="25.28" height="25.28"/><rect class="cls-1" x="373.39" y="531.17" width="25.28" height="25.28"/><rect class="cls-6" x="373.39" y="505.89" width="25.28" height="25.28"/><rect class="cls-6" x="373.39" y="455.32" width="25.28" height="25.28"/><rect class="cls-6" x="373.39" y="430.04" width="25.28" height="25.28"/><rect class="cls-6" x="398.68" y="505.89" width="25.28" height="25.28"/><rect class="cls-1" x="423.96" y="607.02" width="25.28" height="25.28"/><rect class="cls-6" x="423.96" y="531.17" width="25.28" height="25.28"/><rect class="cls-6" x="423.96" y="505.89" width="25.28" height="25.28"/><rect class="cls-6" x="423.96" y="480.6" width="25.28" height="25.28"/><rect class="cls-6" x="423.96" y="455.32" width="25.28" height="25.28"/><rect class="cls-6" x="423.96" y="430.04" width="25.28" height="25.28"/><rect class="cls-1" x="449.24" y="607.02" width="25.28" height="25.28"/><rect class="cls-6" x="449.24" y="531.17" width="25.28" height="25.28"/><rect class="cls-6" x="449.24" y="505.89" width="25.28" height="25.28"/><rect class="cls-1" x="474.53" y="607.02" width="25.28" height="25.28"/><rect class="cls-6" x="474.53" y="581.74" width="25.28" height="25.28"/><rect class="cls-6" x="474.53" y="556.46" width="25.28" height="25.28"/><rect class="cls-6" x="474.53" y="531.17" width="25.28" height="25.28"/><rect class="cls-6" x="474.53" y="505.89" width="25.28" height="25.28"/><rect class="cls-6" x="474.53" y="455.32" width="25.28" height="25.28"/><rect class="cls-6" x="474.53" y="430.04" width="25.28" height="25.28"/><rect class="cls-6" x="499.81" y="607.02" width="25.28" height="25.28"/><rect class="cls-6" x="499.81" y="581.74" width="25.28" height="25.28"/><rect class="cls-6" x="499.81" y="556.46" width="25.28" height="25.28"/><rect class="cls-6" x="499.81" y="531.17" width="25.28" height="25.28"/><rect class="cls-6" x="499.81" y="505.89" width="25.28" height="25.28"/><rect class="cls-6" x="499.81" y="430.04" width="25.28" height="25.28"/><rect class="cls-6" x="525.1" y="607.02" width="25.28" height="25.28"/><rect class="cls-6" x="525.1" y="581.74" width="25.28" height="25.28"/><rect class="cls-6" x="525.1" y="556.46" width="25.28" height="25.28"/><rect class="cls-6" x="525.1" y="531.17" width="25.28" height="25.28"/><rect class="cls-6" x="525.1" y="430.04" width="25.28" height="25.28"/><rect class="cls-6" x="550.38" y="607.02" width="25.28" height="25.28"/><rect class="cls-6" x="550.38" y="581.74" width="25.28" height="25.28"/><rect class="cls-6" x="550.38" y="556.46" width="25.28" height="25.28"/><rect class="cls-6" x="550.38" y="531.17" width="25.28" height="25.28"/><rect class="cls-6" x="550.38" y="455.32" width="25.28" height="25.28"/><rect class="cls-6" x="550.38" y="430.04" width="25.28" height="25.28"/><rect class="cls-6" x="575.67" y="531.17" width="25.28" height="25.28"/><rect class="cls-6" x="575.67" y="455.32" width="25.28" height="25.28"/><rect class="cls-6" x="575.67" y="430.04" width="25.28" height="25.28"/><rect class="cls-6" x="297.54" y="682.88" width="25.28" height="25.28"/><rect class="cls-6" x="297.54" y="657.59" width="25.28" height="25.28"/><rect class="cls-6" x="322.82" y="632.31" width="25.28" height="25.28"/><rect class="cls-6" x="398.68" y="682.88" width="25.28" height="25.28"/><rect class="cls-1" x="398.68" y="657.59" width="25.28" height="25.28"/><rect class="cls-6" x="423.96" y="682.88" width="25.28" height="25.28"/><rect class="cls-1" x="423.96" y="657.59" width="25.28" height="25.28"/><rect class="cls-1" x="449.24" y="682.88" width="25.28" height="25.28"/><rect class="cls-1" x="449.24" y="657.59" width="25.28" height="25.28"/><rect class="cls-1" x="449.24" y="632.31" width="25.28" height="25.28"/><rect class="cls-1" x="474.53" y="682.88" width="25.28" height="25.28"/><rect class="cls-1" x="474.53" y="657.59" width="25.28" height="25.28"/><rect class="cls-1" x="474.53" y="632.31" width="25.28" height="25.28"/><rect class="cls-6" x="499.81" y="682.88" width="25.28" height="25.28"/><rect class="cls-6" x="499.81" y="657.59" width="25.28" height="25.28"/><rect class="cls-6" x="499.81" y="632.31" width="25.28" height="25.28"/><rect class="cls-6" x="525.1" y="682.88" width="25.28" height="25.28"/><rect class="cls-6" x="525.1" y="657.59" width="25.28" height="25.28"/><rect class="cls-6" x="525.1" y="632.31" width="25.28" height="25.28"/><rect class="cls-6" x="550.38" y="682.88" width="25.28" height="25.28"/><rect class="cls-6" x="525.1" y="708.16" width="25.28" height="25.28"/><rect class="cls-6" x="550.38" y="708.16" width="25.28" height="25.28"/><rect class="cls-6" x="246.97" y="708.16" width="25.28" height="25.28"/><rect class="cls-6" x="246.97" y="733.44" width="25.28" height="25.28"/><rect class="cls-6" x="272.26" y="733.44" width="25.28" height="25.28"/><rect class="cls-6" x="272.26" y="708.16" width="25.28" height="25.28"/><rect class="cls-6" x="297.54" y="733.44" width="25.28" height="25.28"/><rect class="cls-6" x="246.97" y="758.73" width="25.28" height="25.28"/><rect class="cls-6" x="272.26" y="758.73" width="25.28" height="25.28"/><rect class="cls-6" x="246.97" y="784.01" width="25.28" height="25.28"/><rect class="cls-6" x="272.26" y="784.01" width="25.28" height="25.28"/><rect class="cls-6" x="297.54" y="758.73" width="25.28" height="25.28"/><rect class="cls-6" x="297.54" y="708.16" width="25.28" height="25.28"/><rect class="cls-6" x="398.68" y="733.44" width="25.28" height="25.28"/><rect class="cls-6" x="398.68" y="708.16" width="25.28" height="25.28"/><rect class="cls-6" x="423.96" y="733.44" width="25.28" height="25.28"/><rect class="cls-6" x="423.96" y="708.16" width="25.28" height="25.28"/><rect class="cls-6" x="449.24" y="733.44" width="25.28" height="25.28"/><rect class="cls-1" x="449.24" y="708.16" width="25.28" height="25.28"/><rect class="cls-6" x="474.53" y="733.44" width="25.28" height="25.28"/><rect class="cls-1" x="474.53" y="708.16" width="25.28" height="25.28"/><rect class="cls-6" x="499.81" y="708.16" width="25.28" height="25.28"/></svg>