<?xml version="1.0" encoding="UTF-8"?>
<svg id="Capa_1" xmlns="http://www.w3.org/2000/svg" version="1.1" viewBox="0 0 263.4 81.6">
  <!-- Generator: Adobe Illustrator 30.3.0, SVG Export Plug-In . SVG Version: 2.1.3 Build 182)  -->
  <defs>
    <style>
      .st0 {
        fill: #1d1d1b;
      }
    </style>
  </defs>
  <g>
    <path class="st0" d="M76.1,37c0-1.6,0-1.9,0-2.2,0-.4-.1-.5-.4-.6,0,0-.3,0-.4,0s-.2,0-.2,0,0,0,.2,0c.3,0,.6,0,.8,0,.3,0,.5,0,.7,0,.3,0,2.4,0,2.6,0,.2,0,.4,0,.4,0,0,0,.1,0,.2,0s0,0,0,0,0,.2,0,.7c0,.1,0,.6,0,.7,0,0,0,.1-.1.1s0,0,0-.1,0-.3,0-.4c0-.2-.2-.3-.7-.4-.2,0-1.3,0-1.5,0s0,0,0,.1v2.6c0,0,0,.1,0,.1.2,0,1.4,0,1.7,0,.3,0,.4,0,.5-.2,0,0,.1-.1.2-.1s0,0,0,0,0,.2,0,.8c0,.2,0,.6,0,.7s0,.2,0,.2,0,0,0,0c0-.1,0-.2,0-.4,0-.2-.2-.4-.6-.4-.2,0-1.2,0-1.5,0s0,0,0,.1v.8c0,.4,0,1.3,0,1.6,0,.7.2.9,1.3.9s.7,0,1-.1c.3-.1.4-.3.5-.8,0-.1,0-.2.1-.2s0,0,0,.2c0,.2,0,1-.1,1.2,0,.3-.2.3-.6.3-.8,0-1.4,0-1.8,0-.4,0-.8,0-1.1,0s-.3,0-.6,0c-.2,0-.5,0-.7,0s-.2,0-.2-.1,0,0,.2,0,.3,0,.4,0c.2,0,.3-.3.3-.6,0-.4,0-1.3,0-2.2v-1.8Z"/>
    <path class="st0" d="M82.3,41.8c-.2,0-.2-.1-.2-.4,0-.6,0-1.2,0-1.4,0-.2,0-.3.1-.3s.1,0,.1.2c0,.1,0,.4,0,.5.2.8.8,1.1,1.5,1.1.9,0,1.4-.6,1.4-1.2s-.2-1-1-1.7l-.5-.4c-1.1-.9-1.5-1.6-1.5-2.5s1-2,2.4-2,1.1.1,1.4.2c0,0,.1,0,.1.1,0,.1,0,.4,0,1.3s0,.3-.1.3-.1,0-.1-.2,0-.4-.3-.7c-.2-.2-.5-.5-1.1-.5s-1.2.4-1.2,1.1.2.8,1.1,1.5l.3.2c1.3,1,1.7,1.7,1.7,2.7s-.2,1.3-1,1.8c-.5.3-1.1.4-1.7.4s-1.1,0-1.5-.3Z"/>
    <path class="st0" d="M89.2,40.9c-1-.9-1.3-2.1-1.3-3.1s.2-1.9,1.2-2.9c.8-.7,1.7-1.1,3.3-1.1s1,0,1.5.1c.4,0,.7.1,1,.2.1,0,.2,0,.2.1s0,.2,0,.6c0,.3,0,.9,0,1.1,0,.2,0,.2-.1.2s-.1,0-.1-.2c0-.3-.1-.7-.4-1-.3-.4-1.2-.6-2.1-.6s-1.5.2-2,.6c-.8.7-1,1.7-1,2.7,0,2.5,1.9,3.7,3.3,3.7s1.5-.1,1.9-.6c.2-.2.3-.5.4-.7,0-.2,0-.2.1-.2s0,0,0,.2c0,.1-.1,1-.2,1.4s0,.2-.3.3c-.4.2-1.2.2-1.9.2-1.4,0-2.6-.3-3.6-1.1Z"/>
    <path class="st0" d="M97.5,37c0-1.6,0-1.9,0-2.2,0-.4-.1-.5-.4-.6,0,0-.3,0-.4,0s-.2,0-.2,0,0,0,.2,0c.6,0,1.2,0,1.5,0s.9,0,1.3,0,.2,0,.2,0,0,0-.2,0-.2,0-.3,0c-.3,0-.4.2-.4.6,0,.3,0,.6,0,2.2v1.5c0,1.5.3,2.2.8,2.6.5.4,1,.4,1.3.4s1-.1,1.4-.6.6-1.5.6-2.6v-1.3c0-1.6,0-1.9,0-2.2,0-.4-.1-.5-.4-.6,0,0-.3,0-.4,0s-.2,0-.2,0,0,0,.2,0c.5,0,1.2,0,1.2,0,.1,0,.8,0,1.2,0s.2,0,.2,0,0,0-.2,0-.2,0-.3,0c-.3,0-.4.2-.4.6,0,.3,0,.6,0,2.2v1.1c0,1.2-.1,2.4-1,3.1-.7.6-1.5.8-2.2.8s-1.6,0-2.3-.7c-.5-.5-.9-1.3-.9-2.8v-1.5Z"/>
    <path class="st0" d="M107.2,37c0-1.6,0-1.9,0-2.2,0-.4-.1-.5-.4-.6,0,0-.3,0-.4,0s-.2,0-.2,0,0,0,.2,0c.3,0,.6,0,.8,0,.3,0,.5,0,.7,0,.3,0,2.4,0,2.6,0,.2,0,.4,0,.4,0,0,0,.1,0,.2,0s0,0,0,0,0,.2,0,.7c0,.1,0,.6,0,.7,0,0,0,.1-.1.1s0,0,0-.1,0-.3,0-.4c0-.2-.2-.3-.7-.4-.2,0-1.3,0-1.5,0s0,0,0,.1v2.6c0,0,0,.1,0,.1.2,0,1.4,0,1.7,0,.3,0,.4,0,.5-.2,0,0,.1-.1.2-.1s0,0,0,0,0,.2,0,.8c0,.2,0,.6,0,.7s0,.2,0,.2,0,0,0,0c0-.1,0-.2,0-.4,0-.2-.2-.4-.6-.4-.2,0-1.2,0-1.5,0s0,0,0,.1v.8c0,.4,0,1.3,0,1.6,0,.7.2.9,1.3.9s.7,0,1-.1c.3-.1.4-.3.5-.8,0-.1,0-.2.1-.2s0,0,0,.2c0,.2,0,1-.1,1.2,0,.3-.2.3-.6.3-.8,0-1.4,0-1.8,0-.4,0-.8,0-1.1,0s-.3,0-.6,0c-.2,0-.5,0-.7,0s-.2,0-.2-.1,0,0,.2,0,.3,0,.4,0c.2,0,.3-.3.3-.6,0-.4,0-1.3,0-2.2v-1.8Z"/>
    <path class="st0" d="M115.3,38.9c0,1.3,0,2.1.2,2.2.2.2.4.2,1.3.2s1,0,1.2-.3c.1-.1.3-.4.3-.6,0,0,0-.2.1-.2s0,0,0,.2,0,.9-.2,1.2c0,.2-.1.3-.7.3s-1.3,0-1.8,0c-.5,0-.8,0-1.3,0s-.3,0-.6,0c-.2,0-.5,0-.7,0s-.2,0-.2-.1,0,0,.2,0,.3,0,.4,0c.2,0,.3-.3.3-.6,0-.4,0-1.3,0-2.2v-1.8c0-1.6,0-1.9,0-2.2,0-.4-.1-.5-.4-.6,0,0-.2,0-.3,0s-.2,0-.2,0,0,0,.2,0c.5,0,1.1,0,1.4,0s1,0,1.4,0,.2,0,.2,0,0,0-.2,0-.3,0-.4,0c-.3,0-.4.2-.4.6,0,.3,0,.6,0,2.2v1.8Z"/>
    <path class="st0" d="M121.8,39.2c0,0,0,0,0,0l-.6,1.4c-.1.3-.2.5-.2.6,0,.2,0,.3.4.3h.2c.1,0,.2,0,.2,0s0,.1-.2.1c-.3,0-.8,0-1.1,0s-.7,0-1.2,0-.2,0-.2-.1,0,0,.1,0,.2,0,.3,0c.5,0,.7-.4.9-.9l2.6-6.5c.1-.3.2-.4.3-.4s.2,0,.3.3c.3.6,1.9,4.8,2.6,6.3.4.9.7,1.1.9,1.1.2,0,.3,0,.4,0s.1,0,.1,0,0,.1-.5.1-1.1,0-2,0c-.2,0-.3,0-.3,0s0,0,.1,0c0,0,.1-.1,0-.2l-.8-2.2c0,0,0,0-.1,0h-2.3ZM123.9,38.7c0,0,0,0,0,0l-.9-2.6s0,0,0,0,0,0,0,0l-1,2.6s0,0,0,0h1.9Z"/>
    <path class="st0" d="M132.3,37c0-1.6,0-1.9,0-2.2,0-.4-.1-.5-.4-.6,0,0-.3,0-.4,0s-.2,0-.2,0,0,0,.2,0c.6,0,1.2,0,1.5,0s1,0,1.6,0c1.3,0,3.1,0,4.2,1.2.5.5,1,1.4,1,2.7s-.6,2.3-1.1,2.9c-.5.5-1.6,1.2-3.5,1.2s-.8,0-1.2,0c-.4,0-.8,0-1,0s-.3,0-.6,0c-.2,0-.5,0-.7,0s-.2,0-.2-.1,0,0,.2,0,.3,0,.4,0c.2,0,.3-.3.3-.6,0-.4,0-1.3,0-2.2v-1.8ZM133.6,38.2c0,1.1,0,1.9,0,2.1,0,.3,0,.7.1.8.1.2.5.4,1.4.4s1.8-.2,2.4-.8c.7-.6.9-1.5.9-2.6s-.6-2.2-1-2.6c-1-.9-2.2-1-3-1s-.6,0-.7,0c0,0-.1,0-.1.2,0,.4,0,1.3,0,2.1v1.3Z"/>
    <path class="st0" d="M142.1,37c0-1.6,0-1.9,0-2.2,0-.4-.1-.5-.4-.6,0,0-.3,0-.4,0s-.2,0-.2,0,0,0,.2,0c.3,0,.6,0,.8,0,.3,0,.5,0,.7,0,.3,0,2.4,0,2.6,0,.2,0,.4,0,.4,0,0,0,.1,0,.2,0s0,0,0,0,0,.2,0,.7c0,.1,0,.6,0,.7,0,0,0,.1-.1.1s0,0,0-.1,0-.3,0-.4c0-.2-.2-.3-.7-.4-.2,0-1.3,0-1.5,0s0,0,0,.1v2.6c0,0,0,.1,0,.1.2,0,1.4,0,1.7,0,.3,0,.4,0,.5-.2,0,0,.1-.1.2-.1s0,0,0,0,0,.2,0,.8c0,.2,0,.6,0,.7s0,.2,0,.2,0,0,0,0c0-.1,0-.2,0-.4,0-.2-.2-.4-.6-.4-.2,0-1.2,0-1.5,0s0,0,0,.1v.8c0,.4,0,1.3,0,1.6,0,.7.2.9,1.3.9s.7,0,1-.1c.3-.1.4-.3.5-.8,0-.1,0-.2.1-.2s0,0,0,.2c0,.2,0,1-.1,1.2,0,.3-.2.3-.6.3-.8,0-1.4,0-1.8,0-.4,0-.8,0-1.1,0s-.3,0-.6,0c-.2,0-.5,0-.7,0s-.2,0-.2-.1,0,0,.2,0,.3,0,.4,0c.2,0,.3-.3.3-.6,0-.4,0-1.3,0-2.2v-1.8Z"/>
    <path class="st0" d="M152.7,39.2c0,0,0,0,0,0l-.6,1.4c-.1.3-.2.5-.2.6,0,.2,0,.3.4.3h.2c.1,0,.2,0,.2,0s0,.1-.2.1c-.3,0-.8,0-1.1,0s-.7,0-1.2,0-.2,0-.2-.1,0,0,.1,0,.2,0,.3,0c.5,0,.7-.4.9-.9l2.6-6.5c.1-.3.2-.4.3-.4s.2,0,.3.3c.3.6,1.9,4.8,2.6,6.3.4.9.7,1.1.9,1.1.2,0,.3,0,.4,0s.1,0,.1,0,0,.1-.5.1-1.1,0-2,0c-.2,0-.3,0-.3,0s0,0,.1,0c0,0,.1-.1,0-.2l-.8-2.2c0,0,0,0-.1,0h-2.3ZM154.9,38.7c0,0,0,0,0,0l-.9-2.6s0,0,0,0,0,0,0,0l-1,2.6s0,0,0,0h1.9Z"/>
    <path class="st0" d="M160.4,37c0-1.6,0-1.9,0-2.2,0-.4-.1-.5-.5-.6,0,0-.3,0-.4,0s-.2,0-.2,0,0,0,.2,0c.6,0,1.2,0,1.4,0,.4,0,1.1,0,1.5,0,.7,0,1.4,0,1.9.4.3.2.7.7.7,1.4s-.3,1.5-1.4,2.3c.9,1.2,1.7,2.1,2.3,2.7.6.6,1,.7,1.2.7.1,0,.2,0,.3,0s.1,0,.1,0c0,0,0,.1-.2.1h-1c-.6,0-.8,0-1.1-.2-.4-.2-.8-.7-1.4-1.5-.4-.6-.9-1.3-1-1.4,0,0-.1,0-.2,0h-.9c0,0,0,0,0,0h0c0,1.1,0,1.9,0,2.4,0,.3,0,.5.4.6.2,0,.4,0,.5,0s.1,0,.1,0,0,.1-.2.1c-.6,0-1.4,0-1.5,0s-.9,0-1.3,0-.2,0-.2-.1,0,0,.2,0,.3,0,.4,0c.2,0,.3-.3.3-.6,0-.4,0-1.3,0-2.2v-1.8ZM161.7,37.9c0,.1,0,.2,0,.2.2,0,.5.1.8.1.4,0,.6,0,.7-.2.3-.2.6-.7.6-1.6,0-1.5-1-1.9-1.6-1.9s-.5,0-.6,0c0,0,0,0,0,.1v3.2Z"/>
    <path class="st0" d="M173.3,41.8c-.4.2-1.1.3-1.6.3-3.1,0-4.3-2.3-4.3-4.1s1.2-4,4.3-4,4.2,1.5,4.2,4-1.2,3-1.8,3.4l2.1,1.1c2.2,1.1,3.6,1.2,4.3,1.2s1.3,0,2-.4c0,0,.1,0,.2,0s0,0,0,0,0,0-.1.1c-.6.3-1.8.8-3.3.8s-2.7-.4-4.4-1.4l-1.6-1ZM174.5,38.1c0-2.5-1.6-3.7-3-3.7s-2.6.9-2.6,3.3,1.5,3.9,3.2,3.9,2.4-.4,2.4-3.4Z"/>
    <path class="st0" d="M177.9,37c0-1.6,0-1.9,0-2.2,0-.4-.1-.5-.4-.6,0,0-.3,0-.4,0s-.2,0-.2,0,0,0,.2,0c.6,0,1.2,0,1.5,0s.9,0,1.3,0,.2,0,.2,0,0,0-.2,0-.2,0-.3,0c-.3,0-.4.2-.4.6,0,.3,0,.6,0,2.2v1.5c0,1.5.3,2.2.8,2.6.5.4,1,.4,1.3.4s1-.1,1.4-.6c.6-.6.6-1.5.6-2.6v-1.3c0-1.6,0-1.9,0-2.2,0-.4-.1-.5-.4-.6,0,0-.3,0-.4,0s-.2,0-.2,0,0,0,.2,0c.5,0,1.2,0,1.2,0,.1,0,.8,0,1.2,0s.2,0,.2,0,0,0-.2,0-.2,0-.3,0c-.3,0-.4.2-.4.6,0,.3,0,.6,0,2.2v1.1c0,1.2-.1,2.4-1,3.1-.7.6-1.5.8-2.2.8s-1.6,0-2.3-.7c-.5-.5-.9-1.3-.9-2.8v-1.5Z"/>
    <path class="st0" d="M187.6,37c0-1.6,0-1.9,0-2.2,0-.4-.1-.5-.4-.6-.1,0-.3,0-.4,0s-.2,0-.2-.1,0,0,.3,0c.4,0,1.1,0,1.4,0s.9,0,1.3,0,.2,0,.2,0,0,.1-.2.1-.2,0-.3,0c-.3,0-.4.2-.4.6,0,.3,0,.6,0,2.2v1.8c0,1,0,1.8,0,2.3,0,.3.1.5.4.5.1,0,.4,0,.5,0s.2,0,.2,0,0,.1-.2.1c-.7,0-1.3,0-1.6,0s-.9,0-1.3,0-.2,0-.2-.1,0,0,.2,0,.3,0,.4,0c.2,0,.3-.2.3-.5,0-.4,0-1.3,0-2.3v-1.8Z"/>
    <path class="st0" d="M194,34.6h-1.6c-.6,0-.9.1-1,.3-.1.2-.2.3-.2.4,0,0,0,.1-.1.1s0,0,0-.2c0-.2.2-1.1.2-1.2,0-.1,0-.2.1-.2s.2.1.4.1c.3,0,.7,0,1,0h4.1c.3,0,.6,0,.7,0,.2,0,.2,0,.3,0,0,0,0,0,0,.2s0,.9,0,1.2c0,.1,0,.2,0,.2s-.1,0-.1-.2h0c0-.4-.3-.7-1.2-.7h-1.3s0,4.3,0,4.3c0,1,0,1.8,0,2.2,0,.3,0,.5.4.6.1,0,.4,0,.5,0s.2,0,.2,0,0,.1-.2.1c-.7,0-1.3,0-1.6,0s-.9,0-1.3,0-.2,0-.2-.1,0,0,.2,0,.3,0,.4,0c.2,0,.3-.3.3-.6,0-.4,0-1.3,0-2.2v-4.3Z"/>
    <path class="st0" d="M200.5,37c0-1.6,0-1.9,0-2.2,0-.4-.1-.5-.4-.6,0,0-.3,0-.4,0s-.2,0-.2,0,0,0,.2,0c.3,0,.6,0,.8,0,.3,0,.5,0,.7,0,.3,0,2.4,0,2.6,0,.2,0,.4,0,.4,0,0,0,.1,0,.2,0s0,0,0,0,0,.2,0,.7c0,.1,0,.6,0,.7,0,0,0,.1-.1.1s0,0,0-.1,0-.3,0-.4c0-.2-.2-.3-.7-.4-.2,0-1.3,0-1.5,0s0,0,0,.1v2.6c0,0,0,.1,0,.1.2,0,1.4,0,1.7,0,.2,0,.4,0,.5-.2,0,0,.1-.1.2-.1s0,0,0,0,0,.2,0,.8c0,.2,0,.6,0,.7s0,.2,0,.2,0,0,0,0c0-.1,0-.2,0-.4,0-.2-.2-.4-.6-.4-.2,0-1.2,0-1.5,0s0,0,0,.1v.8c0,.4,0,1.3,0,1.6,0,.7.2.9,1.3.9s.7,0,1-.1c.3-.1.4-.3.5-.8,0-.1,0-.2.1-.2s0,0,0,.2c0,.2,0,1-.1,1.2,0,.3-.2.3-.6.3-.8,0-1.4,0-1.8,0-.4,0-.8,0-1.1,0s-.3,0-.6,0c-.2,0-.5,0-.7,0s-.2,0-.2-.1,0,0,.2,0,.3,0,.4,0c.2,0,.3-.3.3-.6,0-.4,0-1.3,0-2.2v-1.8Z"/>
    <path class="st0" d="M207.4,40.9c-1-.9-1.3-2.1-1.3-3.1s.2-1.9,1.2-2.9c.8-.7,1.7-1.1,3.3-1.1s1,0,1.5.1c.4,0,.7.1,1,.2.1,0,.2,0,.2.1s0,.2,0,.6c0,.3,0,.9,0,1.1,0,.2,0,.2-.1.2s-.1,0-.1-.2c0-.3-.1-.7-.4-1-.3-.4-1.2-.6-2.1-.6s-1.5.2-2,.6c-.8.7-1,1.7-1,2.7,0,2.5,1.9,3.7,3.3,3.7s1.5-.1,1.9-.6c.2-.2.3-.5.4-.7,0-.2,0-.2.1-.2s0,0,0,.2c0,.1-.1,1-.2,1.4,0,.2,0,.2-.3.3-.4.2-1.2.2-1.9.2-1.4,0-2.6-.3-3.6-1.1Z"/>
    <path class="st0" d="M217.6,34.6h-1.6c-.6,0-.9.1-1,.3-.1.2-.2.3-.2.4,0,0,0,.1-.1.1s0,0,0-.2c0-.2.2-1.1.2-1.2,0-.1,0-.2.1-.2s.2.1.4.1c.3,0,.7,0,1,0h4.1c.3,0,.6,0,.7,0,.2,0,.2,0,.3,0,0,0,0,0,0,.2s0,.9,0,1.2c0,.1,0,.2,0,.2s-.1,0-.1-.2h0c0-.4-.3-.7-1.2-.7h-1.3s0,4.3,0,4.3c0,1,0,1.8,0,2.2,0,.3,0,.5.4.6.1,0,.4,0,.5,0s.2,0,.2,0,0,.1-.2.1c-.7,0-1.3,0-1.6,0s-.9,0-1.3,0-.2,0-.2-.1,0,0,.2,0,.3,0,.4,0c.2,0,.3-.3.3-.6,0-.4,0-1.3,0-2.2v-4.3Z"/>
    <path class="st0" d="M223.8,37c0-1.6,0-1.9,0-2.2,0-.4-.1-.5-.4-.6,0,0-.3,0-.4,0s-.2,0-.2,0,0,0,.2,0c.6,0,1.2,0,1.5,0s.9,0,1.3,0,.2,0,.2,0,0,0-.2,0-.2,0-.3,0c-.3,0-.4.2-.4.6,0,.3,0,.6,0,2.2v1.5c0,1.5.3,2.2.8,2.6.5.4,1,.4,1.3.4s1-.1,1.4-.6c.6-.6.6-1.5.6-2.6v-1.3c0-1.6,0-1.9,0-2.2,0-.4-.1-.5-.4-.6,0,0-.3,0-.4,0s-.2,0-.2,0,0,0,.2,0c.5,0,1.2,0,1.2,0,.1,0,.8,0,1.2,0s.2,0,.2,0,0,0-.2,0-.2,0-.3,0c-.3,0-.4.2-.4.6,0,.3,0,.6,0,2.2v1.1c0,1.2-.1,2.4-1,3.1-.7.6-1.5.8-2.2.8s-1.6,0-2.3-.7c-.5-.5-.9-1.3-.9-2.8v-1.5Z"/>
    <path class="st0" d="M233.6,37c0-1.6,0-1.9,0-2.2,0-.4-.1-.5-.4-.6,0,0-.3,0-.4,0s-.2,0-.2,0,0,0,.2,0c.6,0,1.2,0,1.4,0,.4,0,1.2,0,1.5,0,.7,0,1.4,0,1.9.4.3.2.7.7.7,1.4s-.3,1.5-1.4,2.3c.9,1.2,1.7,2.1,2.3,2.7.6.6,1,.7,1.2.7.1,0,.2,0,.3,0s.1,0,.1,0c0,0,0,.1-.2.1h-1c-.6,0-.8,0-1.1-.2-.4-.2-.8-.7-1.4-1.5-.4-.6-.9-1.3-1-1.4,0,0-.1,0-.2,0h-.9c0,0,0,0,0,0h0c0,1.1,0,1.9,0,2.4,0,.3,0,.5.4.6.2,0,.4,0,.5,0s.1,0,.1,0,0,.1-.2.1c-.6,0-1.4,0-1.5,0s-.9,0-1.3,0-.2,0-.2-.1,0,0,.2,0,.3,0,.4,0c.2,0,.3-.3.3-.6,0-.4,0-1.3,0-2.2v-1.8ZM234.8,37.9c0,.1,0,.2,0,.2.2,0,.5.1.8.1.4,0,.6,0,.7-.2.3-.2.6-.7.6-1.6,0-1.5-1-1.9-1.6-1.9s-.4,0-.6,0c0,0,0,0,0,.1v3.2Z"/>
    <path class="st0" d="M243.6,39.2c0,0,0,0,0,0l-.6,1.4c-.1.3-.2.5-.2.6,0,.2,0,.3.4.3h.2c.1,0,.2,0,.2,0s0,.1-.2.1c-.3,0-.8,0-1.1,0s-.7,0-1.2,0-.2,0-.2-.1,0,0,.1,0,.2,0,.3,0c.5,0,.7-.4.9-.9l2.6-6.5c.1-.3.2-.4.3-.4s.2,0,.3.3c.2.6,1.9,4.8,2.6,6.3.4.9.7,1.1.9,1.1.2,0,.3,0,.4,0s.1,0,.1,0,0,.1-.5.1-1.1,0-2,0c-.2,0-.3,0-.3,0s0,0,.1,0c0,0,.1-.1,0-.2l-.8-2.2c0,0,0,0-.1,0h-2.3ZM245.8,38.7c0,0,0,0,0,0l-.9-2.6s0,0,0,0,0,0,0,0l-1,2.6s0,0,0,0h1.9Z"/>
  </g>
  <g>
    <path class="st0" d="M75.8,50c0-1.2,0-1.4,0-1.7,0-.3,0-.4-.3-.4,0,0-.2,0-.3,0s0,0,0,0c0,0,0,0,.1,0,.2,0,.4,0,.6,0h.3c.2,0,1.7,0,1.9,0,.1,0,.3,0,.3,0,0,0,0,0,.1,0s0,0,0,0,0,.1,0,.4c0,0,0,.4,0,.5,0,0,0,0,0,0s0,0,0,0,0-.2,0-.3c0-.1-.2-.2-.5-.3h-1.2s0,0,0,0v2.2s0,0,0,0h1c.1,0,.2,0,.4,0,.2,0,.3,0,.4-.1,0,0,0,0,0,0s0,0,0,0,0,.2,0,.4c0,.2,0,.5,0,.5s0,.1,0,.1,0,0,0,0c0,0,0-.2,0-.3,0-.1-.2-.3-.4-.3-.2,0-1.1,0-1.2,0s0,0,0,0v.7c0,.8,0,1.4,0,1.7,0,.2,0,.4.3.4.1,0,.3,0,.4,0s0,0,0,0c0,0,0,0-.1,0-.4,0-.9,0-1,0s-.5,0-.8,0-.1,0-.1,0,0,0,0,0c0,0,.2,0,.2,0,.2,0,.2-.2.2-.4,0-.3,0-.9,0-1.7v-1.4Z"/>
    <path class="st0" d="M81.6,47.9c0-.3.1-.3.2-.3s0,0,.2.3c.1.3,1.3,3.5,1.8,4.7.3.7.5.8.7.9.1,0,.2,0,.3,0s0,0,0,0,0,0-.2,0-.7,0-1.2,0c-.1,0-.2,0-.2,0s0,0,0,0c0,0,0,0,0-.2l-.7-1.9s0,0,0,0h-1.7s0,0,0,0l-.5,1.4c0,.2-.1.4-.1.5s.2.2.3.2h0c0,0,0,0,0,0,0,0,0,0-.1,0-.2,0-.5,0-.6,0s-.5,0-.9,0-.1,0-.1,0,0,0,0,0,.2,0,.2,0c.4,0,.5-.3.7-.7l1.8-4.9ZM82.5,51.1s0,0,0,0l-.7-2.1c0-.1,0-.1-.1,0l-.7,2.1s0,0,0,0h1.5Z"/>
    <path class="st0" d="M86.1,52.9c-.8-.7-.9-1.6-.9-2.3s.2-1.4.9-2.1c.5-.5,1.2-.8,2.4-.8s.8,0,1.1,0c.3,0,.5.1.8.1,0,0,.1,0,.1,0s0,.2,0,.4c0,.3,0,.7,0,.8s0,.2,0,.2,0,0,0-.2c0-.3-.1-.6-.3-.8-.3-.2-.9-.4-1.6-.4-1,0-1.5.3-1.8.6-.6.5-.7,1.2-.7,2,0,1.5,1.2,2.9,2.8,2.9s1.1,0,1.4-.4c.2-.2.3-.5.3-.7,0,0,0-.1,0-.1s0,0,0,.1,0,.7-.2,1c0,.1,0,.2-.2.2-.3.1-.9.2-1.4.2-1.2,0-2-.3-2.6-.8Z"/>
    <path class="st0" d="M92.4,50c0-1.2,0-1.4,0-1.7,0-.3,0-.4-.3-.4,0,0-.2,0-.3,0s0,0,0,0c0,0,0,0,.1,0,.4,0,.8,0,.9,0s.5,0,.8,0,.1,0,.1,0,0,0,0,0c0,0-.1,0-.2,0-.2,0-.3.2-.3.4,0,.3,0,.5,0,1.7v1.1c0,1.1.3,1.6.6,1.9.4.4.7.4,1.2.4s.9-.2,1.2-.6c.4-.4.5-1.1.5-1.9v-1c0-1.2,0-1.4,0-1.7,0-.3,0-.4-.3-.4,0,0-.2,0-.3,0s0,0,0,0c0,0,0,0,.1,0,.4,0,.8,0,.8,0s.4,0,.7,0,.1,0,.1,0,0,0,0,0c0,0-.1,0-.2,0-.2,0-.3.2-.3.4,0,.3,0,.5,0,1.7v.8c0,.8,0,1.8-.7,2.3-.6.5-1.2.6-1.6.6s-1.1,0-1.6-.6c-.4-.4-.7-.9-.7-2.1v-1.1Z"/>
    <path class="st0" d="M100.3,51.4c0,1.2,0,1.7.2,1.8.1.1.3.2.9.2s.8,0,.9-.2c.1-.1.2-.3.2-.5,0,0,0-.1,0-.1s0,0,0,.1,0,.6-.1.8c0,.2,0,.2-.5.2s-1,0-1.3,0c-.3,0-.6,0-.8,0s-.2,0-.3,0c-.2,0-.3,0-.4,0s-.1,0-.1,0,0,0,0,0c0,0,.2,0,.2,0,.2,0,.2-.2.2-.4,0-.3,0-.9,0-1.7v-1.4c0-1.2,0-1.4,0-1.7,0-.3,0-.4-.3-.4,0,0-.2,0-.3,0s0,0,0,0c0,0,0,0,.1,0,.4,0,.8,0,.9,0s.6,0,.8,0,.1,0,.1,0,0,0,0,0c0,0-.2,0-.3,0-.2,0-.3.2-.3.4,0,.3,0,.5,0,1.7v1.4Z"/>
    <path class="st0" d="M105.8,51.4c0,.8,0,1.4,0,1.7,0,.2,0,.4.3.4.1,0,.3,0,.4,0s0,0,0,0c0,0,0,0-.1,0-.4,0-.9,0-1,0s-.5,0-.8,0-.1,0-.1,0,0,0,0,0c0,0,.2,0,.2,0,.2,0,.2-.2.2-.4,0-.3,0-.9,0-1.7v-3.3h-1.2c-.5,0-.7,0-.8.3,0,.1-.1.2-.1.2,0,0,0,0,0,0s0,0,0,0c0,0,.2-.8.2-.8,0,0,0-.1,0-.1,0,0,.1,0,.3,0,.2,0,.5,0,.6,0h2.9c.3,0,.4,0,.6,0,.1,0,.2,0,.2,0s0,0,0,0c0,.2,0,.8,0,.9s0,.1,0,.1,0,0,0-.1h0c0-.3-.2-.5-1-.5h-1s0,3.3,0,3.3Z"/>
    <path class="st0" d="M110.8,47.9c0-.3.1-.3.2-.3s0,0,.2.3c.1.3,1.3,3.5,1.8,4.7.3.7.5.8.7.9.1,0,.2,0,.3,0s0,0,0,0,0,0-.2,0-.7,0-1.2,0c-.1,0-.2,0-.2,0s0,0,0,0c0,0,0,0,0-.2l-.7-1.9s0,0,0,0h-1.7s0,0,0,0l-.5,1.4c0,.2-.1.4-.1.5s.2.2.3.2h0c0,0,0,0,0,0,0,0,0,0-.1,0-.2,0-.5,0-.6,0s-.5,0-.9,0-.1,0-.1,0,0,0,0,0,.2,0,.2,0c.4,0,.5-.3.7-.7l1.8-4.9ZM111.6,51.1s0,0,0,0l-.7-2.1c0-.1,0-.1-.1,0l-.7,2.1s0,0,0,0h1.5Z"/>
    <path class="st0" d="M115.7,50c0-1.2,0-1.4,0-1.7,0-.3,0-.4-.3-.4,0,0-.2,0-.3,0s0,0,0,0c0,0,0,0,.1,0,.4,0,.8,0,.9,0,0,0,.6,0,1.1,0,.8,0,2.2,0,3.1.9.4.4.8,1.1.8,2s-.4,1.7-.8,2.2c-.3.4-1,.9-2.4.9s-.8,0-1.1,0c-.3,0-.6,0-.7,0s-.1,0-.3,0c-.2,0-.3,0-.5,0s-.1,0-.1,0,0,0,0,0c0,0,.2,0,.2,0,.2,0,.2-.2.2-.4,0-.3,0-.9,0-1.7v-1.4ZM116.4,50.8c0,.8,0,1.6,0,1.7,0,.2,0,.5,0,.6.1.1.4.3,1.3.3s1.4-.3,1.9-.7c.4-.4.6-1.2.6-1.9s-.4-1.6-.8-2c-.7-.8-1.6-.9-2.6-.9s-.4,0-.5,0c0,0,0,0,0,.2,0,.3,0,1.1,0,1.7v1Z"/>
    <path class="st0" d="M125.9,50c0-1.2,0-1.4,0-1.7,0-.3,0-.4-.3-.4,0,0-.2,0-.3,0s0,0,0,0c0,0,0,0,.1,0,.4,0,.8,0,.9,0,0,0,.6,0,1.1,0,.8,0,2.2,0,3.1.9.4.4.8,1.1.8,2s-.4,1.7-.8,2.2c-.3.4-1,.9-2.4.9s-.8,0-1.1,0c-.3,0-.6,0-.7,0s-.1,0-.3,0c-.2,0-.3,0-.5,0s-.1,0-.1,0,0,0,0,0c0,0,.2,0,.2,0,.2,0,.2-.2.2-.4,0-.3,0-.9,0-1.7v-1.4ZM126.5,50.8c0,.8,0,1.6,0,1.7,0,.2,0,.5,0,.6.1.1.4.3,1.3.3s1.4-.3,1.9-.7c.4-.4.6-1.2.6-1.9s-.4-1.6-.8-2c-.7-.8-1.6-.9-2.6-.9s-.4,0-.5,0c0,0,0,0,0,.2,0,.3,0,1.1,0,1.7v1Z"/>
    <path class="st0" d="M133.1,50c0-1.2,0-1.4,0-1.7,0-.3,0-.4-.3-.4,0,0-.2,0-.3,0s0,0,0,0c0,0,0,0,.1,0,.2,0,.4,0,.6,0h.3c0,0,1.6,0,1.8,0,.1,0,.3,0,.3,0,0,0,0,0,.1,0s0,0,0,0,0,.1,0,.4c0,0,0,.4,0,.5,0,0,0,0,0,0,0,0,0,0,0-.1s0-.2,0-.3c0-.1-.1-.2-.6-.3-.1,0-1,0-1.1,0s0,0,0,0v2.2c0,0,0,0,0,0,.1,0,1.1,0,1.2,0,.2,0,.3,0,.4-.1,0,0,0-.1.1-.1s0,0,0,0,0,.2,0,.4c0,.2,0,.4,0,.5s0,.1,0,.1,0,0,0,0c0,0,0-.2,0-.3,0-.1-.1-.2-.4-.3-.2,0-1,0-1.1,0s0,0,0,0v.7c0,.3,0,1.2,0,1.3,0,.5.1.6.9.6s.5,0,.8,0c.2,0,.3-.2.4-.6,0,0,0-.1,0-.1s0,0,0,.1,0,.6-.1.8c0,.2-.1.2-.4.2-.6,0-1,0-1.3,0-.3,0-.5,0-.6,0s-.1,0-.3,0c-.2,0-.3,0-.5,0s-.1,0-.1,0,0,0,0,0c0,0,.2,0,.2,0,.2,0,.2-.2.2-.4,0-.3,0-.9,0-1.7v-1.4Z"/>
    <path class="st0" d="M142,47.9c0-.3.1-.3.2-.3s0,0,.2.3c.1.3,1.3,3.5,1.8,4.7.3.7.5.8.7.9.1,0,.2,0,.3,0s0,0,0,0,0,0-.2,0-.7,0-1.2,0c-.1,0-.2,0-.2,0s0,0,0,0c0,0,0,0,0-.2l-.7-1.9s0,0,0,0h-1.7s0,0,0,0l-.5,1.4c0,.2-.1.4-.1.5s.2.2.3.2h0c0,0,0,0,0,0,0,0,0,0-.1,0-.2,0-.5,0-.6,0s-.5,0-.9,0-.1,0-.1,0,0,0,0,0,.2,0,.2,0c.4,0,.5-.3.7-.7l1.8-4.9ZM142.8,51.1s0,0,0,0l-.7-2.1c0-.1,0-.1-.1,0l-.7,2.1s0,0,0,0h1.5Z"/>
    <path class="st0" d="M146.9,50c0-1.2,0-1.4,0-1.7,0-.3,0-.4-.3-.4,0,0-.2,0-.3,0s0,0,0,0c0,0,0,0,.1,0,.4,0,.8,0,.9,0,0,0,.7,0,.9,0,.5,0,1,0,1.4.3.2.1.5.5.5,1.1s-.2,1.2-.9,1.8c.6.8,1.2,1.5,1.6,2,.4.4.8.5,1,.6.1,0,.3,0,.3,0s0,0,0,0c0,0,0,0-.2,0h-.6c-.4,0-.6,0-.8-.1-.3-.2-.6-.6-1.1-1.2-.3-.4-.7-1-.9-1.2,0,0,0,0-.1,0h-1s0,0,0,0v.2c0,.8,0,1.4,0,1.7,0,.2,0,.4.3.4.1,0,.3,0,.4,0s0,0,0,0c0,0,0,0-.1,0-.4,0-.9,0-1,0s-.5,0-.7,0-.1,0-.1,0,0,0,0,0c0,0,.2,0,.2,0,.2,0,.2-.2.2-.4,0-.3,0-.9,0-1.7v-1.4ZM147.5,50.7s0,0,0,0c.1,0,.5.1.8.1s.4,0,.6-.1c.3-.2.5-.6.5-1.2,0-1-.5-1.6-1.4-1.6s-.4,0-.5,0c0,0,0,0,0,0v2.6Z"/>
    <path class="st0" d="M156.5,53.5c-.3.1-.8.3-1.2.3-2.2,0-3.1-1.7-3.1-3.1s.9-3.1,3.1-3.1,3.1,1.1,3.1,2.9-.9,2.3-1.4,2.6l1.6.8c1.7.9,2.9.9,3.3.9s1,0,1.5-.3c0,0,0,0,.1,0s0,0,0,0,0,0,0,0c-.4.2-1.3.5-2.5.5s-2-.3-3.2-1.1l-1.3-.7ZM155.5,53.5c.7,0,2.2-.4,2.2-2.7s-1.1-2.9-2.4-2.9-2.3.9-2.3,2.6,1.1,3,2.5,3Z"/>
    <path class="st0" d="M160.1,50c0-1.2,0-1.4,0-1.7,0-.3,0-.4-.3-.4,0,0-.2,0-.3,0s0,0,0,0c0,0,0,0,.1,0,.4,0,.8,0,.9,0s.5,0,.8,0,.1,0,.1,0,0,0,0,0c0,0-.1,0-.2,0-.2,0-.3.2-.3.4,0,.3,0,.5,0,1.7v1.1c0,1.1.3,1.6.6,1.9.4.4.7.4,1.2.4s.9-.2,1.2-.6c.4-.4.5-1.1.5-1.9v-1c0-1.2,0-1.4,0-1.7,0-.3,0-.4-.3-.4,0,0-.2,0-.3,0s0,0,0,0c0,0,0,0,.1,0,.4,0,.8,0,.8,0s.4,0,.7,0,.1,0,.1,0,0,0,0,0c0,0-.1,0-.2,0-.2,0-.3.2-.3.4,0,.3,0,.5,0,1.7v.8c0,.8,0,1.8-.7,2.3-.6.5-1.2.6-1.6.6s-1.1,0-1.6-.6c-.4-.4-.7-.9-.7-2.1v-1.1Z"/>
    <path class="st0" d="M168,51.4c0,.8,0,1.4,0,1.7,0,.2,0,.4.3.4.1,0,.3,0,.4,0s0,0,0,0c0,0,0,0-.1,0-.4,0-.9,0-1,0s-.5,0-.8,0-.1,0-.1,0,0,0,0,0c0,0,.2,0,.2,0,.2,0,.2-.2.2-.4,0-.3,0-.9,0-1.7v-1.4c0-1.2,0-1.4,0-1.7,0-.3,0-.4-.3-.4,0,0-.2,0-.2,0s0,0,0,0c0,0,0,0,.1,0,.3,0,.8,0,.8,0s.5,0,.8,0,.1,0,.1,0,0,0,0,0c0,0-.1,0-.2,0-.2,0-.3.2-.3.4,0,.3,0,.5,0,1.7v1.4Z"/>
    <path class="st0" d="M172.7,51.4c0,.8,0,1.4,0,1.7,0,.2,0,.4.3.4.1,0,.3,0,.4,0s0,0,0,0c0,0,0,0-.1,0-.4,0-.9,0-1,0s-.5,0-.8,0-.1,0-.1,0,0,0,0,0c0,0,.2,0,.2,0,.2,0,.2-.2.2-.4,0-.3,0-.9,0-1.7v-3.3h-1.2c-.5,0-.7,0-.8.3,0,.1-.1.2-.1.2,0,0,0,0,0,0s0,0,0,0c0,0,.2-.8.2-.8,0,0,0-.1,0-.1,0,0,.1,0,.3,0,.2,0,.5,0,.6,0h2.9c.3,0,.4,0,.6,0,.1,0,.2,0,.2,0s0,0,0,0c0,.2,0,.8,0,.9s0,.1,0,.1,0,0,0-.1h0c0-.3-.2-.5-1-.5h-1s0,3.3,0,3.3Z"/>
    <path class="st0" d="M176.8,50c0-1.2,0-1.4,0-1.7,0-.3,0-.4-.3-.4,0,0-.2,0-.3,0s0,0,0,0c0,0,0,0,.1,0,.2,0,.4,0,.6,0h.3c0,0,1.6,0,1.8,0,.1,0,.3,0,.3,0,0,0,0,0,.1,0s0,0,0,0,0,.1,0,.4c0,0,0,.4,0,.5,0,0,0,0,0,0,0,0,0,0,0-.1s0-.2,0-.3c0-.1-.1-.2-.6-.3-.1,0-1,0-1.1,0s0,0,0,0v2.2c0,0,0,0,0,0,.1,0,1.1,0,1.2,0,.2,0,.3,0,.4-.1,0,0,0-.1.1-.1s0,0,0,0,0,.2,0,.4c0,.2,0,.4,0,.5s0,.1,0,.1,0,0,0,0c0,0,0-.2,0-.3,0-.1-.1-.2-.4-.3-.2,0-1,0-1.1,0s0,0,0,0v.7c0,.3,0,1.2,0,1.3,0,.5.1.6.9.6s.5,0,.8,0c.2,0,.3-.2.4-.6,0,0,0-.1,0-.1s0,0,0,.1,0,.6-.1.8c0,.2-.1.2-.4.2-.6,0-1,0-1.3,0-.3,0-.5,0-.6,0s-.1,0-.3,0c-.2,0-.3,0-.5,0s-.1,0-.1,0,0,0,0,0c0,0,.2,0,.2,0,.2,0,.2-.2.2-.4,0-.3,0-.9,0-1.7v-1.4Z"/>
    <path class="st0" d="M181.9,52.9c-.8-.7-.9-1.6-.9-2.3s.2-1.4.9-2.1c.5-.5,1.2-.8,2.4-.8s.8,0,1.1,0c.3,0,.5.1.8.1,0,0,.1,0,.1,0s0,.2,0,.4c0,.3,0,.7,0,.8s0,.2,0,.2,0,0,0-.2c0-.3-.1-.6-.3-.8-.3-.2-.9-.4-1.6-.4-1,0-1.5.3-1.8.6-.6.5-.7,1.2-.7,2,0,1.5,1.2,2.9,2.8,2.9s1.1,0,1.4-.4c.2-.2.3-.5.3-.7,0,0,0-.1,0-.1s0,0,0,.1,0,.7-.2,1c0,.1,0,.2-.2.2-.3.1-.9.2-1.4.2-1.2,0-2-.3-2.6-.8Z"/>
    <path class="st0" d="M190.3,51.4c0,.8,0,1.4,0,1.7,0,.2,0,.4.3.4.1,0,.3,0,.4,0s0,0,0,0c0,0,0,0-.1,0-.4,0-.9,0-1,0s-.5,0-.8,0-.1,0-.1,0,0,0,0,0c0,0,.2,0,.2,0,.2,0,.2-.2.2-.4,0-.3,0-.9,0-1.7v-3.3h-1.2c-.5,0-.7,0-.8.3,0,.1-.1.2-.1.2,0,0,0,0,0,0s0,0,0,0c0,0,.2-.8.2-.8,0,0,0-.1,0-.1,0,0,.1,0,.3,0,.2,0,.5,0,.6,0h2.9c.3,0,.4,0,.6,0,.1,0,.2,0,.2,0s0,0,0,0c0,.2,0,.8,0,.9s0,.1,0,.1,0,0,0-.1h0c0-.3-.2-.5-1-.5h-1s0,3.3,0,3.3Z"/>
    <path class="st0" d="M194.2,50c0-1.2,0-1.4,0-1.7,0-.3,0-.4-.3-.4,0,0-.2,0-.3,0s0,0,0,0c0,0,0,0,.1,0,.4,0,.8,0,.9,0s.5,0,.8,0,.1,0,.1,0,0,0,0,0c0,0-.1,0-.2,0-.2,0-.3.2-.3.4,0,.3,0,.5,0,1.7v1.1c0,1.1.3,1.6.6,1.9.4.4.7.4,1.2.4s.9-.2,1.2-.6c.4-.4.5-1.1.5-1.9v-1c0-1.2,0-1.4,0-1.7,0-.3,0-.4-.3-.4,0,0-.2,0-.3,0s0,0,0,0c0,0,0,0,.1,0,.4,0,.8,0,.8,0s.4,0,.7,0,.1,0,.1,0,0,0,0,0c0,0-.1,0-.2,0-.2,0-.3.2-.3.4,0,.3,0,.5,0,1.7v.8c0,.8,0,1.8-.7,2.3-.6.5-1.2.6-1.6.6s-1.1,0-1.6-.6c-.4-.4-.7-.9-.7-2.1v-1.1Z"/>
    <path class="st0" d="M201.4,50c0-1.2,0-1.4,0-1.7,0-.3,0-.4-.3-.4,0,0-.2,0-.3,0s0,0,0,0c0,0,0,0,.1,0,.4,0,.8,0,.9,0,0,0,.7,0,.9,0,.5,0,1,0,1.4.3.2.1.5.5.5,1.1s-.2,1.2-.9,1.8c.6.8,1.2,1.5,1.6,2,.4.4.8.5,1,.6.1,0,.3,0,.3,0s0,0,0,0c0,0,0,0-.2,0h-.6c-.4,0-.6,0-.8-.1-.3-.2-.6-.6-1.1-1.2-.3-.4-.7-1-.9-1.2,0,0,0,0-.1,0h-1s0,0,0,0v.2c0,.8,0,1.4,0,1.7,0,.2,0,.4.3.4.1,0,.3,0,.4,0s0,0,0,0c0,0,0,0-.1,0-.4,0-.9,0-1,0s-.5,0-.7,0-.1,0-.1,0,0,0,0,0c0,0,.2,0,.2,0,.2,0,.2-.2.2-.4,0-.3,0-.9,0-1.7v-1.4ZM202.1,50.7s0,0,0,0c.1,0,.5.1.8.1s.4,0,.6-.1c.3-.2.5-.6.5-1.2,0-1-.5-1.6-1.4-1.6s-.4,0-.5,0c0,0,0,0,0,0v2.6Z"/>
    <path class="st0" d="M209.7,47.9c0-.3.1-.3.2-.3s0,0,.2.3c.1.3,1.3,3.5,1.8,4.7.3.7.5.8.7.9.1,0,.2,0,.3,0s0,0,0,0,0,0-.2,0-.7,0-1.2,0c-.1,0-.2,0-.2,0s0,0,0,0c0,0,0,0,0-.2l-.7-1.9s0,0,0,0h-1.7s0,0,0,0l-.5,1.4c0,.2-.1.4-.1.5s.2.2.3.2h0c0,0,0,0,0,0,0,0,0,0-.1,0-.2,0-.5,0-.6,0s-.5,0-.9,0-.1,0-.1,0,0,0,0,0,.2,0,.2,0c.4,0,.5-.3.7-.7l1.8-4.9ZM210.6,51.1s0,0,0,0l-.7-2.1c0-.1,0-.1-.1,0l-.7,2.1s0,0,0,0h1.5Z"/>
    <path class="st0" d="M213.9,53.1c0-.2.3-.4.5-.4s0,0,.1.1c.1.2.1.3.1.3s0,.2,0,.3c0,.2-.3.6-.5.8,0,0,0,0-.1,0s0,0,0,0,0,0,0-.1c.1-.2.2-.4.2-.6,0-.4-.3-.5-.3-.6Z"/>
    <path class="st0" d="M219.5,50c0-1.2,0-1.4,0-1.7,0-.3,0-.4-.3-.4,0,0-.2,0-.3,0s0,0,0,0c0,0,0,0,.1,0,.4,0,.8,0,.9,0,0,0,.6,0,1.1,0,.8,0,2.2,0,3.1.9.4.4.8,1.1.8,2s-.4,1.7-.8,2.2c-.3.4-1,.9-2.4.9s-.8,0-1.1,0c-.3,0-.6,0-.7,0s-.1,0-.3,0c-.2,0-.3,0-.5,0s-.1,0-.1,0,0,0,0,0c0,0,.2,0,.2,0,.2,0,.2-.2.2-.4,0-.3,0-.9,0-1.7v-1.4ZM220.2,50.8c0,.8,0,1.6,0,1.7,0,.2,0,.5,0,.6.1.1.4.3,1.3.3s1.4-.3,1.9-.7c.4-.4.6-1.2.6-1.9s-.4-1.6-.8-2c-.7-.8-1.6-.9-2.6-.9s-.4,0-.5,0c0,0,0,0,0,.2,0,.3,0,1.1,0,1.7v1Z"/>
    <path class="st0" d="M227.4,51.4c0,.8,0,1.4,0,1.7,0,.2,0,.4.3.4.1,0,.3,0,.4,0s0,0,0,0c0,0,0,0-.1,0-.4,0-.9,0-1,0s-.5,0-.8,0-.1,0-.1,0,0,0,0,0c0,0,.2,0,.2,0,.2,0,.2-.2.2-.4,0-.3,0-.9,0-1.7v-1.4c0-1.2,0-1.4,0-1.7,0-.3,0-.4-.3-.4,0,0-.2,0-.2,0s0,0,0,0c0,0,0,0,.1,0,.3,0,.8,0,.8,0s.5,0,.8,0,.1,0,.1,0,0,0,0,0c0,0-.1,0-.2,0-.2,0-.3.2-.3.4,0,.3,0,.5,0,1.7v1.4Z"/>
    <path class="st0" d="M229.9,53.5c-.1,0-.1,0-.1-.3,0-.4,0-.7,0-.8,0,0,0-.1,0-.1s0,0,0,0,0,.2,0,.3c.1.6.6.8,1.2.8.8,0,1.1-.5,1.1-1s-.2-.9-.9-1.4l-.4-.3c-.8-.7-1-1.2-1-1.7,0-.8.6-1.4,1.6-1.4s.5,0,.7,0c.1,0,.2,0,.3,0s0,0,0,0,0,.3,0,.8,0,.2,0,.2,0,0,0-.1c0,0,0-.3-.1-.4,0,0-.3-.4-1-.4s-1,.3-1,.9.2.7,1,1.3l.2.2c.9.7,1.1,1.2,1.1,1.8s-.1.9-.7,1.3c-.3.2-.8.3-1.2.3s-.7,0-1.1-.2Z"/>
    <path class="st0" d="M235,50c0-1.2,0-1.4,0-1.7,0-.3,0-.4-.3-.4,0,0-.2,0-.3,0s0,0,0,0c0,0,0,0,.1,0,.2,0,.4,0,.6,0h.3c0,0,1.6,0,1.8,0,.1,0,.3,0,.3,0,0,0,0,0,.1,0s0,0,0,0,0,.1,0,.4c0,0,0,.4,0,.5,0,0,0,0,0,0,0,0,0,0,0-.1s0-.2,0-.3c0-.1-.1-.2-.6-.3-.1,0-1,0-1.1,0s0,0,0,0v2.2c0,0,0,0,0,0,.1,0,1.1,0,1.2,0,.2,0,.3,0,.4-.1,0,0,0-.1.1-.1s0,0,0,0,0,.2,0,.4c0,.2,0,.4,0,.5s0,.1,0,.1,0,0,0,0c0,0,0-.2,0-.3,0-.1-.1-.2-.4-.3-.2,0-1,0-1.1,0s0,0,0,0v.7c0,.3,0,1.2,0,1.3,0,.5.1.6.9.6s.5,0,.8,0c.2,0,.3-.2.4-.6,0,0,0-.1,0-.1s0,0,0,.1,0,.6-.1.8c0,.2-.1.2-.4.2-.6,0-1,0-1.3,0-.3,0-.5,0-.6,0s-.1,0-.3,0c-.2,0-.3,0-.5,0s-.1,0-.1,0,0,0,0,0c0,0,.2,0,.2,0,.2,0,.2-.2.2-.4,0-.3,0-.9,0-1.7v-1.4Z"/>
    <path class="st0" d="M240.2,52.6c0,.6,0,.8.3.9.1,0,.3,0,.4,0s0,0,0,0c0,0,0,0-.1,0-.4,0-.8,0-.8,0s-.4,0-.8,0-.1,0-.1,0,0,0,0,0c0,0,.2,0,.3,0,.2,0,.2-.3.2-1v-4.5c0-.3,0-.4,0-.4s.2.2.3.3c.1.1,1.3,1.4,2.5,2.7.8.8,1.6,1.8,1.9,2v-4c0-.5-.1-.7-.4-.7-.1,0-.3,0-.4,0s0,0,0,0c0,0,0,0,.2,0,.4,0,.7,0,.8,0s.3,0,.7,0,.1,0,.1,0,0,0,0,0,0,0-.2,0c-.3,0-.3.2-.3.7v4.6c0,.5,0,.6,0,.6s-.2,0-.6-.5c0,0-1.2-1.2-2-2.1-.9-1-1.8-2-2-2.3v3.8ZM242.3,46.9c-.1,0-.3-.2-.5-.2s-.4.2-.5.3c0,0,0,0-.1,0s0,0,0,0c0,0,0,0,0-.1.1-.2.4-.6.7-.6s.4.1.7.2c.1,0,.3.1.5.1.3,0,.5-.2.5-.2,0,0,0,0,0,0s0,0,0,0,0,0,0,.1c0,.1-.4.5-.7.5s-.5-.1-.6-.2Z"/>
    <path class="st0" d="M249.8,47.6c1.8,0,3.1,1.1,3.1,2.9s-1.2,3.2-3.1,3.2-3-1.7-3-3.1.9-3.1,3.1-3.1ZM249.9,53.5c.7,0,2.2-.4,2.2-2.7s-1.1-2.9-2.4-2.9-2.3.9-2.3,2.6,1.1,3,2.5,3Z"/>
  </g>
  <g>
    <path class="st0" d="M76.7,63.4c0-.4,0-.6-.2-.8,0-.1-1.1-1.9-1.4-2.3-.2-.3-.4-.5-.5-.6-.1,0-.3-.1-.3-.1s0,0,0,0,0,0,.1,0c.1,0,.7,0,.8,0s.4,0,.7,0,.1,0,.1,0,0,0-.1,0c0,0-.1,0-.1.1,0,0,0,.2.1.3.1.2,1.3,2.3,1.4,2.5.1-.3,1.1-2,1.3-2.3.1-.2.1-.3.1-.4s0-.2-.1-.2c0,0-.1,0-.1,0s0,0,.1,0c.2,0,.5,0,.5,0s.6,0,.8,0,.1,0,.1,0,0,0-.1,0-.2,0-.4.1c-.2,0-.2.2-.4.4-.3.3-1.4,2.2-1.5,2.5-.1.3-.1.5-.1.8v.7c0,.1,0,.5,0,.8,0,.2,0,.4.3.4.1,0,.3,0,.4,0s0,0,0,0c0,0,0,0-.1,0-.4,0-.9,0-1,0s-.5,0-.8,0-.1,0-.1,0,0,0,0,0c0,0,.2,0,.2,0,.2,0,.2-.2.2-.4,0-.3,0-.7,0-.8v-.7Z"/>
    <path class="st0" d="M83.9,61.8c0-1.2,0-1.4,0-1.7,0-.3,0-.4-.3-.4,0,0-.2,0-.3,0s0,0,0,0c0,0,0,0,.1,0,.2,0,.4,0,.6,0h.3c0,0,1.6,0,1.8,0,.1,0,.3,0,.3,0,0,0,0,0,.1,0s0,0,0,0c0,0,0,.1,0,.4,0,0,0,.4,0,.5,0,0,0,0,0,0,0,0,0,0,0-.1s0-.2,0-.3c0-.1-.1-.2-.6-.3-.1,0-1,0-1.1,0s0,0,0,0v2.2c0,0,0,0,0,0,.1,0,1.1,0,1.2,0,.2,0,.3,0,.4-.1,0,0,0-.1.1-.1s0,0,0,0,0,.2,0,.4c0,.2,0,.4,0,.5s0,.1,0,.1,0,0,0,0c0,0,0-.2,0-.3,0-.1-.1-.2-.4-.3-.2,0-1,0-1.1,0s0,0,0,0v.7c0,.3,0,1.2,0,1.3,0,.5.1.6.9.6s.5,0,.8,0c.2,0,.3-.2.4-.6,0,0,0-.1,0-.1s0,0,0,.1,0,.6-.1.8c0,.2-.1.2-.4.2-.6,0-1,0-1.3,0-.3,0-.5,0-.6,0s-.1,0-.3,0c-.2,0-.3,0-.5,0s-.1,0-.1,0,0,0,0,0c0,0,.2,0,.2,0,.2,0,.2-.2.2-.4,0-.3,0-.9,0-1.7v-1.4Z"/>
    <path class="st0" d="M88.3,65.3c-.1,0-.1,0-.1-.3,0-.4,0-.7,0-.8,0,0,0-.1,0-.1s0,0,0,0,0,.2,0,.3c.1.6.6.8,1.2.8.8,0,1.1-.5,1.1-1s-.2-.9-.9-1.4l-.4-.3c-.8-.7-1-1.2-1-1.7,0-.8.6-1.4,1.6-1.4s.5,0,.7,0c.1,0,.2,0,.3,0s0,0,0,0,0,.3,0,.8,0,.2,0,.2,0,0,0-.1c0,0,0-.3-.1-.4,0,0-.3-.4-1-.4s-1,.3-1,.9.2.7,1,1.3l.2.2c.9.7,1.1,1.2,1.1,1.8s-.1.9-.7,1.3c-.3.2-.8.3-1.2.3s-.7,0-1.1-.2Z"/>
    <path class="st0" d="M95.3,63.1c0,.8,0,1.4,0,1.7,0,.2,0,.4.3.4.1,0,.3,0,.4,0s0,0,0,0c0,0,0,0-.1,0-.4,0-.9,0-1,0s-.5,0-.8,0-.1,0-.1,0,0,0,0,0c0,0,.2,0,.2,0,.2,0,.2-.2.2-.4,0-.3,0-.9,0-1.7v-3.3h-1.2c-.5,0-.7,0-.8.3,0,.1-.1.2-.1.2,0,0,0,0,0,0s0,0,0,0c0,0,.2-.8.2-.8,0,0,0-.1,0-.1,0,0,.1,0,.3,0,.2,0,.5,0,.6,0h2.9c.3,0,.4,0,.6,0,.1,0,.2,0,.2,0s0,0,0,0c0,.2,0,.8,0,.9s0,.1,0,.1,0,0,0-.1h0c0-.3-.2-.5-1-.5h-1s0,3.3,0,3.3Z"/>
    <path class="st0" d="M99.2,61.8c0-1.2,0-1.4,0-1.7,0-.3,0-.4-.3-.4,0,0-.2,0-.3,0s0,0,0,0c0,0,0,0,.1,0,.4,0,.8,0,.9,0s.5,0,.8,0,.1,0,.1,0,0,0,0,0c0,0-.1,0-.2,0-.2,0-.3.2-.3.4,0,.3,0,.5,0,1.7v1.1c0,1.1.3,1.6.6,1.9.4.4.7.4,1.2.4s.9-.2,1.2-.6c.4-.4.5-1.1.5-1.9v-1c0-1.2,0-1.4,0-1.7,0-.3,0-.4-.3-.4,0,0-.2,0-.3,0s0,0,0,0c0,0,0,0,.1,0,.4,0,.8,0,.8,0s.4,0,.7,0,.1,0,.1,0,0,0,0,0c0,0-.1,0-.2,0-.2,0-.3.2-.3.4,0,.3,0,.5,0,1.7v.8c0,.8,0,1.8-.7,2.3-.6.5-1.2.6-1.6.6s-1.1,0-1.6-.6c-.4-.4-.7-.9-.7-2.1v-1.1Z"/>
    <path class="st0" d="M106.5,61.8c0-1.2,0-1.4,0-1.7,0-.3,0-.4-.3-.4,0,0-.2,0-.3,0s0,0,0,0c0,0,0,0,.1,0,.4,0,.8,0,.9,0,0,0,.6,0,1.1,0,.8,0,2.2,0,3.1.9.4.4.8,1.1.8,2s-.4,1.7-.8,2.2c-.3.4-1,.9-2.4.9s-.8,0-1.1,0c-.3,0-.6,0-.7,0s-.1,0-.3,0c-.2,0-.3,0-.5,0s-.1,0-.1,0,0,0,0,0c0,0,.2,0,.2,0,.2,0,.2-.2.2-.4,0-.3,0-.9,0-1.7v-1.4ZM107.1,62.6c0,.8,0,1.6,0,1.7,0,.2,0,.5,0,.6.1.1.4.3,1.3.3s1.4-.3,1.9-.7c.4-.4.6-1.2.6-1.9s-.4-1.6-.8-2c-.7-.8-1.6-.9-2.6-.9s-.4,0-.5,0c0,0,0,0,0,.2,0,.3,0,1.1,0,1.7v1Z"/>
    <path class="st0" d="M114.4,63.1c0,.8,0,1.4,0,1.7,0,.2,0,.4.3.4.1,0,.3,0,.4,0s0,0,0,0c0,0,0,0-.1,0-.4,0-.9,0-1,0s-.5,0-.8,0-.1,0-.1,0,0,0,0,0c0,0,.2,0,.2,0,.2,0,.2-.2.2-.4,0-.3,0-.9,0-1.7v-1.4c0-1.2,0-1.4,0-1.7,0-.3,0-.4-.3-.4,0,0-.2,0-.2,0s0,0,0,0c0,0,0,0,.1,0,.3,0,.8,0,.8,0s.5,0,.8,0,.1,0,.1,0,0,0,0,0c0,0-.1,0-.2,0-.2,0-.3.2-.3.4,0,.3,0,.5,0,1.7v1.4Z"/>
    <path class="st0" d="M119.4,59.4c1.8,0,3.1,1.1,3.1,2.9s-1.2,3.2-3.1,3.2-3-1.7-3-3.1.9-3.1,3.1-3.1ZM119.6,65.2c.7,0,2.2-.4,2.2-2.7s-1.1-2.9-2.4-2.9-2.3.9-2.3,2.6,1.1,3,2.5,3Z"/>
    <path class="st0" d="M124,65.3c-.1,0-.1,0-.1-.3,0-.4,0-.7,0-.8,0,0,0-.1,0-.1s0,0,0,0,0,.2,0,.3c.1.6.6.8,1.2.8.8,0,1.1-.5,1.1-1s-.2-.9-.9-1.4l-.4-.3c-.8-.7-1-1.2-1-1.7,0-.8.6-1.4,1.6-1.4s.5,0,.7,0c.1,0,.2,0,.3,0s0,0,0,0,0,.3,0,.8,0,.2,0,.2,0,0,0-.1c0,0,0-.3-.1-.4,0,0-.3-.4-1-.4s-1,.3-1,.9.2.7,1,1.3l.2.2c.9.7,1.1,1.2,1.1,1.8s-.1.9-.7,1.3c-.3.2-.8.3-1.2.3s-.7,0-1.1-.2Z"/>
    <path class="st0" d="M131.5,61.8c0-1.2,0-1.4,0-1.7,0-.3,0-.4-.3-.4,0,0-.2,0-.3,0s0,0,0,0c0,0,0,0,.1,0,.4,0,.8,0,.9,0s.5,0,.8,0,.1,0,.1,0,0,0,0,0c0,0-.1,0-.2,0-.2,0-.3.2-.3.4,0,.3,0,.5,0,1.7v1.1c0,1.1.3,1.6.6,1.9.4.4.7.4,1.2.4s.9-.2,1.2-.6c.4-.4.5-1.1.5-1.9v-1c0-1.2,0-1.4,0-1.7,0-.3,0-.4-.3-.4,0,0-.2,0-.3,0s0,0,0,0c0,0,0,0,.1,0,.4,0,.8,0,.8,0s.4,0,.7,0,.1,0,.1,0,0,0,0,0c0,0-.1,0-.2,0-.2,0-.3.2-.3.4,0,.3,0,.5,0,1.7v.8c0,.8,0,1.8-.7,2.3-.6.5-1.2.6-1.6.6s-1.1,0-1.6-.6c-.4-.4-.7-.9-.7-2.1v-1.1Z"/>
    <path class="st0" d="M138.7,61.8c0-1.2,0-1.4,0-1.7,0-.3,0-.4-.3-.4,0,0-.2,0-.3,0s0,0,0,0c0,0,0,0,.1,0,.4,0,.8,0,.9,0,0,0,.7,0,.9,0,.5,0,1,0,1.4.3.2.1.5.5.5,1.1s-.2,1.2-.9,1.8c.6.8,1.2,1.5,1.6,2,.4.4.8.5,1,.6.1,0,.3,0,.3,0s0,0,0,0c0,0,0,0-.2,0h-.6c-.4,0-.6,0-.8-.1-.3-.2-.6-.6-1.1-1.2-.3-.4-.7-1-.9-1.2,0,0,0,0-.1,0h-1s0,0,0,0v.2c0,.8,0,1.4,0,1.7,0,.2,0,.4.3.4.1,0,.3,0,.4,0s0,0,0,0c0,0,0,0-.1,0-.4,0-.9,0-1,0s-.5,0-.7,0-.1,0-.1,0,0,0,0,0c0,0,.2,0,.2,0,.2,0,.2-.2.2-.4,0-.3,0-.9,0-1.7v-1.4ZM139.4,62.4s0,0,0,0c.1,0,.5.1.8.1s.4,0,.6-.1c.3-.2.5-.6.5-1.2,0-1-.5-1.6-1.4-1.6s-.4,0-.5,0c0,0,0,0,0,0v2.6Z"/>
    <path class="st0" d="M145.4,61.8c0-1.2,0-1.4,0-1.7,0-.3,0-.4-.3-.4,0,0-.2,0-.3,0s0,0,0,0c0,0,0,0,.1,0,.4,0,.8,0,.9,0,.2,0,.5,0,.9,0,1.3,0,1.6.8,1.6,1.2,0,.6-.4,1-.7,1.4.6.2,1.4.7,1.4,1.7s-.7,1.7-2,1.7-.3,0-.6,0c-.2,0-.4,0-.5,0s-.1,0-.3,0c-.2,0-.3,0-.5,0s-.1,0-.1,0,0,0,0,0c0,0,.2,0,.2,0,.2,0,.2-.2.2-.4,0-.3,0-.9,0-1.7v-1.4ZM146,61.9c0,0,0,0,0,0,0,0,.2,0,.5,0,.4,0,.5,0,.7-.2s.3-.5.3-.8c0-.7-.3-1.3-1.1-1.3s-.3,0-.4,0c0,0,0,0,0,0v2.1ZM146,62.8c0,.6,0,1.6,0,1.7,0,.4,0,.5.3.6.2.1.5.1.7.1.4,0,1.1-.2,1.1-1.1s-.2-1.2-.8-1.6c-.3-.2-.5-.2-.7-.2-.1,0-.5,0-.6,0s0,0,0,0v.4Z"/>
    <path class="st0" d="M152.2,59.7c0-.3.1-.3.2-.3s0,0,.2.3c.1.3,1.3,3.5,1.8,4.7.3.7.5.8.7.9.1,0,.2,0,.3,0s0,0,0,0,0,0-.2,0-.7,0-1.2,0c-.1,0-.2,0-.2,0s0,0,0,0c0,0,0,0,0-.2l-.7-1.9s0,0,0,0h-1.7s0,0,0,0l-.5,1.4c0,.2-.1.4-.1.5s.2.2.3.2h0c0,0,0,0,0,0,0,0,0,0-.1,0-.2,0-.5,0-.6,0s-.5,0-.9,0-.1,0-.1,0,0,0,0,0,.2,0,.2,0c.4,0,.5-.3.7-.7l1.8-4.9ZM153,62.8s0,0,0,0l-.7-2.1c0-.1,0-.1-.1,0l-.7,2.1s0,0,0,0h1.5Z"/>
    <path class="st0" d="M157.5,64.3c0,.6,0,.8.3.9.1,0,.3,0,.4,0s0,0,0,0c0,0,0,0-.1,0-.4,0-.8,0-.8,0s-.4,0-.8,0-.1,0-.1,0,0,0,0,0c0,0,.2,0,.3,0,.2,0,.2-.3.2-1v-4.5c0-.3,0-.4,0-.4s.2.2.3.3c.1.1,1.3,1.4,2.5,2.7.8.8,1.6,1.8,1.9,2v-4c0-.5-.1-.7-.4-.7-.1,0-.3,0-.4,0s0,0,0,0c0,0,0,0,.2,0,.4,0,.7,0,.8,0s.3,0,.7,0,.1,0,.1,0,0,0,0,0,0,0-.2,0c-.3,0-.3.2-.3.7v4.6c0,.5,0,.6,0,.6s-.2,0-.6-.5c0,0-1.2-1.2-2-2.1-.9-1-1.8-2-2-2.3v3.8Z"/>
    <path class="st0" d="M167,59.4c1.8,0,3.1,1.1,3.1,2.9s-1.2,3.2-3.1,3.2-3-1.7-3-3.1.9-3.1,3.1-3.1ZM167.2,65.2c.7,0,2.2-.4,2.2-2.7s-1.1-2.9-2.4-2.9-2.3.9-2.3,2.6,1.1,3,2.5,3Z"/>
    <path class="st0" d="M171.7,65.3c-.1,0-.1,0-.1-.3,0-.4,0-.7,0-.8,0,0,0-.1,0-.1s0,0,0,0,0,.2,0,.3c.1.6.6.8,1.2.8.8,0,1.1-.5,1.1-1s-.2-.9-.9-1.4l-.4-.3c-.8-.7-1-1.2-1-1.7,0-.8.6-1.4,1.6-1.4s.5,0,.7,0c.1,0,.2,0,.3,0s0,0,0,0,0,.3,0,.8,0,.2,0,.2,0,0,0-.1c0,0,0-.3-.1-.4,0,0-.3-.4-1-.4s-1,.3-1,.9.2.7,1,1.3l.2.2c.9.7,1.1,1.2,1.1,1.8s-.1.9-.7,1.3c-.3.2-.8.3-1.2.3s-.7,0-1.1-.2Z"/>
  </g>
  <path d="M49.7,36.7c.3,0,.5-.2.5-.5s-.2-.5-.5-.5-.5.2-.5.5.2.5.5.5"/>
  <path d="M32.5,57.8c0,0-.2,0-.2.2s0,.2.2.2.2,0,.2-.2,0-.2-.2-.2"/>
  <path d="M39.2,58.2c0,0,.2,0,.2-.2s0-.2-.2-.2-.2,0-.2.2,0,.2.2.2"/>
  <path d="M23,53l1.3.8c0,.2,0,.3,0,.5,0,1.7,1,3.1,3,3.5.2,0,.3,0,.3,0l-.3,3.2h0c0,.7.6,1.2,1.4,1.2s1.4-.5,1.4-1.2h0s-.3-3.4-.3-3.4h0v-.2c0-.3-.1-.6-.4-.9.3,0,.6,0,.9-.2.6-.3.8-1,.8-1.1v-.4c0,0,1-.5,1-.5v.2c0,.5.2,1,.6,1.4v.8h0c-.5.3-1,.6-1.2.8l-.3.2v.4c0,0,.1.1.1.1.1.4.8.8,1.4.8s.5,0,.6,0c0,0,0,0,0,0,0,.1.2.3.4.6.1.3.3.5.5.6-.3.3-.5.7-.5,1.2s.3,1,.7,1.3c-.2.2-.3.5-.3.9,0,.5.2,1,.6,1.3,0,.1,0,.3,0,.4,0,.4.2.8.6,1.1,0,.4.4.8.8.8s.8-.3.8-.8c.4-.2.6-.6.6-1.1s0-.3,0-.4c.4-.3.6-.8.6-1.3s-.1-.6-.3-.9c.3-.3.7-.7.7-1.3s-.2-.8-.5-1.2c.2-.2.4-.4.5-.6.1-.2.3-.4.4-.6h0c.2,0,.4,0,.6,0,.6,0,1.3-.3,1.4-.8,0,0,0-.1,0-.1v-.4c0,0-.2-.2-.2-.2-.2-.1-.5-.4-1-.6v-.8c.5-.3.7-.9.7-1.5v-.6h-2c-.6-.6-1.4-1-2.3-1s-1.7.4-2.3,1h-1.2l1.8-1c0,0,.1-.1,0-.2,0,0-.1-.1-.2,0l-3.3,1.9h-.3c.2-.4.2-.7.2-.7v-.4s2.4-2,2.4-2c0,0,0-.2,0-.2,0,0-.2,0-.2,0l-2.4,2h-.1c0,0,0-.2,0-.2l.8-1-.3-.3c0,0-.1,0-.2-.1l1.1-1.3c0,0,0-.2,0-.2,0,0-.2,0-.2,0l-1.1,1.3c-.7-.5-1.6-.8-2.5-.8s-1.2.1-1.7.4l-.7-.9c0,0-.2,0-.2,0,0,0,0,.2,0,.2l.7.8c-.3.2-.6.4-.9.7l-.8-.7c0,0-.2,0-.2,0,0,0,0,.2,0,.2l.8.7c-.3.4-.5.8-.6,1.2l-1.2-.7c0,0-.2,0-.2,0,0,0,0,.2,0,.2M34.1,59.3c-.2-.4-.4-.7-.6-.9-.2-.2-.5,0-1,0s-.8-.3-.9-.3c0,0,0-.2,0-.2.1-.1.6-.5,1.1-.5.5,0,1.3.3,1.9,1.5.1.2.3.4.6.5-.2,0-.5.2-.7.3-.2-.1-.4-.3-.5-.6M34.4,57.6h.4c0,.2,0,.6,0,.6,0,0-.3-.5-.4-.6M36.5,64.6c-.2.1-.4.2-.5.3-.1,0-.1.3,0,.4,0,.1.3.1.4,0,0,0,.2-.1.3-.2,0,0,0,.1,0,.2,0,.3-.2.6-.6.7v.3c0,.1-.1.2-.2.2s-.2,0-.2-.2v-.3c-.3,0-.6-.4-.6-.7s0-.3.1-.4c.3-.4.5-.6,1.1-.9,0,0,0,0,0,0,0,0,0,0,0,0,0,0,0,0,0,0,0,0,0,0,0,0,0,0,0,0,0,0,0,0,.1-.2.1-.3s0-.2-.2-.3c0,0,0,0,.1,0,.2,0,.3-.1.4-.2.1.2.2.4.2.6,0,.6-.4.9-.7,1M36.5,62.6h0c0,0-.2,0-.3.1-.3.1-.5.3-.8.4,0,0,0,0,0,0,0,0,0,0,0,0,0,0,0,0,0,0-.1.1-.2.2-.2.3,0,.2,0,.3.3.4-.2.1-.3.3-.5.4-.2-.2-.4-.4-.4-.8s.2-.6.4-.8c0,0,0,0,0,0,.3-.2.6-.4.9-.5.1,0,.2-.1.3-.2.4-.2.7-.4.7-.6s-.2-.4-.4-.6c.2,0,.4-.2.6-.3.2.2.4.5.4.9,0,.6-.5.9-1,1.2M35.6,61.4c0-.2.1-.3.3-.3s.3.1.3.3-.1.3-.3.3-.3-.1-.3-.3M40.1,58v.2c0,0-.4.3-.9.3s-.7-.2-1,0c-.2.2-.4.5-.6.9-.1.3-.4.5-.7.7-.3.2-.6.3-.9.4-.2,0-.4.2-.6.3h0c-.4.2-.7.4-.7.7s.2.4.5.6c-.2.1-.4.2-.6.4-.3-.2-.6-.5-.6-.9s.3-.8.7-1.1c.3-.2.7-.3,1-.4.3-.1.6-.3.9-.4,0,0,0,0,0,0,.2-.1.3-.2.4-.4.6-1.3,1.4-1.6,1.9-1.5.5,0,1,.4,1.1.5M35.3,57.6h1v1.5c-.2.1-.5.2-.8.3,0,0-.1,0-.2,0v-1.9ZM36.9,58.3s0-.5,0-.7h.4c-.1.1-.4.7-.4.7M32.3,54.6h1.9c.2,0,.3.2.3.3v.5c0,0,.3,0,.4,0v-.5c0-.3-.2-.6-.5-.7h-.1c0,0,.1-.1.1-.1.4-.3,1-.5,1.5-.5s1.1.2,1.6.5h.1c0,0-.1.1-.1.1-.3.1-.4.4-.4.7v.5c0,0,.3,0,.4,0v-.5c0-.2.2-.3.3-.3h1.9c0,.2,0,.4,0,.6h-1.3v.2h1.2c-.2.3-.5.6-1,.6h-.5c0,0,0,.3,0,.4h.5s.2,0,.2,0h.2v.7h-6.1v-.7h.6s.5,0,.5,0c0,0,0-.3,0-.4h-.5c-.5,0-.8-.3-1-.6h1.2v-.2h-1.3c0-.2,0-.3,0-.5h0ZM29.4,61.1c0,.3-.3.6-.8.6s-.8-.3-.8-.6l.3-2.8h1l.3,2.8ZM29.7,55.9c-.5.3-1,.1-1,.1,0,0,.2-.6.6-.9.5-.3,1-.1,1-.1,0,0-.2.6-.6.9M29.2,54.1c.4-.3,1-.3,1-.3,0,0,0,.6-.5.9s-1,.3-1,.3c0,0,0-.6.5-.9M29,52.9c.3-.4.9-.4.9-.4,0,0,0,.6-.3.9-.3.4-.9.4-.9.4,0,0,0-.6.3-.9M28,51.4c1,0,1.9.4,2.5.9h-.1c-.5-.1-1-.3-1.6-.3-1.6,0-2.6,1.1-2.6,2.4s.7,2,1.9,2.3c.8.2.9.6.9.8v.2h-.7c0-.3-.3-.4-.9-.5-1.6-.3-2.5-1.4-2.5-2.9s1.3-2.9,3.2-2.9M28,54.1c.4.3.5.9.5.9,0,0-.6,0-1-.3-.4-.3-.5-.9-.5-.9,0,0,.6,0,1,.3M27.3,52.5s.6,0,.9.4c.3.4.3.9.3.9,0,0-.6,0-.9-.4-.3-.4-.3-.9-.3-.9M27.9,55.2c.5.3.6.9.6.9,0,0-.6.2-1-.1-.5-.3-.6-.9-.6-.9,0,0,.6-.2,1.1.1"/>
  <path d="M56.7,56.7l-1.1-2.4c.6,0,1-.6,1-1.1s-.5-1.2-1.1-1.2-.8.3-1,.6c-1.5,0-2.6-.1-3.5-.6,0-.1,0-.2,0-.3,0-.8-.6-1.4-1.4-1.4s-1.4.6-1.4,1.4,0,.2,0,.3c-.8.5-2,.7-3.5.6-.2-.4-.6-.6-1-.6-.6,0-1.2.5-1.2,1.2s.4,1.1,1,1.1l-1.1,2.4h-.5v.6c0,1.1.9,2,2,2s.8-.1,1.1-.3l-1.2,1.8h0s0,0,0,0h0s-.1.9-.1.9l3.8.8c0,.2.3.4.6.5.2,0,.4,0,.6,0v1.5c.1,0,.1,0,.1,0,0,.4.3.8.8.8s.8-.3.8-.8h0s0,0,0,0v-1c0,0,2.2.7,2.2.7l1.9-4.5v-.3c.2,0,.5.1.7.1,1.1,0,2-.9,2-2v-.6h-.5ZM56.2,56.7h-2l1-2.2,1,2.2ZM53.5,58.4c-.2,0-.3,0-.5,0-.4,0-.6-.3-.9-.5-.3-.2-.5-.4-.9-.5-.1,0-.2,0-.3,0l.2-3.1h3.7l-1.1,2.4h-.5v.6c0,.4.1.8.4,1.2M44,54.4l1,2.2h-2l1-2.2ZM45.5,56.7l-1.1-2.4h3.7s.2,2.8.2,2.8c-.2,0-.4,0-.7,0-.5-.1-.8-.3-.8-.3l-.2-.2-.2.2-.5.8c0-.1,0-.2,0-.3v-.6h-.5ZM44,58.7c-.8,0-1.4-.6-1.4-1.4h2.9c0,.8-.6,1.4-1.4,1.4M48.3,62c-.2-.4-.4-.6-.7-.8-.3-.1-.7,0-1.1,0-.5,0-.9,0-1.3,0-.3,0-.5-.2-.6-.3.2-.4,2.1-3.3,2.3-3.6.2,0,.4.2.7.3.3,0,.5,0,.8,0l.3,4.2c-.1,0-.3.2-.3.2M49.8,64.3c0,.1,0,.2-.2.2s-.2,0-.2-.2l-.8-10.6h-4.8s0,0,0,0c-.3,0-.6-.3-.6-.6s.3-.6.6-.6.6.3.6.6,0,0,0,0c1.1,0,3.2.1,4.6-.9-.1-.1-.2-.3-.2-.6,0-.5.4-.8.8-.8s.8.4.8.8,0,.4-.2.6c1.5,1.1,3.6,1,4.7.9,0,0,0,0,0,0,0-.3.3-.6.6-.6s.6.3.6.6-.3.6-.6.6,0,0,0,0h-4.9l-.7,10.6ZM52.1,63s-.3,0-.5,0c-.2,0-.6-.4-1.1-.6l.3-4.4c0,0,.1,0,.2,0,.3,0,.5.2.8.4.3.2.6.4,1.1.5.3,0,.7.2.9.2-.2.6-1.7,4-1.7,4M55.2,58.7c-.8,0-1.4-.6-1.4-1.4h2.9c0,.8-.6,1.4-1.4,1.4"/>
  <path d="M25.5,41.6c0,2.2,1.7,3.2,3.1,3.7,0,.2.2.4.4.5,0,0-.2.1-.2.2-.1.2-.1.4,0,.6,0,.2.2.3.3.4-.4.2-.9.6-.9,1.2v.5h4.5v-.5c0-.7-.7-1.1-1.1-1.4,0,0-.1-.1-.2-.2h0s.8-.2.8-.9-.2-.6-.4-.7c0,0,.2-.1.2-.2.1-.2.1-.4,0-.6,0-.1,0-.2-.2-.3.1,0,.3-.2.4-.2.6-.5,1.5-1.1,1.5-2.3v-1.3h-1.4v-.4c.2,0,.4-.2.6-.2s.4.2.6.2.3-.1.3-.2c0,0-.1,0-.2,0s-.4-.3-.6-.3-.3,0-.5,0c-.1,0-.5-.5-.7-.6h2.7v9.8h2.9v-9.8h3v-2.9h-3v-3.5h-2.9v3.5h-3v2.8c-.3-.1-.6-.2-.7-.2-.5,0-.9,0-.9,0,0,0-.7-.1-1.4-.1-1.4,0-2.9,1.2-2.9,3.1M32,36.6h3v-3.5h1.7v3.5h3v1.7h-3v10h-1.7v-10h-3v-1.7ZM32,48.3h0c0,0-3.3,0-3.3,0h0c0-.4.8-.8,1.1-1.1l.9-.2c0,.4,1.3.9,1.3,1.3M29.3,44.9l1.9-.5c.2,0,.3,0,.4.2,0,.2,0,.3-.2.4l-1.9.5c-.2,0-.3,0-.4-.2,0-.2,0-.3.2-.4M31.4,46.3l-1.9.5c-.2,0-.3,0-.4-.2,0-.2,0-.3.2-.4l1.9-.5c.2,0,.3,0,.4.2,0,.2,0,.3-.2.4M33.1,41v.6c0,.9-.7,1.3-1.2,1.8-.2.2-.7.5-.7.5l-1.2.3c-.2-.3-.7-.6-1.1-.8-.6-.4-1.2-.9-1.2-1.8v-.6h5.5ZM28.3,39.2c.5,0,.8,0,1.3.1,0,0,.5,0,1,0s1.1.6,1.1.6v.3c0,0-.3.3-1.1.3s-.9-.3-1.2-.4c-.3-.1-.8-.2-1.2-.2-.7,0-1.6.6-1.6,1.7s.6,1.5,1.2,1.9c.7.5,1.1.7,1.3.9h0c-.2,0-.3.2-.4.3-1.2-.5-2.6-1.3-2.6-3.1s1.2-2.4,2.2-2.4"/>
  <path d="M57.3,42c0-1.5-1.1-2.5-2.6-2.5h-2l-1-2.5c.1-.3.2-.5.2-.8,0-1.2-1-2.2-2.2-2.2s-2.2,1-2.2,2.2,0,.6.2.8l-1,2.5h-2c-1.6,0-2.6,1-2.6,2.5s1,2.1,2.2,2.1.5,0,.7-.1l-.9,2.3-.8,1.9c-.2.5.1.6.1.6l.4.2c.3.1.5,0,.6-.3l.5-.9v.2h9.3v-.2l.5.9c.1.2.4.4.6.3l.4-.2s.3-.1.1-.6l-.8-1.9-.9-2.3c.2,0,.4.1.7.1,1.2,0,2.2-1,2.2-2.1M49.7,34.6c.9,0,1.5.7,1.5,1.5s-.7,1.5-1.5,1.5-1.5-.7-1.5-1.5.7-1.5,1.5-1.5M44.3,43.5c-.8,0-1.5-.7-1.5-1.5s.8-1.9,2-1.9h1.7l-.6,1.6c-.2-.5-.7-.9-1.3-.9s-1.2.5-1.2,1.1.4,1,1,1,.3-.1.3-.3-.1-.3-.3-.3-.4,0-.4-.4.3-.5.5-.5c.5,0,.8.4.8,1s-.5,1.1-1.1,1.1M44,48.4h-.2c0,0,2.9-7.5,4.2-10.9.2.2.4.4.7.5l.6,1-5.3,9.3ZM49.5,40.1h.5l1.1,1.9h-2.6l1.1-1.9ZM46.8,47.5h-1.1v-.8l1.1-1.9v2.6ZM52,47.5h-1.1v-4c0-.2-.2-.3-.3-.3s-.3.2-.3.3v4h-1.1v-4c0-.2-.2-.3-.3-.3s-.3.2-.3.3v4h-1.1v-3.8l.6-1.1h3.3l.6,1.1v3.8ZM53.8,47.5h-1.1v-2.7l1.1,1.9v.8ZM55.5,48.4h-.2c0,0-5.8-10.1-5.8-10.1,0,0,0,0,.1,0,.6,0,1.2-.3,1.6-.7,1.3,3.3,4.2,10.8,4.2,10.8M54,42.4c0-.6.3-1,.8-1s.5.1.5.5-.2.4-.4.4-.3.1-.3.3.1.3.3.3c.6,0,1-.4,1-1s-.5-1.1-1.2-1.1-1.1.3-1.3.9l-.6-1.5h1.7c1.2,0,2,.7,2,1.9s-.7,1.5-1.5,1.5-1.1-.5-1.1-1.1"/>
  <path d="M30.7,39.9c0,0,.2,0,.2-.2s0-.2-.2-.2-.2,0-.2.2,0,.2.2.2"/>
  <path d="M49.1,21.2c0,.2.2.5.3.6.2.1.6.3.6.3,0,0,0,0,0,0,0,0,0-.2,0-.3,0-1.1,1.1-1.8,1.1-1.8,0,0,0-.1,0-.2v-.8c-.1-.1-.1-.1-.3-.1h-.6c-.7.9-1.2,1.3-1.3,1.4.2.4.1.7.1,1M49.5,20.4c.5-.4.8-.7,1-1h0s.1,0,.1,0h0c0,.2,0,.2,0,.3h0s0,0,0,0c-.4.4-.9.8-1.1,1.6v.2s-.1-.2-.1-.2h0c0,0,0-.3,0-.3,0,0,0,0,0,0,0-.2,0-.3,0-.5h0s0,0,0,0Z"/>
  <path d="M51.5,18.5c0,.2,0,1.1,0,1.1,0,0,.4-.4.4-.7,0-.5-.1-1-.1-1,0,0-.4-.5-.6-.5s-.2.1-.3.3c0,.2-.3.5-.4.6h0c.3,0,.9,0,.9.2"/>
  <path d="M26.8,23.6l.5.6c.3-.2.6-.4.9-.6,0,0,0,0,0-.1,0-.1,0-.2,0-.3,0-.2.2-.4.4-.5.1,0,.2,0,.4,0,.2,0,.5.1.6.3.3-.1.6-.2.9-.3l-.2-.8c-.6.1-1.3.3-1.9.6-.6.3-1.2.7-1.7,1.1"/>
  <path d="M25.6,22l.5.6c.4-.3.8-.6,1.3-.9,0,0,0,0,0-.1,0-.3.2-.6.5-.8.1,0,.2,0,.4,0,.2,0,.5.1.6.3.5-.2.9-.3,1.4-.4,0,0-.2-.8-.2-.8-.8.1-1.6.4-2.3.7-.7.3-1.5.8-2.1,1.3"/>
  <path d="M26.5,20s0,0,0,0c0-.3.2-.6.5-.8.1,0,.2,0,.4,0,.2,0,.5,0,.6.3.6-.2,1.2-.4,1.8-.5,0-.3-.1-.5-.2-.6,0,0,0,0-.2,0-.2,0-.5,0-.8.1h-.1c-.2,0-.5.2-.8.2s-.8-.1-1-.4c-.1-.1-.2-.1-.2-.1,0,0,0,0,0,0q0,0,0,.1s0,0,0,.2c0,0,0,.1,0,.2,0,.7-.7,1.2-1,1.4h-.1c-.5.4-.6.6-.7.7,0,0,.2.3.4.5.5-.4,1-.8,1.6-1.1"/>
  <path d="M44.3,20.5c.4,0,1,.3,1,.3.2-.8.8-1.3,1-1.5-.2-.2-.6-.7-1-1.3-.4.2-.9.3-1.1.4,0,.2.1.7.1,1.4s0,.6,0,.7M45.2,18.5c.2.3.4.6.6.8,0,0-.4.3-.7,1.1-.2,0-.2,0-.3,0,0-.1,0-.3,0-.4,0-.4,0-.8-.1-1.2.2,0,.4-.1.5-.2"/>
  <path d="M35.9,19.3c.2.2.8.7,1,1.5.2,0,.6-.2,1-.3,0-.1,0-.4,0-.7,0-.7,0-1.2.1-1.4-.2,0-.6-.2-1.1-.4-.4.6-.8,1.1-1,1.3M37.6,18.7c0,.4-.1.8-.1,1.2s0,.3,0,.4c-.2,0-.2,0-.3,0-.3-.8-.7-1.1-.7-1.1.2-.2.4-.5.6-.8.2,0,.4.1.5.2"/>
  <path d="M36.4,23.3c1.4-.2,2.3-.7,2.6-.8-.2-.2-.6-.7-.9-1.3-.2,0-.5.1-1.1.3,0,.9-.3,1.5-.6,1.8M37.3,21.8c.2,0,.4-.1.6-.2.1.3.3.5.5.8-.3.1-.7.3-1.3.4.1-.3.2-.7.2-1"/>
  <path d="M40.3,22.5c.2.1.5.3.9.5.3-.2.7-.4.9-.5-.2-.2-.6-.5-.9-1-.3.5-.7.8-.9,1M41.1,22.2c0,.1.2.2.3.3-.1,0-.2.1-.3.2,0,0-.2,0-.3-.2,0-.1.2-.2.3-.3"/>
  <path d="M36.6,17.1c.1-.2.5-.9.5-1.5s-.2-.7-.6-.7-.7.5-.7,1,.5,1,.7,1.1M36.6,15.3c.1,0,.2.3.2.4,0,.2,0,.5-.3.9-.2-.2-.3-.4-.3-.6,0-.4.2-.7.3-.7"/>
  <path d="M45.8,23.3c-.2-.3-.6-.9-.6-1.8-.6-.2-1-.3-1.1-.3-.3.6-.7,1.1-.9,1.3.3.2,1.3.6,2.6.8M44.3,21.6c.2,0,.4.1.6.2,0,.4,0,.7.2,1-.6-.1-1-.3-1.3-.4.2-.2.4-.5.5-.8"/>
  <path d="M39.3,20.1s0,0,.1,0c0,0,0,0,0,0,0-.2.1-.3.3-.3,0,0,0,0,0,0,.2,0,.3.1.3.3,0,.3-.1.7-.6.8l-.7.2c.2.4.5.8.9,1.1.7-.5,1-1.1,1-1.7,0-.9-1-1.3-2.1-1.7,0,.4-.1.8-.1,1.2s0,.3,0,.5l.7-.2ZM40.4,20.3s0,.6-.7,1.3c-.1-.1-.2-.3-.3-.4.9-.2,1-.9,1-.9M38.9,19.1c.4.1.8.3.8.3,0,0-.4,0-.7.4,0,0-.1,0-.2,0,0,0,0,0,0,0,0-.2,0-.5,0-.7"/>
  <path d="M46.3,16c0-.5-.3-1-.7-1s-.6.5-.6.7c0,.5.4,1.2.5,1.5.2-.1.7-.5.7-1.1M45.6,15.3c.1,0,.3.3.3.7s0,.4-.3.6c-.2-.5-.3-.7-.3-.9s0-.4.2-.4"/>
  <path d="M42.5,22.1c.4-.4.7-.7.9-1.1l-.7-.2c-.4-.1-.6-.5-.6-.8,0-.2.2-.3.3-.3s0,0,0,0c.2,0,.3.2.3.3s0,0,0,0c0,0,0,0,.1,0l.7.2c0-.2,0-.3,0-.5,0-.4,0-.8-.1-1.2-1.1.4-2.1.8-2.1,1.7s.3,1.2,1,1.7M43.3,19.1c0,.2,0,.4,0,.7s0,0,0,0c0,0-.1,0-.2,0-.3-.4-.7-.4-.7-.4,0,0,.4-.2.8-.3M41.8,20.3s.1.6,1,.9c0,.1-.2.3-.3.4-.7-.7-.7-1.3-.7-1.3"/>
  <polygon points="54.6 23 54.7 21.9 55.8 21.7 54.8 21.2 54.9 20.1 54.2 20.9 53.2 20.4 53.2 20.4 53.7 21.4 52.9 22.2 54 22 54.6 23"/>
  <path d="M51.1,21.2c0,.2-.1.3-.1.6,0,.5.2.9.6,1.2,0,0,.5.4.5.4.4.2.7.5.8.7h0c0,.1.2,0,.2,0,.3,0,.7.1,1,.2l.6.2c.1,0,.2,0,.4,0,.4,0,.7-.1.9-.4.2-.1.3-.3.4-.5.1-.2.1-.5.1-.8v-.4c0-.2,0-.4,0-.7,0,0,0-.1,0-.2h0s0-.1,0-.1c.2-.4.5-.6.8-.7h.1c0-.1,0-.7,0-.7h-.2c-.3,0-.5-.2-.6-.2-.2,0-.8-.5-.8-1s0,0,0-.1c0,0,0-.1,0-.2,0-.3-.2-.3-.3-.4,0,0-.1,0-.2,0-.2,0-.3.1-.4.2-.1.2-.4.3-.6.3s-.5,0-.7-.1c0,0-.4-.1-.6-.4h-.1c0-.1-.2,0-.2,0,0,0-.2,0-.2.1h-.1c0,0,0,.3,0,.3,0,.2,0,.4,0,.6s0,.4,0,.5h0c0,.2,0,.2,0,.3-.2.3-.5.5-.7.7-.3.2-.5.4-.7.7M52.8,20c.4-.5.2-1.4.2-1.4h0c.3.2.5.3.7.4.2,0,.5.1.8.1s.7-.1.9-.4c0,0,0,0,0,0,0,0,0,.1,0,.2,0,0,0,.1,0,.2,0,.8.8,1.3,1.1,1.4,0,0,.3.1.6.2h0s-.5.2-.9.9c-.4.8,0,1.8-.3,2.1-.3.5-.7.6-.9.6s-.2,0-.3,0h-.6c-.3-.2-.7-.4-1.1-.4h0c-.2-.3-.5-.5-.9-.7,0,0-.5-.3-.5-.4-.3-.2-.6-.7-.3-1.2.3-.5.9-.7,1.4-1.4"/>
  <path d="M34.2,22.4c.3,0,.3-.3.4-.5.1-.1.5,0,.5-.4s-.3-.3-.5-.4c-.1-.1,0-.5-.4-.5s-.3.2-.3.4v.9c0,.2.1.4.3.4"/>
  <path d="M23.9,25.7c-.2-.1-.4-.2-.5,0-.2.2,0,.4.1.6,0,.2-.2.4,0,.6.2.2.4,0,.6-.1.2,0,.4.2.6,0,.1-.2,0-.3-.1-.5l-.7-.6Z"/>
  <path d="M62.7,34.7c.7-.1,1.4-.9,1.4-1.7s-.2-1.3-1.2-1.9c-.2,0-.3-.2-.4-.2.7-.3,1.1-.8,1.1-1.5s-.4-.9-.9-.9-.4,0-.6.3c-.1.1-.2.3-.2.5,0,0-.4.1-1.1.1s-.5,0-.8-.1c.1,0,.7-.5.8-.7.2-.2.7-.3.9-.7.6-1,.8-1.5,1-2.4.1-.5.2-.9.2-1.3s0-.6,0-.9v-.4c0-.3-.1-1.1-.9-1.4,0,0-1.2-1.9-1.3-1.9,0,0-.1,0-.1,0,0,0-.5.6-.5.6-.1,0-.3,0-.5.1,0,0,0,0-.1-.1,0,0,0,0-.1,0l-.2-1.4h-.2s-.8.2-.8.2c0,0-.2,0-.4-.1,0,0-.2-.1-.2-.2,0,0,0-.1,0-.2,0-.7-.3-1.2-1-1.5-.4-.2-1.2-.4-1.9.4,0,0-.2,0-.3,0-.2,0-.3-.2-.3-.2l-.5-.8-1.1.7c-.7-.6-1-.8-1.4-.6-.2,0-.3.2-.4.4,0,0,0-.2,0-.3,0-.4-.3-.8-.8-.8,0,0-.1,0-.2,0,0-.2-.4-.9-.4-1,0,0-.1,0-.2,0,0,0-1.4,1.1-1.4,1.1-.2-.8-.8-1.4-1.5-1.6v-1.3h-.7c0-1.8-1.2-3.1-2.9-3.1s-.2,0-.3,0v-1.2h1.3v-2h-1.3v-1.3h-2v1.3h-1.3v2h1.3v1.2c-.1,0-.3,0-.4,0-1.7,0-2.9,1.3-2.9,3.1h-.8v1.3c-.8.2-1.3.9-1.4,1.9l-.6-.5s-1.1-1-1.1-1h-.1c0-.1-2.4,2.7-2.4,2.7-.3-.2-.6-.3-1.1-.3-.8,0-1.5.3-1.7.3-.8-.8-1.6-.6-2-.4-.5.2-1,.6-1,1.5s0,.2,0,.2c0,0-.1.1-.3.2,0,0-.1,0-.1,0-.8.6-1.3,1.2-1.4,1.8h-3.7v3.4h2.5c-.2.1-1.1.9-1.1,2.5s1.5,2.8,1.7,2.9c-.3,0-.6.1-.9.1-.7,0-1,0-1.1-.1,0-.4-.4-.8-.9-.8s-.9.4-.9.9c0,1,.9,1.4,1.1,1.5-.1,0-1.6.7-1.6,2.1s.6,1.6,1.4,1.7c-3,4.3-4.7,9.5-4.7,15.1,0,14.5,11.9,26.2,26.4,26.1,14.5,0,26.2-11.9,26.1-26.4,0-5.5-1.8-10.6-4.7-14.8M61,26.6c0,.7-.4,1.4-1,1.9-.5.4-1,.6-1.6.7.6.3,1.4.7,2.3.7,1.4,0,1.6-.3,1.6-.5s0-.2.1-.2c0,0,.2-.1.2-.1.2,0,.3.2.3.3,0,1.2-1.6,1.2-2.3,1.2h-.3c.2,0,.4.2.4.2,1,.4,1,.4,1,.4.2.1.4.2.6.3.7.4,1,.9,1,1.5s-.5,1.3-1.1,1.3-1.1-.5-1.1-1.2.2-.3.3-.3.3.2.3.3c0,.4.2.5.3.5.2,0,.5-.2.5-.6s-.2-.6-.7-.9c-.2-.1-.3-.2-.5-.3l-1-.5s-1.1-.5-1.2-.6h0c-.7-.4-1.3-.9-2-1.5l-.3-.2h0c0,0,.5.1.6,0,.1-.2,0-.6,0-.6h.2s0,0,0,0c0,0,0,0,.1,0,.7,0,1.2-.4,1.4-.5.5-.4.7-.9.8-1.4,0,0,0-.1,0-.2,0-.6-.2-1-.4-1.2,0-.1-.1-.2-.1-.3s0-.2,0-.2c0,0,.1-.1.2-.1.1,0,.2,0,.4.2.4.4.6,1,.6,1.7s0,.2,0,.3M61.1,32.7c-.4-.4-.5-.6-.9-1l1.1.5c.2,0,.3.2.3.2-.3,0-.5.3-.5.3M47.8,15.8h.4c0,0,0-.2,0-.2h.3c0,.1,0-.2,0-.2l.2.2v-.3c0,0,.3.5.3.5.2,0,.3,0,.4.2,0,0,.4,0,.4.2,0,.3-.5.4-.5.4,0,0,.2.2.3.2.2.2.6.6.7.7,0,0,.2-.3.3-.4.1,0,.4-.4.5-.5.2,0,.4.2.6.3.3.2.5.4.5.5l1-.6s.4.9,1.4.9.3,0,.4-.1c.4-.4.8-.6,1.3-.3.5.2.7.6.6,1.2,0,.3.4.6.6.7.3.1.6.2.8.2h.3c0,0,.2,1.5.2,1.5-1.2.7-1.3.7-1.3,1.9s0,.9-.2,1.3c-.1.2-.3.5-.5.7,0,0,0,0,0,0,0,0,0,.1,0,.1l.3.6c0,0,.7-.5.7-.6,0,0,0-.8,0-.8,0,0,.2-.3.2-1.3s0-1.1.4-1.3c.2-.1.5-.4.7-.5,0,.3-.6.5-.6.7s0,.3.1.3h0c.1-.2.3-.2.3-.2.2-.1.3-.3.5-.3.2,0,.4,0,.5.1h0c0-.2-.2-.4-.2-.5,0-.1-.1-.3-.4-.2v-.2c.2-.2.4-.2.4-.2.1,0,.2,0,.3,0l.3-.4v.3c0,0,.3,0,.3,0v.2s.2,0,.2,0v.2c0,0,.2.1.2.1h-.4c0,.4,0,.6-.4.9,0,0,0,0,0,.2,0,.4-.3.5-.4.5v.4s.2.1.3.1c.8,0,.8-1.4,1.3-1.4.5,0,.6.5.6.9,0,.6.3,1.1,0,2.3-.2.7-.4,1.2-.7,1.9,0-.2,0-.4.1-.5v-.3c0-.7-.2-1.4-.7-1.9-.2-.3-.5-.3-.6-.3-.2,0-.4,0-.5.2-.1.1-.2.3-.2.5s0,.4.2.6c.2.2.3.6.3,1v.2c0,.4-.2.8-.6,1.1,0,0,0,0,0,0,0-.2.1-.4.2-.6,0,0,0-.3,0-.4,0-.1.1-.4.2-.6-.2,0-.5.5-.8.5,0,0-.1,0-.2,0,0,.1,0,.5,0,.5,0,.1-.2,1.1-.2,1.1,0,0,0,0,0,0h-.3c0,0,0,0,0,0,0,0-.2-.2-.3-.2l.2-.9-.3.6s0-.1-.2-.3c0,0-.1,0-.2,0l-.5.9c0,0,.3.3.3.6h-.1s-.2-.3-.4-.3c-.1,0-.3.2-.4.3h-.1c0,0,0-.2.1-.4,0,0-.1,0-.2,0-.1,0-.4.1-.4.1h0c0,0,.2-.3.4-.3,0,0,0,0-.1,0,0,0-.2,0-.2,0h0c0,0,.1-.2.2-.2.2,0,.3.1.6.1l.5-.9c0-.4.2-.4.2-.7,0-.1,0-.2,0-.2,0,0-.6.2-.7.2-.1,0,0-.3-.1-.4l-.3-.5c-.2,0-.4.1-.6,0h0c0,0,0,0,0,0-.3,0-.7,0-1,0h0s-.8-.2-.8-.2c-.2,0-.4-.1-.6-.1-.2,0-.6.3-.7.4,0,0-.2.1-.3,0,0,0-.1-.1-.1-.2,0-.1,0-.4,0-.7-.1-.1-.3-.3-.5-.4l-.7-.5h0c-.4-.3-.6-.7-.7-1.1h0s-.1-.1-.1-.1h-.4c0,0-.4-.5-.7-.6h-.1c0-.2,0-.4,0-.5,0-.1-.1-.2-.2-.2,0,0-.3.4-.4.6-.2.2-.4.5-.5.6,0,.3.1.7.1,1,0,0,0,.1.2.2,0,0,.3.4.3.4,0,0,0,.1,0,.2-.1,0-.3,0-.4-.1h-.1c0,0,0-.3,0-.3l-.2-.2c0-.3,0-.6-.2-.9,0-.2-.2-.4-.2-.4h0c.1-.3.5-.8.4-1,0,0-.1-.2-.2-.2,0,0-.2-.2-.2-.3-.2,0-.4,0-.5-.2,0,0,0-.2,0-.2,0-.1.2-.2.2,0,0,0,0,0,0,0,0,0,.2,0,.3,0,0-.2,0-.4.1-.6.2-.3.5-.5.5-.5,0,0,.2-.2.4-.4.1-.1.2-.2.4-.3.4-.3.7-.7.7-.8v-.4c-.3-.2-.6-.5-.6-.7,0,0,0-.1,0-.1-.2,0-.7-.1-.8-.4h.5c0,0-.3-.3-.3-.3ZM54.5,26.1c-.3-.4.4-.6.6-.4.4.5.8,1,1.3,1.6l.2.2h-.2c-.2,0-.4.1-.4.1h0s0,0,0,0c-.5-.5-.9-1.1-1.2-1.5M55.3,27.6c-1-.6-2-1.2-3-1.7.3,0,.6,0,.8-.2.2-.1.2-.2.3-.2.1,0,.2,0,.3,0,.2.2.4.5.6.8.3.4.6.8,1,1.2M55.7,25.9c.2,0,.3,0,.4,0,0,0,0,0,0,.1,0,.2,0,.4.2.6h.4c0,.1,0,.3-.2.4-.4-.4-.7-.8-.9-1.1M48.5,24.1c0,0,0-.1,0-.2s0-.1,0-.2h0s0,0,0,0h0c0-.1,1.5-.1,1.9-.1.4,0,.5.7.1.7h-2.1s0-.1,0-.1ZM48.3,23.2s0-.1-.1-.2c0-.2,0-.4,0-.6,0,0,0,0,0-.2.1-.2.3-.4.3-.4v.2s.2.2.2.2c0,0,0,0,.1,0,0,0,0,0,.1,0l.5.5s.3,0,.4,0c0,0,0,0,0,0,0,.1.1.2.2.3-.5,0-1.1,0-1.7,0M50.5,24.6c.3,0,.8,0,1,0,0,0,.2.1.3.2,0,0,0,.3,0,.5,0,.2.1.5.4.6-1-.5-2.1-.9-3.2-1.2.6,0,1.1,0,1.6,0M46.8,22.8c-.4-.4-.5-1-.5-1.2h0c0-.2,0-.4,0-.5.1,0,.3.1.4.1,0,0,.2.2.2.2-.1.2-.3.5-.3.5v.4c0,0,0,.3.2.5M48.1,17c.1.3.3.5.5.7,0,0,0,0,0,0,0,.1-.5.5-.8.7-.3,0-.6,0-.7.1-.2-.2-.4-.4-.6-.8.8-.6.9-1.2.9-1.2,0,0,.3.3.7.4M39.8,10.1c.4,0,.7,0,1,.2v-2.6h-1.3v-.8h1.3v-1.3h.9v1.3h1.3v.8h-1.3v2.5c.2,0,.5-.2.9-.2,1.3,0,2.2,1,2.2,2.4s0,0,0,0h-.8c0-.8-.5-1.6-1.5-1.6s-1,.4-1.2.7c-.2-.3-.6-.7-1.2-.7-1.1,0-1.5.8-1.5,1.6h-.8s0,0,0,0c0-1.4.9-2.4,2.2-2.4M36.6,13h8.9v.7h-8.9v-.7ZM41.1,17.1c-1,0-2.4-1.4-3.1-2.9h.9c.6,1.1,1.5,2.1,2.2,2.1s1.6-1,2.2-2.1h.9c-.7,1.5-2.1,2.9-3.1,2.9M44.5,17.2c0,0-.1,0-.2,0-.1-.4-.3-.7-.6-1.1.1-.1.2-.2.3-.4,0,.4.2.9.4,1.4M42.7,17.2c.1.2.2.4.3.6-.7.3-1.4.6-1.8,1.1-.5-.5-1.2-.8-1.8-1.1,0-.2.2-.4.3-.6.5.4,1,.6,1.6.6s1-.2,1.5-.6M38.5,16.2c-.2.4-.4.7-.6,1.1,0,0-.1,0-.2,0,.3-.5.4-1,.4-1.4,0,.1.2.3.3.4M36.6,14.2c.7,0,1.3.7,1.3,1.4s-.4,1.5-.6,1.8c.3.1.6.2.9.3.1-.3.3-.9.7-1.5h0c0-.1,0,0,0,0,.1.1.2.2.3.3h0c0,0,0,.1,0,.1-.4.6-.5,1-.6,1.2.9.3,1.8.7,2.3,1.4.5-.7,1.4-1.1,2.3-1.4-.1-.4-.3-.8-.6-1.2h0c0,0,0-.1,0-.1.1,0,.2-.2.3-.3h0c0,0,0,0,0,0,.4.6.6,1.2.7,1.5.3-.1.7-.3.9-.3-.2-.3-.6-1.1-.6-1.8s.5-1.4,1.3-1.4,1.4.8,1.4,1.7-.3,1.3-1.1,1.7c.4.6.9,1.1,1,1.3,0,0,.7-.2.7-.2l-.4.3c-.5.4-.6.7-.6.7h0c-.3,0-.5.3-.5.6s0,0,0,.1h0s0,0,0,0c-.1.3-.2.6-.2,1,0,.1,0,1.3,1,1.8h0s0,.3,0,.3c0,0,.2.2.2.2v.3c.1,0,.3.1.3.1h-.3c-2.9-.3-4.3-1.1-4.6-1.2-.3.2-1.2.8-1.5.8s-1.2-.6-1.5-.8c-.4.2-2.6,1.3-5.9,1.3s-1.2,0-1.7,0c-.2,0-.2-.7,0-.7.2,0,1.4,0,1.9,0h.2c1.6,0,2.2-1,2.2-2s-.2-1.1-.6-1.5c-.4-.4-1-.6-1.3-.6-1.3,0-2.1.9-2.1.9,0,0-.2.1-.3.1s-.2,0-.2,0c0,0-.1-.1-.1-.2,0,0,0-.2,0-.3,0,0,.9-1.1,2.6-1.1s.8.1.9.2c.4-.5.8-1,1-1.3-.3-.2-1.1-.7-1.1-1.7s.6-1.7,1.4-1.7M30,25.2c0,.1,0,.2-.1.2,0,0-.2,0-.3,0,0,0-.3-.4-.7-.4.3-.2.9-.5,1.3-.6-.2.3-.1.8-.1.8M30,25.9c-1.1.5-2.1,1.1-3.1,1.7.4-.5.7-.9,1-1.2.2-.3.6-.8.7-.9.2,0,.5.2.5.3.2.2.5.3.8.2M30.5,25.3s0-.2,0-.2c0-.2,0-.4.2-.5.2,0,.8,0,1.2,0,.4,0,1,0,1.6,0-1.1.3-2.2.8-3.2,1.3.2-.1.4-.4.4-.6M31.4,21.1h0s1.7,0,1.7,0c0,0,0,0,0-.1,0-.6.5-1,1-1s.9.6,1,.7c.1,0,.7.3.7,1s-.6.9-.7,1c0,.1-.3.7-1,.7s-1-.5-1-1,0,0,0-.1h-1.4s0,0,0,0c-.3-.3-.4-.6-.2-.9M31.4,19.9l-.2-.7c.4-.5.7-.9.9-1.1,0,0,.4.4.7.6-.8.3-1.4.9-1.4,1.1M33.1,23.2c-.4,0-.8,0-1.1,0,0-.2,0-.3,0-.6h.8c0,.2.2.4.4.6,0,0,0,0,0,0M34.9,16.7s.3.7.9,1.1c-.2.3-.4.6-.6.8-.3,0-.5-.1-.8-.1-.4,0-.7,0-1,.1l1.5-1.9ZM32.9,15l.7.6-.2.2.4.4.2-.2.5.4-.7.8-.5-.4.2-.2-.4-.4-.5.6.4.4.2-.2.5.4-.7.8-.5-.4.2-.2-.4-.4-1.2,1.4s0,0,0,0c-.3-.2-.4-.4-.4-.9l2.3-2.7ZM24.7,19.2h.1c.2-.3.6-.5.6-.8,0-.4,0-.9.6-1.2.7-.3,1.1,0,1.3.3,0,0,.2.1.3.1.4,0,1-.3,1.8-.3s.8.1.9.4c.6,1.8,1.3,5.9,1.3,5.9,0,0-1.2,0-2.3.6-1,.5-2,1.4-2,1.4,0,0-2.7-3.2-3.7-4.8-.3-.4.1-1,1-1.7M25.8,25.8c0,0,.3-.3.5-.6.2.2.3.3.4.5-.2.3-.4.6-.7.9h0c0-.3-.1-.6-.2-.7M25.2,25.9c.2.2.4.5.4.7,0,.7-.5,1.1-1,1.1s-.4,0-.4,0c0,0-.3.1-.5.1-.6,0-1-.5-1-1s0-.3,0-.4c0,0-.1-.3-.1-.4,0-.3,0-.6.2-.8.2-.2.4-.3.7-.4,0,0,0,0,0,0,.2,0,.5,0,.7.2,0,0,0,0,0,0l1-1.2s.3,0,.5.3c.2.2.2.5.2.5l-.9,1.1s0,0,0,0M24.6,23.1c0,0-.2,0-.3,0,0,0-.7,0-1.5.4v-.9h1.4c0,0,.3.3.5.6M21.2,23.2v-.6h.3v-.6h-.8v.6h.3v.6h-1.1v-.6h.3v-.6h-.3v-.9h3.5c.5.3.5.5.5.9h-1.9v.6h.3v.6h-1.1ZM18.7,33c0-.6.3-1.1,1-1.5.2-.2.4-.2.6-.3l1-.4.4-.2h-.2c-1.6,0-2.3-.4-2.3-1.2s.1-.3.4-.3.3.2.3.3,0,.2,0,.3c.3.3,1.2.3,1.5.3.9,0,1.7-.4,2.3-.7-.5,0-1.1-.3-1.6-.7-.6-.5-1-1.1-1-1.9,0-.7.2-1.4.6-1.9,1.1-1.3,2.5-1.3,2.5-1.3.2,0,.3.2.3.3s-.2.3-.3.3-1.1,0-2,1c-.2.3-.5.8-.4,1.4,0,.5.3,1,.8,1.4.1.1.7.5,1.3.5s1.1-.3,1.5-.8h0c.5-.6,1.2-1.5,1.4-1.7.2-.2.7.2.5.5-.5.7-1.2,1.6-2.3,2.6q-.1.1-.1.1c-.7.6-1.4,1.2-2.2,1.7-1,.5-1.2.6-1.3.7h0s-1,.5-1,.5c-.2.1-.4.1-.5.3-.5.3-.7.6-.7.9,0,.3.2.5.4.5.3,0,.4-.3.4-.5s0-.2.1-.2c0,0,.1,0,.2,0,.2,0,.3.2.3.3,0,.8-.6,1.2-1.1,1.2s-1.1-.5-1.1-1.3M22.3,26.5s0,0,0,0c0,0,0,0,0,0h0ZM21.9,31.8c-.4.4-.4.4-.7.8,0,0,0,0,0-.1-.1-.1-.3-.2-.4-.2s0,0,.2-.1c.2,0,1-.4,1-.4M41.3,75.3c-14.1,0-25.7-11.3-25.7-25.4,0-5.7,1.8-10.9,4.9-15.1.2,0,.4-.2.5-.3.2-.2.4-.5.5-1,4.7-5.6,11.7-9.3,19.6-9.3,8,0,15.1,3.6,19.9,9.3.1,1,.8,1.2,1,1.3,3,4.2,4.8,9.3,4.9,14.8,0,14.1-11.3,25.7-25.4,25.7"/>
  <path d="M60.6,49.7c0-10.7-8.7-19.4-19.4-19.4s-19.4,8.7-19.4,19.4,8.7,19.4,19.4,19.4,19.4-8.7,19.4-19.4M40.9,68.4c-10.1-.2-18.3-8.4-18.4-18.5h18.4v18.5ZM40.9,49.3h-18.4c.2-10.1,8.4-18.2,18.4-18.4v18.4ZM41.5,30.9c10.1.2,18.2,8.3,18.4,18.4h-18.4v-18.4ZM41.5,68.4v-18.5h18.4c-.1,10.1-8.3,18.3-18.4,18.5"/>
  <path d="M25.7,63.7c0,0-.2-.3-.4-.5,0,0,0,0-.1,0,0,0,0,0,0,.1.2.3.2.3-.3.7l-1.6,1.4s0,0-.2,0c-.3-.3-.2-.7.1-1,.3-.3.7-.2.9,0,0,0,.1,0,.1,0,0,0,0-.1,0-.2-.4-.5-1-.5-1.5-.1-.4.3-.3.9,0,1.3.1.1.3.3.4.5,0,0,.2.3.4.5,0,0,0,0,.1,0,0,0,0,0,0-.1-.2-.2-.2-.3,0-.5l1.5-1.3c.4-.3.5-.3.6-.2,0,0,0,0,0,0,0,0,0,0,0-.1-.1-.1-.3-.3-.4-.4"/>
  <path d="M23.3,60.5c-.6-.9-1.6-1.1-2.4-.6-.8.5-1,1.4-.4,2.3.7,1.1,1.7,1,2.3.6.6-.4,1.1-1.3.5-2.3M20.8,62.2c-.4-.6-.1-1.3.6-1.8,1-.6,1.5-.1,1.6.1.4.7,0,1.4-.6,1.9-.9.5-1.4.2-1.6-.2"/>
  <path d="M21.9,58.4c0,0,0,0,0,0,0,0,0,0,0-.1,0-.2-.2-.4-.2-.4,0,0,0-.2-.2-.5,0,0,0-.1-.1,0,0,0,0,0,0,0,0,.2,0,.4-.3.5l-1.6.6,1.4-2.9c0,0,0-.1,0-.2,0,0,0,0-.2,0l-2.5.9c-.2,0-.3,0-.4-.1,0,0,0,0,0,0,0,0,0,0,0,.1,0,.2.1.3.2.4,0,0,0,.3.2.5,0,0,0,.1.1.1,0,0,0,0,0-.1,0-.3,0-.3.2-.5l1.7-.7-1.4,2.8c0,0,0,.2,0,.2,0,0,0,0,.2,0l2.4-.8c.4-.1.4,0,.5.1"/>
  <path d="M18.2,55.1s0,0,0,0c0,0,0,0,0,0-.2,0-.3,0-.3-.4v-.6c-.1,0,1.9-.4,1.9-.4.6-.1.7,0,.7.1,0,0,0,0,0,0,0,0,0,0,0-.1,0-.2,0-.4-.1-.5,0-.1,0-.4-.1-.6,0,0,0-.1,0,0,0,0,0,0,0,0,0,.3,0,.4-.7.5l-2,.4v-.5c-.1-.4,0-.5.1-.5,0,0,0,0,0,0,0,0,0,0,0,0-.1,0-.4,0-.5,0,0,0-.1,0-.1,0,0,0,0,.1.1.4l.3,1.9c0,.2,0,.3,0,.4,0,0,0,0,.1,0,0,0,.4,0,.5,0"/>
  <path d="M17.3,51.5c0-.2,0-.3.2-.3.1,0,.2,0,.9,0h.7c.4,0,.7,0,.9,0,.2,0,.2,0,.2.2,0,0,0,0,0,0,0,0,0,0,0-.1,0-.2,0-.4,0-.5,0-.1,0-.4,0-.7,0,0,0-.1,0-.1,0,0,0,0,0,0,0,.2,0,.4-.2.4-.2,0-.5,0-.9,0h-.7c-.6,0-.7,0-.9,0-.2,0-.2,0-.2-.3,0,0,0,0,0,0,0,0,0,0,0,.1,0,.2,0,.4,0,.5,0,.1,0,.4,0,.5,0,0,0,.1,0,.1,0,0,0,0,0,0"/>
  <path d="M17.1,49s0,0,0,0c0-.3,0-.3.5-.3h1.9c.6.2.6.2.6.4,0,0,0,0,0,0,0,0,0,0,0-.1,0-.2,0-.4,0-.5,0-.1,0-.4,0-.6,0,0,0-.1,0-.1,0,0,0,0,0,0,0,.3,0,.4-.6.3h-.7s0,0,0,0c0,0,0-.5,0-.6,0-.2.1-.2.3-.2,0,0,0,0,0,0,0,0,0,0,0,0-.3,0-.5,0-.6,0,0,0,0,0,0,0,0,0,.1,0,.1.3v.7s0,0,0,0h-1.2c0,0,0,0,0-.1v-.6c0-.2.1-.2.2-.2,0,0,.1,0,.2,0,0,0,0,0,0,0,0,0,0,0,0,0,0,0-.3,0-.3,0,0,0-.1,0-.2,0,0,0,0,0,0,0,0,0,0,0,0,0,0,0,0,0,0,0h0c0,0,0,.1,0,.2,0,0,0,.9,0,1.1,0,.1,0,.4,0,.6,0,0,0,.1,0,.1"/>
  <path d="M17.5,45.8c0-.2.1-.2.3-.2.1,0,.2,0,.9.2h.7c.4.2.7.3.9.3.2,0,.2.1.2.3,0,0,0,0,0,0,0,0,0,0,0,0,0-.2,0-.4,0-.5,0-.1,0-.4.1-.6,0,0,0-.1,0-.1,0,0,0,0,0,0,0,.2,0,.3-.3.3-.2,0-.5,0-.9-.2h-.7c-.6-.3-.7-.3-.9-.3-.2,0-.2-.1-.2-.3,0,0,0,0,0,0,0,0,0,0,0,0,0,.2,0,.4,0,.5,0,.1,0,.4-.1.5,0,0,0,.1,0,.1,0,0,0,0,0,0"/>
  <path d="M19.3,43.8c1.1.4,1.9-.3,2.3-1.3,0-.3.2-.6.2-.8,0,0,0-.1,0-.2-.1,0-.4-.3-.5-.3,0,0,0,0,0,0,0,0,0,0,0,.1.3.2.4.4.2,1-.2.7-.9,1.1-1.8.8-.7-.3-1.1-.8-.9-1.5.2-.5.5-.9.9-.7,0,0,.1,0,.1,0,0,0,0,0,0-.1,0,0-.3-.1-.4-.2-.1,0-.2,0-.2,0,0,0,0,0,0,0,0,.2-.3.5-.4.9-.3.9,0,1.9.9,2.3"/>
  <path d="M19.5,39.4c.1-.2.2-.2.3-.1.1,0,.2.1.8.4l.7.3c.4.2.7.3.8.4.2.1.2.2,0,.3,0,0,0,0,0,.1,0,0,0,0,.1,0,0-.2.2-.4.2-.5,0-.1.2-.3.3-.6,0,0,0-.1,0-.1,0,0,0,0,0,0-.1.2-.2.3-.3.2-.2,0-.5-.2-.8-.4l-.7-.3c-.6-.3-.7-.3-.8-.4-.2,0-.2-.2,0-.3,0,0,0,0,0-.1,0,0,0,0,0,0,0,.1-.2.4-.2.5,0,.1-.2.3-.3.5,0,0,0,.1,0,.1,0,0,0,0,0,0"/>
  <path d="M22.9,38.5c.2.3.2.4,0,.6,0,0,0,0,0,0,0,0,0,0,.1,0,.1-.2.2-.4.3-.4,0-.1.2-.3.3-.4,0,0,0,0,0-.1,0,0,0,0-.1,0,0,.1-.1.1-.2,0,0,0-.1-.1-.2-.2l-.2-.4s0,0,0,0l.6-.8s0,0,0,0l.7.2s0,.2,0,.2c0,0,0,0,0,0,0,0,0,0,.1,0,0,0,.2-.3.3-.4,0,0,.2-.2.2-.3.1-.1.1-.2,0-.2,0,0,0,0,0,0-.1.2-.4.1-.6,0-.7-.1-2.4-.5-2.7-.6-.1,0-.2,0-.2,0,0,0,0,0,0,.2l1.5,2.4ZM23.2,36.9l-.5.7-.7-1s0,0,0,0h0s1.2.3,1.2.3Z"/>
  <path d="M24.5,32.3c.2-.2.3-.2.6.2l.8.9c.6.7,1.2.8,1.9.2.7-.6.6-1.3,0-2l-.7-.8c-.3-.3-.3-.4-.1-.5,0,0,0,0,0-.1s0,0-.1,0c-.1.1-.2.2-.4.3,0,0-.2.2-.4.3,0,0,0,0,0,.1,0,0,0,0,.1,0,.2-.2.3-.1.6.2l.7.9c.5.6.6,1.1.2,1.5-.5.4-1,.1-1.4-.4l-.8-.9c-.3-.3-.3-.4,0-.5,0,0,0,0,0-.1,0,0,0,0-.1,0-.1,0-.3.2-.4.3-.2.1-.3.2-.5.4,0,0,0,0,0,.1,0,0,0,0,.1,0"/>
  <path d="M29.6,31.5c.2.4.1.4,0,.5,0,0,0,0,0,0,0,0,0,0,.1,0,.2-.1.4-.2.4-.2,0,0,.2-.1.5-.2,0,0,0,0,0-.1,0,0,0,0,0,0-.2.1-.3.1-.6-.2l-.8-1.5,3,.9c0,0,.1,0,.2,0,0,0,0,0,0-.2l-1.2-2.3c-.1-.2-.1-.3,0-.4,0,0,0,0,0,0,0,0,0,0-.1,0-.2,0-.3.2-.4.2,0,0-.3.1-.5.2,0,0-.1,0,0,.1,0,0,0,0,.1,0,.2-.1.3-.1.5.2l.9,1.6-3-.9c0,0-.2,0-.2,0,0,0,0,0,0,.2l1.2,2.3Z"/>
  <path d="M32.4,27.4c.2,0,.3,0,.3.1,0,.1,0,.2.3.8l.2.7c.1.4.2.7.3.9,0,.2,0,.2-.2.3,0,0,0,0,0,0,0,0,0,0,.1,0,.2,0,.4-.2.5-.2.1,0,.4-.1.6-.2,0,0,0,0,0,0,0,0,0,0-.1,0-.2,0-.3,0-.4,0,0-.2-.2-.5-.3-.8l-.2-.7c-.2-.6-.3-.7-.3-.8,0-.2,0-.2.2-.3,0,0,0,0,0,0,0,0,0,0-.1,0-.2,0-.4.2-.5.2-.1,0-.4.1-.5.2,0,0-.1,0,0,0,0,0,0,0,.1,0"/>
  <path d="M34.4,26.6c.3,0,.4,0,.5.2l1.6,2.3c0,.1.1.2.2.1,0,0,0,0,.1-.2l.6-2.7c0-.3.1-.4.3-.5,0,0,0,0,0,0,0,0,0,0-.1,0-.1,0-.2,0-.4,0-.1,0-.2,0-.4,0,0,0-.1,0-.1,0,0,0,0,0,0,0,.1,0,.2,0,.2,0,0,0,0,0,0,.1l-.4,2.2-1.1-1.7c0-.1-.1-.2-.2-.3,0,0,0-.1.2-.1,0,0,0,0,0,0,0,0,0,0-.1,0-.2,0-.4.1-.5.1-.1,0-.4,0-.6.1,0,0-.1,0-.1,0,0,0,0,0,0,0"/>
  <path d="M38.6,25.8c.2,0,.3,0,.3.2,0,.1,0,.2,0,.9v.7c0,.2,0,.4,0,.6,0,.5,0,.5-.2.5,0,0,0,0,0,0,0,0,0,0,.1,0,.2,0,.4,0,.5,0,.4,0,.9,0,1.3,0,0,0,.1,0,.1-.1,0,0,0-.4,0-.5,0,0,0-.1,0,0,0,0,0,0,0,0,0,.2,0,.2-.2.3-.1,0-.4,0-.5,0-.3,0-.3,0-.4-.3,0-.1,0-.5,0-1,0,0,0,0,0,0,0,0,.5,0,.6,0,.2,0,.2.1.3.3,0,0,0,0,0,0,0,0,0,0,0-.1,0-.2,0-.5,0-.6,0,0,0,0,0,0,0,0,0,0,0,0,0,0-.1,0-.4.1-.2,0-.4,0-.4,0,0,0,0,0,0,0v-1.1c0,0,0,0,0,0,.8,0,.8,0,.9.2,0,0,0,0,0,0,0,0,0,0,0,0,0-.3,0-.5,0-.5,0,0,0,0,0,0,0,0-.1,0-.2,0,0,0-.9,0-1,0-.1,0-.4,0-.6,0,0,0-.1,0-.1,0,0,0,0,0,0,0"/>
  <path d="M41.8,28.8c.2,0,.4,0,.5,0,0,0,.4,0,.6,0,0,0,.1,0,.1,0,0,0,0,0,0,0-.3,0-.4-.1-.3-.6v-.6q0,0,0,0h.4s0,0,0,0c.1.2.2.4.4.6.3.5.5.7,1,.8h.4c0,0,.1,0,.1,0,0,0,0,0,0,0-.3,0-.6-.3-1.3-1.5.4-.3.6-.6.6-.9,0-.6-.5-.8-1-.9-.1,0-.4,0-.6,0,0,0-.3,0-.6,0,0,0-.1,0-.1,0,0,0,0,0,0,0,.3,0,.3,0,.3.5l-.2,2c0,.4,0,.5-.3.5,0,0,0,0,0,0,0,0,0,0,0,0M42.9,26s0,0,.2,0c.4,0,.6.3.6.8,0,.4-.2.7-.6.6-.2,0-.3,0-.3-.1v-1.2Z"/>
  <path d="M46,29.4c.5.1,1.1,0,1.3-.6.2-1-1-1.4-.8-2,0-.2.3-.4.6-.3.3,0,.5.4.4.6,0,0,0,0,0,.1,0,0,0,0,0-.1,0-.3.1-.4.1-.5,0,0,0,0,0,0,0,0-.3-.1-.5-.2-.6-.1-1,0-1.2.6-.2.9,1,1.3.8,2,0,.2-.3.4-.6.3-.4-.1-.5-.5-.5-.7,0,0,0,0,0-.1,0,0,0,0,0,.1l-.2.6c0,.1.2.3.6.4"/>
  <path d="M47.9,29.9c.2,0,.4.1.5.2.1,0,.3.1.6.2,0,0,.1,0,.1,0,0,0,0,0,0,0-.2,0-.3-.1-.3-.3,0-.2.2-.5.3-.9l.3-.7c.2-.6.3-.7.3-.8,0-.2.1-.2.3-.1,0,0,0,0,.1,0,0,0,0,0,0,0-.2,0-.4-.1-.5-.2-.1,0-.4-.1-.5-.2,0,0-.1,0-.1,0,0,0,0,0,0,0,.2,0,.2.2.2.3,0,.1,0,.2-.3.8l-.3.7c-.1.4-.3.7-.3.8,0,.2-.1.2-.3.1,0,0,0,0,0,0,0,0,0,0,0,.1"/>
  <path d="M49.9,30.6s0,0,0,.1c.1,0,.4.2.5.2.2.1.5.3.8.5.9.5,1.9.4,2.5-.5.5-1,0-1.8-1.1-2.4-.2-.1-.5-.2-.6-.3-.1,0-.3-.2-.5-.3,0,0-.1,0-.1,0,0,0,0,0,0,0,.2.1.3.2.2.4,0,.1-.1.2-.4.8l-.4.6c-.5.9-.6.9-.7.9,0,0-.1,0-.2,0M51.1,30.3l.9-1.7c0-.1,0-.1.3,0,.8.4,1.1,1.2.7,2-.5.8-1,.9-1.8.5-.5-.3-.5-.4-.2-.8"/>
  <path d="M53.3,32.4s0,0,0,0c0,0,0,0,0,.1.2.1.3.3.4.3,0,0,.2.2.3.3,0,0,0,0,.1,0,0,0,0,0,0-.1-.1,0,0-.1,0-.2,0,0,.1,0,.2-.2l.4-.2s0,0,0,0l.8.7s0,0,0,0l-.2.7s-.2,0-.2,0c0,0,0,0,0,0,0,0,0,0,0,.2,0,0,.3.2.4.3,0,0,.2.2.3.3.1.1.2.1.2,0,0,0,0,0,0,0-.2-.1,0-.4,0-.6.2-.7.8-2.4.8-2.6,0-.1,0-.2,0-.2,0,0,0,0-.2,0l-2.5,1.3c-.3.1-.4.1-.6,0M55.9,31.7s0,0,0,0h0s-.4,1.2-.4,1.2l-.7-.6,1.1-.6Z"/>
  <path d="M56.4,35.1c0,0,0-.1-.1,0,0,0,0,0,0,.1.1.1.3.3.3.4.1.2.3.5.5.7.7.8,1.6,1.1,2.5.4.9-.7.7-1.6-.2-2.6-.2-.2-.3-.4-.4-.5,0,0-.2-.3-.4-.5,0,0,0,0-.1,0,0,0,0,0,0,.1.1.2.2.3,0,.4-.1,0-.2.2-.7.6l-.6.5c-.8.7-.9.7-1,.5M57.5,35.3l1.5-1.2c.1,0,.1,0,.3.1.6.7.6,1.5,0,2.1-.7.6-1.3.5-1.8-.2-.3-.4-.3-.5.1-.9"/>
  <path d="M60.8,42.4c0,0,0,0,.2,0,.2,0,.5-.1.6-.1,0,0,0,0,0,0,0,0,0,0-.1,0-.4,0-.6,0-.8-.6-.3-.7,0-1.4.8-1.8.7-.3,1.3-.2,1.7.5.2.5.2,1-.2,1.2,0,0,0,0,0,.1,0,0,0,0,.1,0,0,0,.3-.1.4-.2.1,0,.2,0,.2,0,0,0,0,0,0-.1,0-.2-.1-.5-.3-1-.4-.9-1.3-1.5-2.2-1.1-1.1.5-1.2,1.5-.8,2.5.1.2.3.5.4.7"/>
  <path d="M61.2,43s0,0,0,0c0,0,0,0,0,.1,0,.2.1.4.1.5,0,.1,0,.3,0,.4,0,0,0,0,0,0,0,0,0,0,0-.1,0-.1,0-.2,0-.2,0,0,.1,0,.3,0h.5c0,0,0,0,0,0l.2,1s0,0,0,0l-.6.4s-.1-.2-.1-.2c0,0,0,0,0,0,0,0,0,0,0,.2,0,0,0,.3.1.4,0,.1,0,.3,0,.4,0,.2,0,.2.1.2,0,0,0,0,0,0,0-.2.1-.4.3-.5.5-.4,2-1.5,2.2-1.6,0,0,.1-.1.1-.2,0,0,0,0-.2,0l-2.8-.4c-.3,0-.4-.1-.5-.4M63.7,44s0,0,0,0h0s0,0,0,0l-1,.7-.2-.9h1.3Z"/>
  <path d="M64.5,46.2s0,0,0,0c0,0,0,0,0,0,.2,0,.2.1.3.4v.6c0,0-2,.2-2,.2-.7,0-.7,0-.7-.2,0,0,0,0,0,0,0,0,0,0,0,.1,0,.2,0,.4,0,.5,0,.1,0,.4,0,.7,0,0,0,.1,0,0,0,0,0,0,0,0,0-.3,0-.4.7-.4l2-.2v.5c0,.4,0,.5-.2.5,0,0,0,0,0,0,0,0,0,0,0,0,.1,0,.4,0,.5,0,0,0,.1,0,.1,0,0,0,0-.1,0-.4l-.2-1.9c0-.2,0-.3,0-.4,0,0,0,0-.1,0,0,0-.4,0-.5,0"/>
  <path d="M65.7,52.4s-.4-.6-.5-.9c0-1.1-.8-1.6-1.5-1.6-.7,0-1.7.4-1.8,1.6,0,1.1.6,1.8,1.6,1.9.9,0,1.6-.5,1.7-1.5,0,.3.2.8.2.8,0,0,0,0,.1,0,0,0,.1,0,.2,0,0,0,0,0,0-.2M65,51.6c0,.7-.7,1.2-1.6,1.1-1.2-.1-1.3-.8-1.2-1.1,0-.8.8-1.2,1.6-1.1,1,0,1.2.6,1.2,1.1"/>
  <path d="M64.6,54.8c0,.3-.1.3-.6.2l-1.6-.4c-.7-.2-.7-.2-.7-.5,0,0,0,0,0,0,0,0,0,0,0,0,0,.2,0,.4-.1.5,0,.3-.2.6-.3,1.2,0,.2,0,.3,0,.3.1,0,.5.2.5.2,0,0,0,0,.1,0,0,0,0,0,0,0-.3-.1-.4-.2-.2-.7.1-.5.2-.5.7-.4l1.6.4c.5.1.5.2.5.4,0,0,0,0,0,.1,0,0,0,0,0,0,0-.2.1-.5.1-.6,0-.1.1-.4.2-.6,0,0,0-.1,0-.1,0,0,0,0,0,0"/>
  <path d="M63.6,58.1c0,.2-.2.2-.3.2-.1,0-.2,0-.8-.3l-.7-.3c-.4-.2-.7-.3-.8-.4-.2,0-.2-.2-.1-.3,0,0,0,0,0,0,0,0,0,0-.1,0,0,.2-.1.4-.2.5,0,.1-.2.3-.3.6,0,0,0,.1,0,.1,0,0,0,0,0,0,0-.2.2-.3.3-.3.2,0,.5.2.8.3l.7.3c.6.2.7.3.8.3.2,0,.2.2.1.3,0,0,0,0,0,.1,0,0,0,0,0,0,0-.1.1-.4.2-.5,0-.1.2-.4.2-.5,0,0,0-.1,0-.1,0,0,0,0,0,0"/>
  <path d="M61.4,59.8c-1-.6-1.9,0-2.5.8-.1.2-.3.5-.3.7,0,0,0,.1,0,.2.1.1.4.3.4.4,0,0,0,0,0,0,0,0,0,0,0-.1-.2-.3-.3-.5,0-1,.4-.6,1.1-.9,1.9-.4.7.4.9,1,.5,1.7-.2.4-.7.8-1,.5,0,0-.1,0-.1,0,0,0,0,0,0,.1,0,0,.3.2.4.2.1,0,.2.1.2.1,0,0,0,0,.1,0,.1-.2.4-.4.6-.8.5-.9.4-1.9-.4-2.4"/>
  <path d="M58.3,62.5c-.1-.3-.1-.4,0-.6,0,0,0,0,0,0,0,0,0,0-.1,0-.1.2-.3.3-.3.4,0,0-.2.2-.3.3,0,0,0,0,0,.1,0,0,0,0,.1,0,0-.1.1,0,.2,0,0,0,0,.1.2.2l.2.4s0,0,0,0l-.7.8s0,0,0,0l-.7-.2s0-.2,0-.2c0,0,0,0,0,0,0,0,0,0-.2,0,0,0-.2.3-.3.4,0,0-.2.2-.3.3-.1.1-.1.2,0,.2,0,0,0,0,0,0,.1-.2.4,0,.6,0,.7.2,2.4.8,2.6.8.1,0,.2,0,.2,0,0,0,0,0,0-.2l-1.3-2.5ZM59.1,64.5h0s-1.2-.4-1.2-.4l.6-.7.6,1.1s0,0,0,0h0Z"/>
  <path d="M30.1,67.5c-.2-.1-.5-.3-.6-.3-.1,0-.3-.2-.5-.3,0,0-.1,0-.1,0,0,0,0,0,0,0,.2.1.2.2.2.4,0,.1-.1.2-.4.8l-.4.6c-.5.9-.6.9-.7.8,0,0-.1,0-.2,0,0,0,0,0,0,.1.1,0,.4.2.5.3.2.1.5.3.7.5.9.5,1.9.5,2.5-.5.6-1,0-1.8-1-2.4M30.6,69.7c-.5.8-1,.9-1.8.5-.5-.3-.4-.4-.2-.9l1-1.7c0-.1,0-.1.3,0,.8.5,1.1,1.2.6,2"/>
  <path d="M34.6,69.6c0,0-.9-.3-1-.4-.1,0-.4-.1-.6-.2,0,0-.1,0-.1,0,0,0,0,0,0,0,.2,0,.3.2.2.3,0,.1,0,.2-.3.8l-.3.7c0,.2-.2.4-.2.6-.2.4-.2.5-.4.4,0,0,0,0,0,0,0,0,0,0,0,0,.2,0,.4.1.5.2.4.2.8.3,1.2.5,0,0,.1,0,.2,0,0,0,.2-.3.2-.4,0,0,0,0,0-.1,0,0,0,0,0,0,0,.1-.2.2-.3.2-.1,0-.4,0-.5-.1-.3-.1-.3-.1-.2-.4,0-.1.2-.5.3-.9,0,0,0,0,0,0,0,0,.5.2.5.2.2,0,.2.2.1.4,0,0,0,0,0,0,0,0,0,0,0,0,0-.2.2-.5.2-.5,0,0,0,0,0,0,0,0,0,0-.1,0,0,0-.2,0-.4,0-.2,0-.4-.1-.4-.2,0,0,0,0,0,0l.4-1s0,0,0,0c.8.3.8.3.7.6,0,0,0,0,0,0,0,0,0,0,0,0,.1-.3.2-.4.2-.5,0,0,0,0,0,0,0,0-.1,0-.3,0"/>
  <path d="M40.5,70.8c-.2,0-.5-.2-1-.2-1,0-1.9.4-2,1.4-.1,1.2.8,1.8,1.8,1.9.3,0,.6,0,.8,0,0,0,.1,0,.1-.1,0-.1.1-.5.1-.6,0,0,0,0,0,0,0,0,0,0,0,0-.1.3-.3.5-.9.4-.7,0-1.2-.6-1.2-1.6.1-.8.5-1.3,1.3-1.2.5,0,1,.3.9.7,0,0,0,.1,0,.1,0,0,0,0,0-.1,0,0,0-.3,0-.5,0-.1,0-.2,0-.2,0,0,0,0,0,0"/>
  <path d="M45.6,73.4c-.2,0-.3,0-.4-.2,0-.2,0-.5-.1-.9v-.7c-.1-.6-.2-.7-.2-.9,0-.2,0-.2.2-.3,0,0,0,0,0,0,0,0,0,0-.1,0-.2,0-.4,0-.5,0-.1,0-.4,0-.6,0,0,0-.1,0-.1,0,0,0,0,0,0,0,.2,0,.3,0,.3.2,0,.1,0,.2.1.9v.2s0,0,0,0l-1.6.2s0,0,0,0v-.2c0-.6-.1-.7-.1-.9,0-.2,0-.2.2-.3,0,0,0,0,0,0,0,0,0,0-.1,0-.2,0-.4,0-.5,0-.1,0-.4,0-.6,0,0,0-.1,0-.1,0,0,0,0,0,.1,0,.2,0,.3,0,.3.2,0,.1,0,.2.1.9v.7c.1.4.2.7.2.9,0,.2,0,.2-.2.3,0,0,0,0,0,0,0,0,0,0,.1,0,.2,0,.4,0,.5,0,.1,0,.4,0,.7,0,0,0,.1,0,0,0,0,0,0,0,0,0-.2,0-.3,0-.4-.2,0-.2,0-.5-.1-.9v-.3s0,0,0,0l1.6-.2s0,0,0,0v.3c0,.4.1.7.1.9,0,.2,0,.2-.2.3,0,0,0,0,0,0,0,0,0,0,.1,0,.2,0,.4,0,.5,0,.1,0,.4,0,.7,0,0,0,.1,0,0,0,0,0,0,0,0,0"/>
  <path d="M48.6,72.6c-.2,0-.3,0-.4,0,0-.2-.2-.5-.3-.9l-.2-.7c-.2-.6-.2-.7-.2-.8,0-.2,0-.2.2-.3,0,0,0,0,0,0,0,0,0,0-.1,0-.2,0-.4.1-.5.2-.1,0-.4,0-.5.1,0,0-.1,0-.1,0,0,0,0,0,.1,0,.2,0,.3,0,.3.1,0,.1,0,.2.3.8l.2.7c.1.4.2.7.2.9,0,.2,0,.2-.2.3,0,0,0,0,0,0,0,0,0,0,.1,0,.2,0,.4-.1.5-.2.1,0,.4,0,.6-.2,0,0,0,0,0,0,0,0,0,0-.1,0"/>
  <path d="M52,70.6c0,0,0,0,0,0,0,0,0,0,0,.1,0,.3,0,.4-.4.6-.5.2-.5.2-.8-.3l-.7-1.5c-.2-.5-.2-.5,0-.6,0,0,0,0,0,0,0,0,0,0-.1,0-.2,0-.4.2-.5.2-.1,0-.4.1-.5.2,0,0,0,0,0,0,0,0,0,0,.1,0,.3-.1.3,0,.5.4l.7,1.5c.3.6.3.7,0,.8,0,0,0,0,0,0,0,0,0,0,.1,0,.2,0,.4-.2.5-.2.3-.1.6-.2,1.1-.5.2,0,.2-.1.2-.2,0-.1-.1-.5-.2-.5"/>
  <path d="M55.1,68.8s0,0,0,0c0,0,0,0,0,.1,0,.2,0,.2,0,.3,0,0-.3.3-.4.3-.3.2-.3.2-.4,0,0-.1-.3-.4-.5-.8,0,0,0,0,0,0,0,0,.4-.3.5-.3.2-.1.3,0,.4.1,0,0,0,0,0,0,0,0,0,0,0-.1-.1-.2-.2-.5-.3-.5,0,0,0,0,0,0,0,0,0,0,0,.1,0,0,0,.1-.3.3-.2,0-.3.2-.4.2,0,0,0,0,0,0l-.6-.9s0,0,0,0c.7-.4.7-.4.9-.2,0,0,0,0,0,0,0,0,0,0,0,0-.2-.3-.2-.4-.3-.5,0,0,0,0,0,0,0,0,0,0-.2.2,0,0-.8.5-.9.6,0,0-.3.2-.5.3,0,0,0,0,0,.1,0,0,0,0,.1,0,.2-.1.3-.1.4,0,0,.1.1.2.5.7l.4.6c.1.2.2.4.3.5.3.4.3.4,0,.6,0,0,0,0,0,0,0,0,0,0,.1,0,.1,0,.4-.2.4-.3.4-.2.7-.5,1.1-.7,0,0,0,0,0-.2,0,0-.2-.3-.2-.4"/>
</svg>