<?xml version="1.0" encoding="UTF-8"?><svg id="Layer_2" xmlns="http://www.w3.org/2000/svg" viewBox="0 0 1549.95 314.91"><g id="Layer_1-2"><path d="M1549.94,7.22q0-7.07-7.01-7.09c-93.26,0-186.53.04-279.79-.13-5.2,0-6.2,1.63-6.18,6.42.16,50.33.1,100.66.1,151,0,50.17,0,100.33,0,150.5,0,6.49.12,6.6,6.64,6.62,10.53.03,21.05.02,31.58.02,65.79,0,131.59,0,197.38,0,6.8,0,6.87-.08,6.87-6.89.02-12.83,0-25.66,0-38.49q0-6.4-6.48-6.41c-59.38,0-118.76,0-178.14,0-6.78,0-6.81-.03-6.82-6.9-.01-22.37,0-44.74,0-67.11,0-10.7,0-10.66,10.58-10.66,74.68,0,149.35,0,224.03-.01,7.22,0,7.23-.03,7.24-7.02,0-54.61,0-109.22,0-163.83ZM1499.03,120.93c.03,4.2-1.08,5.75-5.52,5.74-60.01-.12-120.01-.11-180.02-.01-3.97,0-5.49-1.12-5.46-5.3.17-21.7.18-43.4,0-65.1-.04-4.3,1.65-5.2,5.52-5.18,30.09.11,60.17.06,90.26.06,29.76,0,59.52.08,89.27-.08,4.38-.02,6.03,1.03,5.98,5.75-.24,21.37-.2,42.74-.02,64.12Z"/><path d="M338.04,307.76c0,7.1-.03,7.13-7.15,7.13-12.67.01-25.33,0-37.99,0q-7.28,0-7.28-7.5c0-82.07,0-164.14,0-246.22,0-1.48-.09-2.97,0-4.44.19-3.2-1.31-4.36-4.44-4.3-6.41.13-12.83.03-19.24.03-19.57,0-39.15.17-58.72-.1-5.12-.07-6.31,1.68-6.31,6.53.13,82.24.09,164.47.09,246.71,0,1.65-.07,3.29-.01,4.93.11,3.14-1.39,4.39-4.49,4.38-14.47-.07-28.95-.06-43.42-.01-3.11.01-4.36-1.2-4.31-4.44.23-14.3.36-28.61.36-42.92.03-69.08.02-138.16.02-207.24q0-7.82-7.97-7.84c-26.32,0-52.63.12-78.95-.11-5-.04-6.42,1.42-6.41,6.41.14,82.4.1,164.8.1,247.2,0,1.81-.02,3.62-.07,5.43-.06,2.12-1.04,3.43-3.3,3.43-15.13.02-30.26.02-45.39.04-2.28,0-3.24-1.11-3.16-3.38.1-2.96.08-5.92.08-8.88,0-98.19.01-196.38.01-294.57Q.09.5,7.66.49c53.95,0,107.9,0,161.84,0,54.11,0,108.22.07,162.34-.12,5.14-.02,6.3,1.55,6.29,6.41-.12,100.33-.09,200.66-.09,300.99Z"/><path d="M1145.38,314.55c-92.92,0-185.85,0-278.78,0-7.04,0-7.11-.07-7.12-7.2-.02-12.99.23-25.99-.13-38.98-.13-4.82,1.62-5.71,5.94-5.7,76.15.1,152.3.08,228.45.08,7.42,0,7.55,0,7.57-7.41.07-23.19.04-46.38.03-69.57q0-7.7-7.56-7.7c-74.17,0-148.35,0-222.53.02q-11.77,0-11.77-11.73c0-53.78.04-107.56-.08-161.34,0-3.86.91-5,4.92-4.99,47.2.15,94.41.09,141.61.09v.02c46.71,0,93.42,0,140.13,0,6.91,0,6.94.03,6.95,6.78.03,12.17.02,24.34.02,36.51q0,7.69-7.52,7.69c-75.66,0-151.31,0-226.97,0q-7.36,0-7.37,7.21c0,20.39,0,40.79,0,61.18,0,7.02.02,7.05,7.25,7.05,75.49,0,150.98,0,226.48,0q8.11,0,8.12,8.14c.01,57.4.02,114.8.03,172.2,0,7.6-.01,7.62-7.66,7.62Z"/><path d="M734.01,6.1c.01-4.24-.98-5.72-5.42-5.71-77.31.12-154.62.13-231.93,0-4.72,0-5.93,1.78-5.88,6.07.16,12.66.04,25.33.06,38,.01,7.67.14,7.78,7.65,7.78,45.07,0,90.14,0,135.21,0,14.47,0,28.95.06,43.43-.04,3.43-.02,5.14.97,5.12,4.74-.09,24.51-.09,49.02-.02,73.53.01,4.81-1.58,6.51-6.82,6.49-75.83-.2-151.66-.13-227.49-.13q-7.57,0-7.59,7.71c0,53.95,0,107.91,0,161.86q0,8.48,8.26,8.48c92.61,0,185.22,0,277.82,0q7.48,0,7.49-7.29c0-50,0-100.01,0-150.01,0-50.5-.05-101,.09-151.49ZM676.31,263.33c-29.75-.15-59.5-.08-89.25-.08-29.59,0-59.17-.12-88.76.1-5.07.04-6.42-1.6-6.37-6.51.24-20.87.21-41.75.01-62.62-.04-4.58,1.55-5.95,5.99-5.94,59.5.1,119,.1,178.5-.01,4.63-.01,5.89,1.69,5.86,6.07-.17,21.04-.19,42.08,0,63.12.04,4.59-1.54,5.9-5.99,5.88Z"/></g></svg>